<svg version="1.2" xmlns="http://www.w3.org/2000/svg" viewBox="0 0 400 322" width="400" height="322">
	<title>image</title>
	<style>
		.s0 { fill: #62c8f2 } 
		.s1 { fill: #000000 } 
		.s2 { fill: #e94e24 } 
	</style>
	<g id="Background">
		<path id="Path 0" class="s0" d="m81.2 119.3c-1.5 2.3-4 6-5.7 8.1-1.7 2.2-5.5 5.8-8.5 8.1-3 2.2-8.4 5.1-12 6.3-3.6 1.2-11 2.6-16.5 3.1-7 0.8-11.5 1.8-15 3.5-2.8 1.3-6.8 4.4-8.9 6.8-2.2 2.3-5 6.6-6.2 9.3-1.2 2.8-3 8.2-4 12-1 3.8-1.5 7.8-1.1 8.8 0.4 0.9 1.5 1.7 2.4 1.7 1 0.1 2.3-1.1 3-2.7 0.6-1.5 2.1-6.2 3.3-10.3 1.2-4.1 3.4-9.3 4.9-11.5 1.5-2.2 4.3-5 6.2-6.3 1.8-1.3 5.6-3 8.4-3.8 2.7-0.8 7-1.4 9.5-1.4 2.5 0 7.4-0.7 11-1.6 3.6-0.8 9-2.8 12-4.5 3-1.6 7.7-4.8 10.5-7.2 2.7-2.4 6.9-7.2 9.3-10.8 2.3-3.5 4.4-7.4 4.5-8.5 0.1-1.3-0.5-2.4-1.6-2.8-0.9-0.3-1.9-0.6-2.2-0.6-0.3 0-1.8 1.9-3.3 4.3zm270.3 27.7c6 6.1 11.2 11 11.5 11 0.3 0-4.3-4.9-10.2-11-5.9-6-11.1-11-11.5-11-0.4 0 4.1 4.9 10.2 11zm-225.3 56.8c-1.2 0.6-1.2 1.5 0 5.9 1.2 4.9 1.2 5.4-0.8 8-1.1 1.6-3.8 4.2-6 5.8-2.2 1.8-8.1 4.5-13.4 6.2-5.2 1.7-15.4 4.5-22.5 6.1-7.2 1.7-17.1 4.6-22 6.5-5 1.9-13.1 5.5-18 7.9-5 2.5-13.3 7.4-18.5 10.9-5.2 3.5-12.3 9-15.7 12.4-4.7 4.5-6.3 6.7-6.3 8.8 0 1.7 0.6 2.9 1.7 3.2 1.3 0.4 3.5-1.3 7.3-5.6 3.2-3.7 9.8-9 16-13.2 5.8-3.8 15-9.1 20.5-11.7 5.5-2.6 13.4-6 17.5-7.5 4.1-1.4 14.7-4.4 23.5-6.5 8.8-2.1 18.5-4.8 21.5-5.9 3-1.1 8.2-3.8 11.5-6 3.5-2.3 6.9-5.5 8.2-7.8 1.3-2.2 2.2-5.5 2.3-8 0-2.4-0.5-5.3-1.1-6.5-0.7-1.3-1.7-2.6-2.3-3-0.6-0.4-1.3-0.8-1.6-0.8-0.3 0-1.1 0.4-1.8 0.8z"/>
		<path id="Path 1" class="s1" d="m288 8.5c-2.5 0.8-6.1 2.9-8 4.7-2.4 2.3-4.9 6.8-8.1 14.3-4.5 10.8-4.6 11-8.5 11.9-3.8 0.8-4.2 0.6-12.4-5.7-4.7-3.6-10.5-7.3-13-8.2-2.9-1.1-6-1.4-8.8-1.1-2.3 0.3-6 1.5-8.2 2.6-2.2 1.1-5.1 3.5-6.4 5.2-1.3 1.8-2.8 4.9-3.5 6.8-0.6 1.9-1.1 5.3-1.1 7.5 0 2.2 0.9 5.8 1.9 8 1 2.2 3.1 5.2 4.7 6.6 1.6 1.4 6.3 5.2 10.4 8.4l7.5 5.7c-0.5 13.4-0.8 17.4-0.8 17.6-0.1 0.1-19.2-4.8-42.4-11l-42.2-11.3c-5.1-8.1-7.8-12.3-9.3-14.5-1.6-2.2-4.3-4.9-6-6-1.8-1.1-4.9-2-6.8-2-1.9 0-5.1 0.8-7 1.9-1.9 1-4.3 3.4-5.2 5.2-0.9 1.9-2 6.5-2.3 10.4-0.3 3.8-0.8 8.9-1 11.2-0.4 3.6-1.6 5.4-6.5 10.8-4.4 4.8-6.4 7.9-7.5 11.7-0.8 2.9-1.5 7.5-1.5 10.3 0 2.7 0.7 7.5 1.6 10.5 0.8 3 1.8 6.6 2.1 8 0.3 1.4 0.3 3.7-0.1 5.2-0.4 1.8-5.5 7.7-13.9 16-10.9 10.9-14 14.6-16.8 20.3-3 6-3.4 7.9-3.4 14.5 0 5.1 0.6 8.6 1.7 11 1 1.9 3.7 5.4 6 7.8 3.1 3.1 5.8 4.7 9.8 5.9 3.4 0.9 7 1.2 9.5 0.8 2.2-0.3 6.3-1.3 9-2.2 2.8-0.9 7-2.6 9.5-3.8 2.5-1.2 10.1-7.1 17-13.1 6.9-5.9 14.6-12.5 17.3-14.6 3.9-3.1 5.5-3.8 9.2-3.8 2.5 0 8.4 1.1 13.3 2.4 4.8 1.4 10.6 2.9 13 3.5 2.6 0.7 4.2 1.7 4.2 2.6 0 0.8-1.6 2.4-3.5 3.5-2.2 1.2-3.7 3-4.1 4.7-0.6 2.3-0.1 3.3 2.5 5.5 1.7 1.6 3.8 2.8 4.6 2.8 1.2 0 1.4 1 0.9 5.7-0.3 3.2-1.5 9.2-2.5 13.3-1 4.1-3.6 11.1-5.8 15.5-2.1 4.4-6.1 10.4-8.8 13.4-2.6 2.9-6.1 6.1-7.8 7.1-1.7 1-7.5 3.5-13 5.5-5.5 2-14.5 5.7-20 8.3-5.5 2.7-13.4 7.1-17.5 9.9-4.1 2.9-10 7.6-13 10.5-3.1 2.9-7.4 7.8-9.7 10.8-2.3 3-6.2 9.7-8.7 14.7-2.5 5.1-4.6 9.5-4.6 9.8 0 0.3 1.3 0.5 3 0.5 2.6 0 3.3-0.6 5.2-4.8 1.2-2.6 3.7-7.4 5.7-10.7 1.9-3.3 6.7-9.3 10.6-13.4 3.8-4 10.6-9.7 15-12.6 4.4-2.9 11.2-6.8 15-8.8 3.8-1.9 12.6-5.6 19.5-8.2 6.9-2.6 13.8-5.5 15.5-6.5 1.7-1 5.6-4.5 8.8-7.9 3.6-3.8 7.2-9.1 9.7-14.4 2.2-4.5 5.1-12.7 6.4-18.2 1.4-5.5 2.7-11.7 3-13.8 0.5-3.1 1-3.7 3.1-3.7 1.4 0 3.5-0.5 4.7-1.1 1.3-0.7 2.6-1.7 3-2.3 0.4-0.6 0.8-2.2 0.8-3.6 0-1.4-0.7-3.2-1.6-4-0.8-0.8-1.4-2.2-1.2-3.1 0.3-1.5 2.2-1.1 15.5 2.5 8.3 2.2 15.8 4.8 16.7 5.6 0.8 0.8 2.2 5.1 3 9.5 0.8 4.4 2.7 14.1 4.1 21.5 1.7 8.8 3.7 15.9 5.8 20.4 2 4.2 4.9 8.5 7.7 11.1 2.5 2.3 6.3 4.8 8.5 5.5 2.2 0.8 6.5 1.4 9.5 1.4 3 0 7.3-0.6 9.5-1.4 2.2-0.8 5.5-2.8 7.4-4.4 1.8-1.7 4.4-5.2 5.7-7.9 1.3-2.6 3-7.5 3.8-11 0.8-3.4 2-10 2.6-14.7 0.6-4.7 1.3-9.6 1.5-11 0.5-2.2 1.2-2.6 6.3-3.1 3.1-0.4 8-1.8 10.7-3.1l5-2.5c7.8 5.7 11.9 8.4 14.3 9.5 2.3 1.2 6.8 2.6 9.9 3.1 3.7 0.6 7.4 0.6 10.3-0.1 2.5-0.5 5.3-1.4 6.2-1.9 1-0.5 3.7-2.6 5.9-4.7 2.3-2 5.1-5.5 6.2-7.7 1.6-2.9 2.1-5.9 2.2-11 0-4.5-0.7-8.8-1.9-12-1.1-2.8-3.3-7.3-5.1-10-1.8-2.8-8.9-10.6-16-17.5-7-6.9-14.2-14.8-16-17.5-1.7-2.8-4.9-6.7-7.1-8.9-2.1-2.1-5.5-4.6-7.4-5.6-1.9-1-5.4-2.4-7.8-3.1-3.5-1.2-4.2-1.8-4.2-3.9 0-2.3 0.5-2.6 5.2-3.2 2.9-0.4 7-1.4 9-2.3 2.1-0.8 5.4-3 7.5-4.8 2-1.7 4.4-5 5.4-7.2 1-2.2 1.9-6.3 1.9-9 0-3.6-0.6-6-2.2-8.5-1.8-2.8-5.1-4.9-15.5-10-7.2-3.6-14.1-7.4-15.2-8.5-1.2-1.1-2.2-2.3-2.1-2.8 0-0.4 2-5.8 4.5-12 2.4-6.1 4.5-12.6 4.5-14.2 0-1.7-0.5-4.7-1-6.8-0.6-2-2.9-5.8-5.3-8.3-3-3.3-5.6-4.9-9.2-6-2.8-0.8-5.7-1.4-6.5-1.3-0.8 0-3.5 0.7-6 1.4z"/>
		<path id="Path 2" fill-rule="evenodd" class="s2" d="m296 13.4c2.5 0.3 5.6 1.3 7 2.4 1.4 1 3.5 3.4 4.8 5.3 1.4 2.1 2.2 4.9 2.2 7.2 0 2-1.6 7.7-7 21.7l-5.3-3.7c-2.8-2.1-7.2-4.5-9.7-5.4-2.5-0.9-6.7-2.1-9.3-2.6-2.6-0.4-4.6-1.3-4.3-1.8 0.2-0.5 1.6-4.1 3.1-8 1.6-3.9 3.8-8.3 4.9-10 1.2-1.6 3.7-3.5 5.6-4.2 1.9-0.7 5.5-1.1 8-0.9zm-64.5 16.6c2.3 0 5.4 0.9 7.3 2 1.7 1.1 6.7 4.7 10.9 8.1 7.5 5.8 8 6.1 11.8 5.3 2.2-0.4 8.1-0.8 13-0.8 7.6 0 9.8 0.4 14 2.4 2.7 1.4 6.7 4.5 9 6.9 2.2 2.4 5.8 6.2 8 8.5 2.8 2.9 6.9 5.4 14 8.5 5.5 2.4 11.5 5.4 13.2 6.7 2.1 1.5 3.5 3.6 3.9 5.7 0.4 2.1 0 4.7-1.3 7.7-1.1 2.5-3.4 5.7-5.1 7.3-1.8 1.5-5.1 3.2-7.5 3.9-2.3 0.6-8.5 1.1-13.7 1-5.2-0.1-11.1-0.7-13-1.2-2.7-0.8-3.8-0.7-5 0.5-1.3 1.3-1.3 1.7 0 3 0.8 0.8 3.3 1.8 5.5 2.1 2.2 0.3 5.5 0.7 7.2 1 3.1 0.4 3.3 0.6 3.3 4.4 0 2.2-0.7 5.7-1.6 7.7-0.8 2.1-2.3 4.6-3.2 5.6-1.5 1.6-1.5 1.9-0.2 3.3 1 0.9 2.2 1.2 3.4 0.7 1-0.4 3-2.9 6.6-10.3l3.7 1.4c2.1 0.7 5.2 2 6.8 2.8 1.6 0.9 5 3.8 7.5 6.5 2.8 3.1 5.1 6.9 6.2 10.4 1.1 3.2 1.8 8.6 1.8 13.4 0 4.9-0.8 11.1-2 16-1.2 4.4-3.8 11.1-5.8 14.9-2.2 4.2-5.7 8.7-8.7 11.3-3.1 2.8-6.9 5-10 5.9-2.8 0.8-5.8 1.4-6.8 1.4-1.5 0-1.6-0.7-1.1-5.8 0.4-3.2 0.2-7.2-0.4-9.2-0.6-1.9-1.8-3.8-2.6-4.3-0.9-0.4-2-0.5-2.6-0.2-0.6 0.3-0.8 3.1-0.4 7.2 0.4 3.9 0.2 9-0.4 11.8-0.6 2.7-1.9 10.8-2.8 18-0.8 7.2-2.4 15.7-3.5 19-1.1 3.3-3.2 7.5-4.7 9.4-1.5 1.9-4.5 4.3-6.7 5.3-2.2 1-6 1.8-8.5 1.8-2.5 0-6.3-0.9-8.5-1.8-2.2-1-5.7-3.8-7.8-6.3-2.1-2.4-4.7-6.8-5.7-9.7-1.1-2.8-3.5-13.6-5.4-24-1.9-10.3-3.7-22.4-4-27-0.3-4.5-1-9.1-1.6-10.2-0.6-1.3-1.8-1.9-3.3-1.7-1.6 0.1-2.1 0.8-1.9 2.2 0.1 1.1 0.6 3.5 1.7 8.5l-6.5-2c-3.6-1-13.9-3.9-23-6.4-9.1-2.5-23.5-6.5-32.2-8.8-15.2-4.2-15.6-4.4-14.7-6.6 0.5-1.2 0.7-2.6 0.4-3.2-0.3-0.6-1.4-1-2.5-1-1.2 0-2.6 1.1-3.4 2.7-0.7 1.6-2.8 3.7-4.7 4.9-1.9 1.2-10.8 8.5-19.9 16.3-9.1 7.8-18.5 15.1-21 16.3-2.5 1.2-6.8 2.8-9.5 3.5-2.8 0.7-6.7 1.3-8.8 1.3-2 0-4.9-0.6-6.5-1.4-1.5-0.7-4.4-3.2-6.5-5.5-2.1-2.3-4.2-5.9-4.8-8.4-0.7-3-0.7-5.5 0.1-8.7 0.6-2.5 2.5-7 4.1-10 1.9-3.3 7.8-10.1 14.9-17 6.4-6.3 12.4-12.9 13.3-14.5 0.8-1.7 1.8-4.6 2.2-6.5 0.5-2.4 0-5.3-1.4-9.5-1.3-3.8-2.1-8.5-2.1-12.8 0-3.7 0.7-8.3 1.5-10.5 0.9-2 3.8-6 6.6-8.7 4.1-4.1 5.2-6.1 6.4-11 0.8-3.3 1.5-8.5 1.5-11.5 0-3 0.5-7 1.2-8.9 0.9-2.4 2.3-3.9 4.5-4.8 2.8-1.1 3.8-1.1 6.3 0.2 1.7 0.8 4.2 3.5 5.7 6 1.6 2.5 4.4 6.9 9.8 14.7l44 12c24.2 6.5 44.1 12 44.3 12.1 0.1 0.1-0.6 2.7-1.7 5.7-1.1 3-2.7 5.8-3.5 6.2-0.9 0.5-1.5 1.8-1.3 3 0.1 1.3 0.9 2.4 1.7 2.6 0.8 0.2 2.6-0.8 4-2.1 1.4-1.3 3.4-4.8 4.4-7.8 1.5-4.1 2.1-9 2.8-34.4l-10.6-8.3c-6.1-4.7-11.3-9.6-12.3-11.5-0.9-1.7-1.7-5-1.7-7.3-0.1-2.9 0.7-5.2 2.6-8 1.6-2.3 4.3-4.8 6-5.7 1.8-0.9 5.1-1.7 7.3-1.7zm112.5 117.5l11.3 11.5c8.2 8.3 12.1 13.2 14.2 17.5 1.6 3.3 3.1 8 3.3 10.5 0.3 2.5 0.2 6.1-0.1 8-0.4 1.9-2.3 5.5-4.4 7.9-2.1 2.5-5.6 5.3-7.8 6.3-2.2 0.9-5.7 1.8-7.7 1.8-2.1 0-5.9-0.7-8.5-1.6-2.7-0.9-7-3.2-9.8-5.2-2.7-1.9-5.3-3.8-5.8-4.1-0.4-0.3 1.2-3.5 3.6-7.1 2.4-3.6 5.5-10.1 7-14.5 1.4-4.4 3.1-10.9 3.7-14.5 0.5-3.6 1-8.8 1-11.5zm-151.5 33.5c0.9 0 1.8 1.6 2.3 4.2 0.5 2.4 1.2 5 1.6 5.8 0.4 0.9 0 1.8-1.1 2.3-1.1 0.4-3.8 0.1-6.6-0.8-2.6-0.8-4.7-1.9-4.7-2.5 0-0.6 0.9-1.4 2-2 1.1-0.6 2.7-2.4 3.5-4 0.8-1.7 2.2-3 3-3z"/>
		<path id="Path 3" class="s0" d="m223.9 243.7c-1.6 3.2-5.3 7.3-11.4 12.6-4.9 4.3-13.3 10.7-18.5 14.2-5.2 3.4-14 8.9-19.5 12.1-6.3 3.6-12.2 8-16 11.8-3.3 3.4-7.2 8.5-8.8 11.4-1.5 2.9-2.5 5.9-2.2 6.7 0.3 0.8 1.5 1.5 2.7 1.4 1.7 0 3.5-1.8 6.8-7.2 2.5-4 6.6-8.8 9-10.8 2.5-2.1 10.1-7 17-10.9 6.9-4 16.6-10.3 21.5-14 4.9-3.7 12.1-9.6 15.9-13.1 3.7-3.5 7.7-7.9 8.7-9.6 1.1-1.8 1.8-4.5 1.6-6-0.1-2-0.8-2.9-2.3-3.1-1.7-0.2-2.7 0.7-4.5 4.5z"/>
		<path id="Path 4" class="s1" d="m298.3 25.2c-1.1 1.1-3 3.2-4.2 4.7-1.1 1.4-2.1 3.8-2.1 5.4 0 1.5 0.4 2.9 1 3.2 0.6 0.3 1.7 0.3 2.5 0 0.8-0.3 1.5-1.3 1.5-2.3 0-0.9 1.9-3.6 4.3-5.9 2.9-2.9 4-4.7 3.4-5.8-0.4-0.8-1.5-1.5-2.5-1.5-0.9 0.1-2.7 1-3.9 2.2zm-65.8 16.5c-0.5 0.3-0.8 1.5-0.7 2.5 0.1 1 1.1 2 2.2 2.3 1.2 0.3 3 2.6 4.5 6 1.8 3.9 2.9 5.4 4 5 0.8-0.3 1.7-0.5 2-0.5 0.3 0 0.5-0.7 0.5-1.5 0-0.8-1-3.8-2.3-6.6-1.4-3.3-3.2-5.7-5-6.5-1.5-0.8-3.1-1.4-3.5-1.4-0.5 0-1.2 0.3-1.7 0.7zm31.5 29.5c-1.2 1.2-2.1 3.3-2.1 4.7 0 1.4 0.9 3.8 2.1 5.3 1.6 2.3 2.8 2.8 6 2.8 3.2 0 4.4-0.5 6-2.8 1.2-1.5 2.1-3.6 2.1-4.7 0-1.1-0.9-3.2-2.1-4.8-1.6-2.1-2.8-2.7-6-2.7-2.7 0-4.5 0.7-6 2.2zm61.9 13.4c-1.1 1.2-2.7 1.5-6.9 1.2-4.9-0.3-5.5-0.1-5.5 1.7 0 1.1 1.1 2.5 2.5 3.3 1.5 0.7 4.2 1.1 6.5 0.8 2.2-0.3 5.1-1.4 6.5-2.4 1.4-1.1 2.5-2.8 2.5-3.8 0-1.2-0.8-2-2.1-2.2-1.1-0.2-2.7 0.4-3.5 1.4zm-198.4 2.3c-2.8 1.5-6.8 4.8-8.9 7.2-2.2 2.4-4.6 5.9-5.3 7.6-0.7 1.8-1.3 4.4-1.3 5.8 0 1.8 0.5 2.5 2 2.5 1.4 0 2.7-1.5 4.4-5.3 1.3-2.8 3.9-6.6 5.7-8.4 1.9-1.8 5.4-4.3 7.9-5.6 2.9-1.5 4.5-3 4.5-4.3 0-1.1-0.8-2-2-2.2-1.1-0.1-4.3 1.1-7 2.7z"/>
	</g>
</svg>