<svg version="1.2" xmlns="http://www.w3.org/2000/svg" viewBox="0 0 532 540" width="532" height="540">
	<title>741602648e5bbb08cb297116bc0f73c9</title>
	<style>
		.s0 { fill: #5b92e5 } 
		.s1 { fill: #d4af37 } 
	</style>
	<g id="Layer 1">
		<path id="Path 0" fill-rule="evenodd" class="s0" d="m259.3 9c1.2 0 4.9 1.3 8.2 2.9 3.3 1.6 7.8 4.9 9.9 7.3 2.2 2.4 5.2 7 6.8 10.3 1.5 3.3 3.2 9.1 3.8 13 0.6 3.9 4.2 31.6 8 61.8 3.9 30.1 7 55.1 7 55.7 0 0.6 0.7 1 1.5 1 0.8 0 1.5-0.3 1.5-0.8 0-0.4 4.3-25.1 9.5-55 6.4-36.5 10.2-55.5 11.5-58.2 1.1-2.2 3.7-5.9 5.9-8.2 2.3-2.7 6.3-5.4 10.2-7.2 4-1.8 8.8-3 12.9-3.3 4.1-0.4 9.4 0.1 14.5 1.1 4.4 0.9 10.6 3.1 13.9 4.9 3.2 1.8 7.5 5 9.4 7.2 2 2.2 4.7 6.5 6.1 9.5 2.2 4.7 2.6 6.8 2.5 15 0 8.2-1.6 16.7-11.2 61.5-6.1 28.6-10.9 52.3-10.6 52.8 0.2 0.4 1 0.7 1.6 0.6 0.7 0 10.5-14.9 21.8-33.1 15.3-24.7 21.8-34.2 25.5-37.7 3.3-3 7-5.2 10.5-6.4 3-0.9 7.3-1.7 9.5-1.7 2.2 0 6 0.5 8.5 1.1 2.5 0.5 7.8 2.6 11.7 4.5 4.5 2.1 9.7 5.6 13.4 9.2 3.7 3.4 7.1 7.9 8.7 11.2 2.1 4.4 2.6 7 2.7 13 0 4.1-0.6 9.3-1.2 11.5-0.7 2.2-3.2 7.4-5.6 11.5-2.4 4.1-17.3 28.4-33.2 54-15.9 25.6-29.1 47.4-29.3 48.5-0.2 1.1 1.2 5.3 3.2 9.3 2 3.9 4.7 10.5 6 14.5 1.4 3.9 3.2 11.5 4.2 16.7 1.2 6.6 1.7 14.3 1.7 25.5-0.1 12.9-0.6 18.2-2.6 27.5-1.3 6.3-4.3 16.2-6.6 22-2.3 5.8-5.9 13.2-7.8 16.5-2 3.3-6.4 9.5-15.8 21.7l2.2 6.6c1.3 3.7 2.7 10.1 3.2 14.2 0.6 4.6 0.7 10 0.1 14-0.5 3.6-1.5 8.3-2.3 10.5-0.8 2.2-2.3 5.8-3.4 8-1.2 2.2-3.9 6.4-6.2 9.3-2.2 2.8-7.6 7.8-11.9 11-4.2 3.1-12 7.8-17.2 10.4-5.2 2.5-13.3 5.8-18 7.3-4.7 1.4-11.6 3.3-15.5 4.1-3.9 0.8-11.5 2.1-17 2.9-6.2 0.9-18.3 1.5-31.5 1.5-12.6 0-26.6-0.6-34-1.5-6.9-0.8-18.6-2.5-26-3.9-7.4-1.4-16.7-3.5-20.5-4.7-3.9-1.1-9.7-3.5-13-5.2-3.3-1.8-8.9-6.1-12.5-9.7-3.6-3.6-7.8-8.7-9.2-11.5-1.5-2.7-3.6-8.6-4.8-13-1.4-5.6-2-11.1-2-18.2 0-5.7 0.7-13.6 3-24.8l-5.9-6c-3.2-3.3-7.8-8.5-10.3-11.5-2.4-3-6.3-8.6-8.6-12.5-2.3-3.9-6.4-12.2-9.2-18.5-2.8-6.3-7-14.4-9.3-18-2.3-3.6-7.8-10.1-12.2-14.5-4.4-4.4-12.1-10.8-17-14.1-5-3.4-15.5-10.1-23.5-14.9-8-4.8-17.2-10.6-20.5-13-3.3-2.3-8-6.4-10.5-9.1-2.5-2.8-5.5-7.1-6.8-9.7-1.2-2.6-2.2-5.4-2.2-6.2 0-0.8 0.5-19.1 1.7-23 1.2-3.8 4.1-9.9 6.5-13.5 2.4-3.5 6.5-8.2 9.3-10.2 2.7-2.1 7.9-4.7 11.5-5.8 3.6-1.2 9.3-2 12.7-2 3.5 0 9.8 0.7 14 1.6 4.3 0.9 11.8 3.1 16.8 5 4.9 1.9 13.5 5.9 19 8.8 5.5 2.9 14.5 8.2 20 11.8 5.5 3.6 14.1 9.5 19 13.2 4.9 3.6 9.4 6.6 10 6.6 0.6 0 1.9-0.6 3-1.4 2-1.4 0.3-4.1-1.1-7.8-29.6-75.9-35.6-74-67.3-149.5-1.7-4-2.2-7.2-2.6-11.5-0.6-6.6 7.3-17.7 10.2-20.5 3.6-3.7 8.3-6.8 15-10 9.2-4.6 10-4.8 18.2-4.8 6.8 0 9.6 0.5 13.3 2.3 2.7 1.2 7.1 4.3 9.9 7 2.9 2.6 6.2 6.3 7.4 8.2 1.2 1.9 8.2 16.1 15.4 31.5 7.3 15.4 16.2 34.4 19.9 42.3 4.9 10.3 7.2 14.2 8.4 14.2 1.4 0 1.7-0.6 1.3-2.7-0.2-1.6-1.8-11.6-3.5-22.3-1.6-10.7-5.9-38.6-9.4-62-5.6-36.4-6.3-43.2-5.5-47.5 0.5-2.7 2.2-7.2 3.7-9.9 1.5-2.7 4.3-6.3 6.3-8 2.1-1.7 6.1-4.3 9-5.8 3-1.5 8.4-3.3 12.2-4 3.7-0.7 18.7-0.8 19.9-0.8zm-28.5 21.3c-1.5 0.9-3.6 3.2-4.7 5-1.1 1.7-2 4.7-2 6.5 0 1.7 3.8 28.3 8.5 59 4.7 30.6 10.6 69.2 13.2 85.7 2.5 16.5 4.6 30.1 4.7 30.1 0 0.1 5.7-0.9 12.6-2.2 6.9-1.2 16.4-2.6 21.3-3.1 4.8-0.4 8.7-0.9 8.7-1 0-0.2-4.5-35.5-10-78.5-5.5-43.1-10.4-81.6-11-85.5-0.5-4-1.9-9-2.9-11-1-2.1-3-4.8-4.3-6-1.2-1.2-3.5-2.6-5.1-3.2-1.5-0.6-5.7-1.1-9.5-1.1-3.7 0.1-9 0.8-11.7 1.8-2.8 0.9-6.3 2.5-7.8 3.5zm112.4 21.3c-1.7 2.3-4.7 17.8-15.6 79.9-7.4 42.4-13.5 77.2-13.5 77.5 0 0.3 5.7 1.1 12.7 1.8 7.1 0.7 16.4 2 20.9 3l8.1 1.7c25.3-118.8 30.7-146.1 30.7-150 0-4-0.7-7.3-2-10-1.5-3.1-3.3-4.7-7.9-7-5.2-2.5-7.3-3-15.5-3.3-8-0.3-10 0-12.7 1.6-1.7 1.1-4 3.3-5.2 4.8zm-205.1 34.9c-2.8 1.4-6.5 3.8-8.3 5.3-1.7 1.6-4 4.5-5 6.5-0.9 2.1-1.7 5.2-1.7 7 0 2.1 7.8 19.8 22.7 51.7 12.4 26.7 24.7 53 27.3 58.5 2.6 5.5 8.2 17.6 12.6 26.8 6.9 14.7 8.2 16.8 9.9 16.3 1.1-0.2 5.8-1.7 10.5-3.1 4.7-1.4 12.5-3 17.5-3.6 6.1-0.6 11.9-0.6 18 0.1 4.9 0.5 11.7 1.7 15 2.5 3.3 0.9 8.9 2.8 12.5 4.2 3.6 1.4 9 3.9 12 5.6 3 1.7 8.1 4.9 11.2 7.1 3.2 2.3 5.7 4.8 5.7 5.6 0 0.8-2.4 4.1-5.4 7.3l-5.5 5.7c-8.9-6-14.3-9.1-17.8-10.9-3.4-1.7-10.1-4.3-15-5.7-7.3-2.3-10.7-2.7-21.2-2.8-10.2 0-14 0.4-20.5 2.3-4.4 1.2-11.6 4.1-16 6.3-4.4 2.2-11 6.2-14.8 8.9l-6.7 4.9c-15.9-12.7-26.1-20.1-33-24.6-6.9-4.5-17.2-10.7-23-13.8-5.8-3-15.5-7.2-21.5-9.2-9-3-12.5-3.7-19.5-3.8-6.8-0.1-9.4 0.3-13 2.1-3 1.4-5.6 3.8-7.8 7-1.8 2.6-4 7.1-4.9 9.8-1 2.8-1.7 7.7-1.7 11 0 4.7 0.5 6.8 2.5 10 1.4 2.2 5 5.8 8 8.1 3 2.2 13 8.7 22.4 14.3 9.3 5.7 20.6 12.8 24.9 15.9 4.4 3.2 12.2 9.8 17.4 14.7 5.4 5.1 11.7 12.5 14.7 17 3 4.4 6.8 11.1 8.5 15 1.8 3.9 4.8 10.4 6.7 14.5 1.9 4.1 5.7 10.6 8.3 14.5 2.7 3.9 8.6 10.6 13.2 15.1 4.6 4.4 11 9.9 14.3 12.1 3.3 2.3 9.6 5.9 14 8.1 4.4 2.2 11.4 5.2 15.5 6.6 4.1 1.5 10.9 3.6 15 4.6 4.1 1.1 12 2.6 17.5 3.4 5.5 0.8 15.4 1.7 22 2.1 6.6 0.4 18.4 0.2 26.2-0.4 7.9-0.6 19.1-2 25-3.2 6-1.1 15.3-3.6 20.8-5.4 5.5-1.8 12.9-4.7 16.5-6.5 3.6-1.8 9.5-5.2 13.2-7.6 3.8-2.4 10.2-7.7 14.4-11.6 4.2-4 9.6-10 11.9-13.3 2.4-3.3 6.1-9.6 8.3-14 2.2-4.4 5.1-11.6 6.5-16 1.4-4.4 3.3-12.5 4.3-18 1.3-7.8 1.5-13.3 1.1-25-0.4-9.3-1.3-18.2-2.5-23.5-1.1-4.7-3.5-11.9-5.4-16-1.9-4.1-5.8-11.1-8.8-15.4-3-4.3-8.2-10.4-11.5-13.5-3.3-3.1-8.5-7.2-11.5-9.2-3-2.1-8.6-5.3-12.5-7.2-3.9-1.9-9.9-4.5-13.5-5.7-3.6-1.2-10.6-3.1-15.5-4.1-6.3-1.4-14.6-2.2-27.5-2.6-14-0.4-21.8-0.1-32 1.1-7.4 0.9-18.9 2.8-25.5 4.1-6.6 1.3-19 4.4-27.5 6.8-8.5 2.5-15.8 4.3-16.3 4.1-0.4-0.2-1.6-3.5-2.7-7.4-1.1-3.8-2-7.7-2-8.5q0-1.5 8-4c4.4-1.4 8.7-2.5 9.5-2.5 0.8 0 1.7-0.4 2-1 0.3-0.6-6.1-14.8-14.1-31.7-8-17-16.6-35.1-19.1-40.3-2.5-5.2-9.4-20.1-15.5-33-6-12.9-12.2-25-13.6-26.9-1.5-1.9-4.3-4.2-6.2-5.2-1.9-0.9-4.9-1.9-6.5-2.2-1.7-0.3-4.7-0.1-6.8 0.4-2 0.5-6 2-8.7 3.4zm300.8 36.2c-0.9 1-10.7 16.4-21.9 34.3-11.1 17.9-22.5 36.3-25.4 41-2.8 4.7-7.5 12.2-10.3 16.8l-5.2 8.2c8.9 4.5 14.6 8 18.5 10.7 3.8 2.7 10 7.7 13.7 11.1 5 4.5 7 5.9 7.7 5 0.5-0.7 5-8 10.1-16.3 5.1-8.2 12.7-20.6 17-27.5 4.3-6.9 12.4-19.9 18.1-29 5.7-9.1 11.8-19.4 13.7-23 2.6-5 3.4-7.8 3.5-12 0-4.2-0.5-6.5-2.4-9.5-1.4-2.3-4.9-5.5-8.4-7.8-3.3-2.1-7.6-4.2-9.5-4.7-1.9-0.4-4.9-1.1-6.5-1.4-1.7-0.3-4.8 0.1-7 0.9-2.2 0.8-4.8 2.3-5.7 3.2zm-66.3 325.7c-5 2.4-13.7 6.1-19.5 8-5.8 1.9-15 4.4-20.5 5.5-5.5 1.1-14.7 2.5-20.5 3.2-6.7 0.7-18.6 1-33 0.6-14.3-0.3-25.8-1.1-31.5-2.2-5-0.9-13.5-2.8-19-4.2-5.5-1.4-13.8-4.1-18.5-6-4.7-1.9-12.2-5.4-16.8-7.9l-8.2-4.4c-0.8 5-1 8.8-1 11.5 0 2.8 0.5 7.7 1.1 11 0.6 3.3 2.3 8.5 3.7 11.5 1.4 3 4.2 7.1 6.2 9 1.9 2 6.6 5.1 10.5 7 5 2.4 11.8 4.3 23.5 6.6 9.1 1.9 23.1 4 31.2 4.9 8.2 0.8 21.4 1.5 29.5 1.5 8.2 0 20.4-0.7 27.3-1.5 6.9-0.8 17-2.6 22.5-3.9 5.5-1.3 14.3-4.1 19.5-6.2 5.2-2.1 12.6-5.9 16.5-8.5 3.8-2.5 9-6.8 11.5-9.5 2.4-2.7 5.6-7.4 7-10.4 2.2-4.8 2.5-6.8 2.5-16.2 0-6.1-0.4-11.1-1-11.7-0.8-0.7-3.1 0.3-7.5 3.3-3.6 2.5-10.6 6.5-15.5 9z"/>
		<path id="Path 1" fill-rule="evenodd" class="s1" d="m45.9 84.2c2.2 0.3 2.7 0.9 3.2 4.8 0.4 2.5 1.3 5.8 2.2 7.5 0.8 1.7 2.5 4 3.6 5.2 1.2 1.3 3.3 2.8 4.9 3.4 1.5 0.7 4.9 1.7 7.6 2.3 4.1 0.9 4.9 1.5 5 3.5 0.1 1.3-0.4 2.5-0.9 2.7-0.5 0.1-3.7 1-7 1.9-4.2 1.2-7.1 2.8-9.6 5.4-2 2-4.2 5.4-4.8 7.6-0.6 2.2-1.1 5.2-1.1 6.7 0 2.4-0.4 2.8-2.7 2.8-2.6 0-2.9-0.4-4.1-5.7-0.7-3.2-2.3-7.3-3.5-9.2-1.2-1.9-4-4.4-6.2-5.7-2.2-1.2-6.1-2.5-8.8-2.8-4.4-0.6-4.7-0.8-4.7-3.6 0-2.7 0.4-3.1 3.8-3.6 2-0.3 6.1-1.6 9-3 3.9-1.8 5.8-3.5 7.6-6.7 1.3-2.3 2.7-6.4 3.1-9 0.7-4.5 0.9-4.8 3.4-4.5zm-8.4 26.7c7.7 7.6 8.9 8.2 9.4 7.1 0.2-0.8 1.2-2.2 2.1-3 0.9-0.8 2.4-2 3.4-2.5 1.5-0.9 1.2-1.5-2.6-5.3l-4.4-4.2zm459.6 143.1c2.7 0 2.9 0.3 2.9 3.5 0 1.9 0.7 5.2 1.6 7.2 0.8 2.1 2.5 4.8 3.7 6.1 1.2 1.3 3.8 3.2 5.7 4.1 1.9 1 5.2 2.1 7.3 2.4 3.3 0.6 3.7 1 3.7 3.7 0 2.7-0.4 3-3.7 3.6-2.1 0.3-5.4 1.4-7.3 2.3-1.9 1-4.9 3.5-6.7 5.4-2 2.2-3.5 5.2-3.8 7.4-0.3 2.1-0.8 4.8-1 6-0.4 1.6-1.2 2.3-3 2.3-1.8 0-2.6-0.7-2.9-2.3-0.3-1.2-0.7-3.8-1-5.7-0.3-1.9-1.6-5.1-2.8-7-1.3-1.9-4.1-4.5-6.3-5.7-2.2-1.3-5.9-2.5-8.2-2.8-4-0.5-4.3-0.7-4.3-3.5 0-2.5 0.5-3.1 2.8-3.6 1.5-0.3 4.6-1.2 7-2 2.7-0.9 5.5-2.9 7.7-5.7 2.2-2.6 3.7-5.7 4.1-8.2 0.3-2.2 0.8-4.8 1.1-5.8q0.4-1.7 3.4-1.7zm-8.1 27c5.1 5.3 6.9 6.9 7.3 6.9 0.4 0.1 2.6-1.7 5-4 2.5-2.3 3.6-4 2.7-4-0.8 0-2.8-1.4-4.5-3.2l-3-3.2z"/>
		<path id="Path 8" fill-rule="evenodd" class="s1" d="m462.8 18c2.5 0 2.8 0.4 3.4 4.7 0.5 2.7 1.9 6.5 3.3 8.6 1.6 2.3 4.4 4.6 7.7 6.2 2.9 1.4 6.4 2.5 7.8 2.5 1.4 0 3.1 0.5 3.8 1.2 0.7 0.7 1.2 2.1 1.2 3 0 1-0.7 2-1.5 2.3-0.8 0.3-2.5 0.5-3.8 0.5-1.2 0-4.6 1.2-7.6 2.7-3.2 1.7-6.4 4.2-7.8 6.3-1.3 1.9-2.6 5.6-3.1 8.3-0.6 4.3-0.9 4.7-3.5 4.7-1.7 0-2.8-0.6-3.1-1.8-0.2-0.9-0.7-3.4-1-5.5-0.4-2.5-1.9-5.1-4.9-8.1-2.6-2.8-5.7-4.8-8.2-5.5-2.2-0.5-5.2-1.3-6.8-1.6-2.1-0.4-2.7-1.1-2.7-3.3 0-2.4 0.4-2.8 4.5-3.5 2.5-0.4 6.2-1.6 8.2-2.6 2.1-1 4.5-2.7 5.4-3.7 0.9-1.1 2.3-3.3 3.1-4.9 0.9-1.6 1.8-4.7 2.2-6.8 0.6-3.2 1-3.7 3.4-3.7zm-8.3 25.2l8.3 8.3c5.6-5.8 7.2-7.7 7.2-8 0-0.3-1.5-2.1-3.3-4-1.8-1.9-3.5-3.5-3.7-3.5-0.3 0-2.3 1.7-4.5 3.6zm-389.3 397.8h3.9c2.6 0 4.1 0.5 4.4 1.5 0.3 0.8 0.5 2.9 0.5 4.5 0 1.7 0.9 5.4 2 8.3 1.1 2.9 3.6 6.9 5.7 8.9 2.1 2 5.8 4.6 8.3 5.7 2.5 1.1 6.6 2.4 14 3.6v4.3c0 4.2 0 4.2-4.2 4.7-2.4 0.3-6.8 1.7-9.8 3.1-3 1.4-6.8 3.7-8.3 5.2-1.6 1.5-3.7 4.4-4.8 6.5-1 2-2.2 6.3-2.6 9.4-0.8 5.5-0.9 5.7-4.3 6.5-1.9 0.3-3.8 0.4-4.1 0-0.4-0.4-1.2-3.6-1.8-7.2-0.6-3.6-2.3-8.4-3.6-10.7-1.4-2.4-4-5.4-5.7-6.7-1.8-1.4-5-3.2-7-4-2.1-0.9-6.3-1.9-14.8-3.1v-8l6.5-1.2c3.6-0.7 8.2-2.1 10.3-3.2 2-1 5.2-3.3 7.1-5.2 1.9-1.9 4.2-5.2 5.2-7.4 1-2.2 2.1-6.6 2.5-9.7zm-7.3 36l11.5 11.5 11-11-11.9-11z"/>
	</g>
</svg>