<svg version="1.2" xmlns="http://www.w3.org/2000/svg" viewBox="0 0 512 512" width="512" height="512">
	<title>document</title>
	<style>
		.s0 { fill: #000000; }
	</style>
	<path id="Path 0" fill-rule="evenodd" class="s0" d="m99.3 0h245.2l124.5 124.5v165.5c-0.1 128.5-0.3 165.9-1.3 167.2-0.7 0.9-2.4 2.1-3.9 2.7-1.7 0.7-11.1 1.1-45.8 1.1l0.1 45.5-5.4 5.5-364.2 0.1-5.5-5.1v-233.8c0.1-182.1 0.3-234.1 1.3-235.3 0.7-0.9 2.2-2.1 3.5-2.7 1.5-0.8 9.4-1.2 46.2-1.2l-0.3-28.7zm11.8 444h341v-307l-114.2-0.5-4.8-5.5v-114h-222zm239-325h89.5c-68.6-69-88.8-89-89-89-0.3 0-0.5 20-0.5 44.5zm-290 376h341v-34l-302.2-0.5-4.8-5.5v-404h-34zm148-418l5 5v58l-5.5 5h-56.5l-6-6v-27.5c0-19 0.3-28.2 1.1-29.8 0.7-1.2 1.9-2.8 2.8-3.4 1.1-0.9 9.3-1.3 59.1-1.3zm-46 51h34v-34h-34zm1.1 34.2c9.9 0.3 10.9 0.5 13.3 2.8 1.8 1.7 2.6 3.5 2.6 5.7 0 2.1-0.9 4.2-2.5 5.8-2.3 2.4-3 2.5-14.2 2.5-10.5 0-12.1-0.2-14.1-2-1.2-1.1-2.5-3-2.9-4.3-0.3-1.3 0.1-3.5 1.1-5.2 0.9-1.6 2.6-3.6 3.9-4.3 1.5-0.9 5.4-1.2 12.8-1zm250 0.3l2.4 2.7c1.4 1.5 2.5 4 2.5 5.5 0 1.7-1 3.9-5.3 8.3h-105.1c-92.1 0-105.4-0.2-107.4-1.5-1.2-0.8-2.7-2.7-3.2-4-0.8-1.9-0.6-3.4 0.6-6 0.9-2 2.6-4 3.8-4.5 1.2-0.5 44.1-0.8 211.7-0.5zm-249.3 50.7c9.9 0.3 10.4 0.4 12.7 3 1.4 1.6 2.5 4 2.5 5.8 0 1.8-1 3.9-2.5 5.5-2.3 2.4-3 2.5-14.5 2.5-10.7 0-12.3-0.2-14-2-1.1-1.1-2.3-3-2.6-4.3-0.3-1.2-0.1-3.5 0.5-5 0.6-1.5 2.5-3.4 4.3-4.2 2.4-1.2 6-1.5 13.6-1.3zm249.3 0.3l2.4 2.7c1.4 1.6 2.5 4 2.5 5.8 0 1.8-1 3.9-5 8h-211.5l-2.1-2.3c-1.2-1.2-2.4-3-2.8-4-0.4-0.9-0.1-3.2 0.6-4.9 0.8-1.9 2.4-3.7 4.3-4.5 2.3-1 24.1-1.2 211.6-0.8zm-251.1 51.5c11.4 0 12.1 0.1 14.5 2.5 1.5 1.5 2.5 3.6 2.5 5.5 0 1.7-1.1 4.1-2.5 5.7-2.2 2.6-3 2.8-11.7 3.2-5.3 0.2-11-0.2-13.1-0.8-2.7-0.8-4.2-2.1-5.3-4.4-0.9-1.8-1.4-4.2-1-5.5 0.3-1.2 1.5-3.1 2.6-4.2 1.7-1.8 3.3-2 14-2zm251 0l2.5 2.5c1.5 1.5 2.5 3.6 2.5 5.5 0 1.7-1.1 4.1-4.9 8.5l-103.3 0.3c-70 0.2-104.6-0.1-107.1-0.8-2.9-0.8-4.1-1.8-5.2-4.5-1.3-2.9-1.3-4-0.3-6.2 0.7-1.5 1.9-3.2 2.7-4 1.3-1 22-1.3 213.1-1.3zm-250.8 51c11.2 0 11.9 0.1 14.3 2.5 1.6 1.6 2.5 3.6 2.5 5.7 0 2.2-0.8 4.1-2.6 5.8-2.4 2.3-3.4 2.5-13.3 2.8-7.3 0.1-11.4-0.2-13.1-1.1-1.4-0.7-3.2-2.6-3.9-4.3-0.7-1.6-1.1-3.9-0.8-5.2 0.4-1.2 1.6-3.1 2.9-4.2 1.9-1.8 3.5-2 14-2zm39.1 0h211.7l2.5 2.7c1.5 1.6 2.5 3.9 2.5 5.5 0 1.5-1.1 4-4.9 8.3l-104.3 0.2c-82.4 0.2-105 0-107.3-1-1.7-0.7-3.4-2.6-4.2-4.5-0.8-1.8-1.1-4-0.7-5 0.4-0.9 1.6-2.7 2.7-4zm-39.2 51c11.1-0.1 11.4 0 14.1 2.7 1.9 1.9 2.8 3.8 2.7 5.8 0 1.7-0.6 3.7-1.2 4.6-0.7 0.9-2.3 2.1-3.5 2.8-1.3 0.6-6.7 1.1-12.8 1.1-10.3 0-10.5 0-13.5-3-1.8-1.8-2.9-4-2.9-5.6 0.1-1.4 1.4-3.8 2.9-5.5 2.8-2.8 3-2.9 14.2-2.9zm40 0h104.4c77.4 0 105 0.3 106.7 1.2 1.2 0.6 2.8 1.9 3.5 2.7 0.6 0.9 1.2 3 1.2 4.6 0 1.7-0.6 3.7-1.2 4.6-0.7 0.9-2.3 2.1-3.5 2.8-1.7 0.8-29.3 1.1-211.3 1.1l-2.7-2.4c-2.1-1.8-2.8-3.3-2.8-6.1 0-2.9 0.7-4.3 2.9-6.1z"/>
</svg>