<svg version="1.2" xmlns="http://www.w3.org/2000/svg" viewBox="0 0 368 238" width="368" height="238"><style>.a{fill:#040102}.b{opacity:.6;fill:#c0bfbf}.c{fill:#fff}</style><path class="a" d="m132 11.4c1.9 0.7 5.3 2.4 7.5 3.8 2.2 1.4 5.6 4.3 7.6 6.4 2 2.2 5.3 6.1 7.4 8.9 2.1 2.7 5 7.5 6.5 10.5 1.5 3 3.6 6.2 4.6 7.1 1.1 0.8 6.2 2.8 11.4 4.3 5.2 1.5 12 4.1 15 5.7 3 1.6 7.9 5 10.9 7.6 3 2.7 7.2 7.2 9.3 10.1 3.1 4.2 4.6 5.4 8 6.2 2.4 0.6 6.5 2.1 9.2 3.3 2.9 1.3 6.7 4.2 9.3 7.2 2.4 2.8 5.2 7.4 6.3 10.3 1.1 2.8 2.6 8.4 3.2 12.2l1.3 7c7.7 2.2 15.4 4.2 22 5.9 6.6 1.6 17.2 3.9 23.5 5 6.3 1.1 16.9 2.5 23.5 3.1 6.6 0.5 16.3 1 21.5 1 5.2 0 13.7 0.3 18.8 0.7l9.2 0.8v75c-5.8 1.1-13 1.5-19.8 1.5-6.7 0-20.4-0.7-30.4-1.5-10.1-0.9-22.6-2.2-27.8-3-5.2-0.9-15.3-2.7-22.5-4.1-7.2-1.5-18.5-4.2-25.3-6l-12.2-3.4c-13.6 12.8-20 17.8-23 19.3-4.5 2.2-6.8 2.7-13 2.7-4.2 0-9.7-0.7-12.5-1.6-4.9-1.6-5.1-1.6-10.5 0.9-3 1.4-10 3.5-15.5 4.8-8.2 1.8-11.8 2.1-20 1.6-5.5-0.3-15.8-1.7-23-3.2-7.1-1.4-17.3-4.2-22.5-6.2-5.2-1.9-12-4.9-15-6.6-3-1.7-8-5.6-11-8.6-3-3.1-6.4-7.4-7.4-9.6-1.3-2.7-2.1-7.2-2.6-14-0.5-8.2-1.1-11-3.3-15.3-1.5-2.8-3.2-7.8-3.8-11-0.7-4-0.7-7.5 0-12 1.1-6.1 1-6.3-2.5-13.5-3.4-6.7-3.7-7.8-3.5-15.2 0.1-4.4 0.3-9.3 0.4-11 0.2-2.8-0.1-3-5.8-4.6-3.3-0.9-8-2.5-10.5-3.6-2.5-1.1-6.2-3.5-8.4-5.4-2.1-1.9-5-5.7-6.4-8.4-2-4.2-2.4-6-2-11 0.3-3.3 1.5-7.9 2.7-10.3 1.1-2.3 4-5.6 6.3-7.2 2.4-1.7 6.3-3.5 8.8-4.1 3.2-0.7 6.6-0.7 11.5 0.1 3.9 0.6 14.2 2.9 23 5 8.8 2.2 21.9 5.5 29 7.5 7.1 1.9 14 3.5 15.2 3.5 1.9 0 2.2-0.4 1.8-2.3-0.3-1.2-1.5-5.6-2.5-9.7-1.1-4.1-2-9.8-2-12.5 0-3.1 0.9-6.9 2.4-10 1.3-2.8 3.9-6.4 5.7-8.2 1.9-1.7 5.4-4.1 7.9-5.2 2.5-1.1 5.8-2 7.5-2 1.7 0 4.6 0.6 6.5 1.3z"/><path class="b" d="m352 215.7c-3 0.2-7.5 0.2-10 0-2.5-0.2 0-0.3 5.5-0.3 5.5 0 7.5 0.1 4.5 0.3z"/><path class="c" d="m130 19.3c1.9 0.7 4.6 1.9 6 2.8 1.4 0.9 4.6 4 7.1 7 2.5 3 6.3 8.3 8.4 11.9 2.1 3.6 4.9 8.2 6.2 10.3 1.3 2 3.3 4.1 4.5 4.6 1.3 0.5 7.5 2.6 13.8 4.6 7.1 2.2 13.6 5 16.9 7.3 3 2 7.2 5.9 9.5 8.7 2.2 2.8 5.1 7.9 6.3 11.5 1.8 5.3 2.3 8.7 2.3 18.3v11.7c4.7 0 6.7-0.7 7.5-1.5 1.2-1.2 1.5-4.2 1.5-14 0-12.5 0-12.5 2.3-11.9 1.2 0.4 4 1.9 6.2 3.3 2.2 1.5 5 4.5 6.3 6.6 1.2 2.2 3 6.5 3.9 9.5 1.1 3.9 1.6 9 1.5 17.5-0.1 6.6-0.8 16.1-1.7 21-0.9 4.9-2.9 12.9-4.5 17.8-1.7 4.8-4.7 12.2-6.9 16.4-2.1 4.3-6.1 10.6-9 14.1-2.8 3.4-7.1 7.5-9.6 9.2-2.5 1.7-6.9 3.6-9.7 4.4-3.2 0.9-6.8 1.2-9.1 0.8-2-0.4-3.7-0.9-3.7-1.2 0-0.3 1.9-2.7 4.1-5.5 2.7-3.4 3.9-5.8 3.7-7.5-0.2-2-0.9-2.6-3.3-2.8-2.5-0.2-4.1 0.8-10 6.6-3.8 3.8-9.3 8-12 9.4-2.8 1.4-6.6 3-8.5 3.7-1.9 0.6-6.7 1.5-10.5 2-3.9 0.4-12.2 0.4-19-0.1-6.6-0.4-15.8-1.7-20.5-2.8-4.7-1.1-11.4-3-15-4.2-3.6-1.1-9.2-3.4-12.5-5.1-3.3-1.6-8-4.6-10.4-6.6-2.4-2-5.4-5.4-6.7-7.6-1.3-2.2-2.7-5.8-3.2-8-0.6-2.2-0.7-4.6-0.3-5.3 0.4-0.9 2-0.6 6.6 1.4 3.3 1.5 9.4 3.4 13.5 4.2 4.1 0.9 8.3 1.3 9.3 0.9 1.1-0.5 1.7-1.8 1.7-3.7 0-1.7-0.6-3.3-1.2-3.7-0.7-0.4-4.4-1.4-8.3-2.4-3.9-0.9-9.6-2.9-12.9-4.5-3.2-1.6-7.5-4.7-9.4-6.9-2-2.2-4.2-5.5-4.9-7.2-0.7-1.8-1.4-5.7-1.5-8.7-0.2-3-0.1-5.7 0.2-6 0.3-0.3 4.1 1.2 8.5 3.4 4.4 2.2 12.5 5.1 18 6.5 5.5 1.4 11.5 2.5 13.3 2.5 2 0 3.4-0.6 3.7-1.5 0.3-0.8 0.5-2.4 0.5-3.5 0-1.6-1.4-2.4-7.2-4.1-4-1.1-10.2-3-13.8-4.1-3.6-1.2-8.7-3.2-11.5-4.6-2.7-1.3-6.6-3.7-8.5-5.2-1.9-1.5-4.8-5.2-6.4-8.1-2.2-4.2-2.8-6.7-2.8-10.9 0-3 0.6-6.7 1.1-8.3 0.6-1.5 1.4-2.7 1.9-2.7 0.4 0 11.8 2.9 25.5 6.5 13.6 3.6 25.8 6.5 27.2 6.5 1.5 0 2.9-0.8 3.5-2 0.6-1.1 0.8-2.7 0.5-3.5-0.3-0.9-4-2.5-8.7-3.9-4.6-1.4-18.2-5-30.3-8.1-12.1-3.1-26.9-7.2-33-9.1-6.1-1.9-12.5-4.6-14.2-6-1.8-1.3-4-3.9-4.9-5.7q-1.7-3.2-1.3-8.4c0.3-4.4 1-5.8 3.9-8.8 2.4-2.4 4.9-3.7 8-4.3 3.4-0.7 7.2-0.3 15.5 1.3 6.1 1.2 23.4 5.5 38.5 9.4 15.1 4 28.2 7.4 29 7.6 0.8 0.2 5.6 5.5 10.5 11.6 4.9 6.1 11 12.9 13.5 15.1 2.5 2.1 5.2 3.9 6 3.9 0.8-0.1 2.1-0.6 2.8-1.3 0.7-0.7 1.2-2.1 1.2-3 0-1-3.9-6-8.6-11-4.7-5.1-10.5-12.2-12.9-15.8-2.4-3.6-5.8-9.4-7.6-13-1.8-3.6-3.8-8.7-4.5-11.5-0.8-2.7-1.4-6.9-1.4-9.2 0-2.4 0.8-6 1.9-8 1-2.1 3.2-5 5-6.5 1.7-1.6 3.7-2.8 4.4-2.8 0.6 0 2.1-0.2 3.2-0.5 1.1-0.3 3.6 0.1 5.5 0.8z"/></svg>