<svg version="1.2" xmlns="http://www.w3.org/2000/svg" viewBox="0 0 512 512" width="512" height="512">
	<title>info</title>
	<style>
		.s0 { fill: #654321 } 
	</style>
	<path id="Path 0" fill-rule="evenodd" class="s0" d="m256 0.2c11.5-0.2 20.9 0.4 31 1.7 8 1.1 19 2.9 24.5 4.1 5.5 1.2 15.6 4 22.5 6.2 6.9 2.2 17.7 6.3 24 9 6.3 2.7 16 7.4 21.5 10.5 5.5 3.1 13.8 8.1 18.5 11.3 4.7 3.1 13 9.3 18.5 13.7 5.5 4.4 14.7 12.6 20.4 18.4 5.7 5.7 14 14.9 18.4 20.4 4.4 5.5 11.3 15 15.3 21 4 6 10 16.4 13.3 23 3.4 6.6 7.9 16.5 10 22 2.2 5.5 5.6 15.4 7.6 22 2 6.6 4.7 17.8 6 25 1.3 7.2 2.8 17.9 3.4 24 0.6 6.1 1.1 17.5 1.1 25.5 0 8-0.7 19.9-1.5 26.5-0.9 6.6-2.7 17.5-4 24.3-1.4 6.7-4.7 18.8-7.4 27-2.7 8.1-6.7 18.8-8.9 23.7-2.3 4.9-6.7 13.7-9.8 19.5-3.1 5.8-8.3 14.3-11.4 19-3.1 4.7-9.3 13-13.7 18.5-4.4 5.5-12.7 14.7-18.4 20.4-5.7 5.8-14.9 14-20.4 18.4-5.5 4.4-13.8 10.6-18.5 13.7-4.7 3.2-13.2 8.3-19 11.5-5.8 3.2-15.4 8-21.5 10.6-6.1 2.5-16.9 6.5-24 8.8-7.1 2.3-18.2 5.2-24.5 6.6-6.3 1.3-17.8 3.1-25.5 4-10.8 1.4-18.5 1.6-33.5 1.2-10.7-0.3-24.2-1.3-30-2.2-5.8-0.9-14.8-2.5-20-3.7-5.2-1.1-16-4.1-24-6.8-8-2.6-18.3-6.5-23-8.6-4.7-2.1-13.4-6.5-19.5-9.8-6.1-3.2-15.3-8.8-20.5-12.3-5.2-3.6-13.5-9.8-18.5-13.8-5-4-13.7-11.9-19.4-17.6-5.7-5.7-14-14.9-18.4-20.4-4.4-5.5-10.6-13.8-13.7-18.5-3.2-4.7-8-12.7-10.9-17.7-2.8-5.1-7.2-13.9-9.7-19.5-2.6-5.7-6.8-16.9-9.5-25-2.7-8.2-6-20.3-7.4-27-1.3-6.8-3.1-17.7-4-24.3-0.8-6.6-1.5-18.5-1.5-26.5 0-8 0.5-19.4 1.1-25.5 0.6-6.1 2.1-16.8 3.4-24 1.3-7.1 4-18.4 6-25 2-6.6 5.4-16.5 7.6-22 2.1-5.5 6.6-15.4 10-22 3.3-6.6 9.3-16.9 13.3-23 4-6 10.9-15.5 15.3-21 4.4-5.5 12.3-14.2 17.4-19.4 5.2-5.2 13.2-12.6 17.9-16.5 4.7-3.9 12.8-10.1 18-13.7 5.2-3.7 14.2-9.4 20-12.7 5.8-3.3 15.2-8.1 21-10.7 5.8-2.6 17.1-6.9 25.3-9.6 8.1-2.7 20.2-6 26.9-7.4 6.8-1.3 16.1-2.9 20.8-3.4 4.7-0.6 10.1-1.2 12-1.4 1.9-0.2 10.9-0.5 20-0.5zm-17.5 139.5c-2.2 1.6-5.3 5.1-7 7.8-2.4 3.9-3 5.9-2.9 10.4 0 3.5 0.9 7.1 2.1 9.6 1.1 2.2 3.7 5.5 5.7 7.3 2 1.7 5.1 3.9 6.8 4.9 1.8 0.9 6.5 1.8 10.3 2.1 4.9 0.3 8.5 0 12-1.1 2.7-0.9 6.8-3.2 9-5 2.2-1.8 5-5.3 6.2-7.8 1.5-2.8 2.3-6.2 2.3-9.4 0-2.7-0.9-6.8-1.9-9-1-2.2-3.8-5.8-6.2-7.9-2.4-2.2-5.9-4.6-7.7-5.3-1.7-0.7-5.8-1.5-9-1.8-3.4-0.3-7.7 0.1-10.7 0.9-2.8 0.8-6.8 2.8-9 4.3zm0 77.6c-2.1 1.2-5 3.8-6.3 5.7l-2.3 3.5 0.6 135.4c5.4 5.5 9.2 8.1 12 9.3 3.8 1.7 7 2.2 13.5 2.3 7.6 0 9.3-0.3 15.3-3.2 4.5-2.3 7.3-4.3 8.7-6.5 1.9-3.2 1.9-5.4 2-71v-67.8c-5.1-5.6-8.6-7.9-11.5-8.9-2.8-1-7.7-2.1-11-2.4-3.3-0.2-8.5-0.1-11.5 0.5-3 0.5-7.3 1.9-9.5 3.1z"/>
</svg>