<svg version="1.2" xmlns="http://www.w3.org/2000/svg" viewBox="0 0 512 512" width="512" height="512">
	<title>microphone (2)</title>
	<style>
		.s0 { fill: #000000; }
	</style>
	<path id="Path 0" fill-rule="evenodd" class="s0" d="m255 0.1c8.6-0.1 13.6 0.4 20 1.9 4.7 1.2 11 3 14 4.1 3 1.1 8.4 3.6 12 5.6 3.6 1.9 8.3 4.9 10.5 6.6 2.2 1.7 6.4 5.3 9.3 8.1 3 2.8 7.3 7.6 9.7 10.6 2.3 3 5.9 8.4 7.8 12 2 3.6 4.8 9.8 6.2 13.8 1.4 3.9 3.2 11.1 4 16 1.3 7.5 1.5 22.4 1.3 105.7-0.3 95.2-0.4 97.1-2.4 104.5-1.2 4.1-3.6 10.9-5.4 15-1.8 4.1-4.8 9.7-6.5 12.5-1.8 2.7-5.7 7.9-8.7 11.5-3 3.6-9.2 9.4-13.9 12.9-4.6 3.5-11.4 7.9-15.2 9.7-3.7 1.9-10.6 4.5-15.5 5.9-4.8 1.4-12.8 2.9-17.7 3.3-4.9 0.4-12.8 0.4-17.5 0-4.7-0.4-12.4-1.9-17.3-3.3-4.8-1.4-11.7-4-15.5-5.9-3.7-1.8-10.5-6.2-15.1-9.7-4.7-3.5-10.9-9.3-13.9-12.9-3-3.6-6.9-8.8-8.7-11.5-1.7-2.8-4.7-8.4-6.5-12.5-1.8-4.1-4.2-10.9-5.4-15-2-7.4-2.1-9.3-2.4-104.5-0.2-83.3 0-98.2 1.3-105.8 0.8-4.8 2.6-12 4-16 1.4-3.9 4.2-10.1 6.2-13.7 1.9-3.6 4.9-8.3 6.6-10.5 1.7-2.2 5.3-6.4 8.1-9.3 2.8-3 7.6-7.3 10.6-9.7 3-2.3 8.4-5.9 12-7.8 3.6-2 8.5-4.4 11-5.3 2.5-0.9 8.3-2.7 13-3.9 6.2-1.6 11.6-2.3 20-2.4zm-21 23.4c-3 1-8.4 3.3-12 5.1-3.6 1.8-9.2 5.5-12.5 8.2-3.3 2.6-8.1 7.5-10.8 10.7-2.6 3.3-6.3 8.9-8.1 12.5-1.9 3.6-4.4 9.7-5.7 13.5-2.3 6.9-2.3 7.9-2.6 55.3l-0.3 48.2h148c-0.6-95.6-0.6-96.6-2.9-103.5-1.3-3.8-3.8-9.9-5.7-13.5-1.8-3.6-5.5-9.2-8.1-12.5-2.7-3.2-7.5-8.1-10.8-10.7-3.3-2.7-8.9-6.4-12.5-8.2-3.6-1.9-9.6-4.4-13.5-5.6-4.7-1.4-10.5-2.3-17.5-2.5-5.8-0.2-12.5 0-15 0.4-2.5 0.5-7 1.6-10 2.6zm-51.7 214.8c0.3 35.6 0.6 42 2.1 47.2 1 3.3 3.2 9.1 5.1 13 1.8 3.8 5.6 9.9 8.5 13.5 2.8 3.6 7.7 8.6 10.8 11.3 3.1 2.6 9.1 6.5 13.2 8.7 4.1 2.1 11.1 4.8 15.5 6 5.7 1.5 11.1 2.1 18.5 2.1 7.4 0 12.8-0.6 18.5-2.1 4.4-1.2 11.4-3.9 15.5-6 4.1-2.2 10.1-6.1 13.2-8.7 3.1-2.7 8-7.7 10.8-11.3 2.9-3.6 6.7-9.7 8.5-13.5 1.9-3.9 4.1-9.7 5.1-13 1.5-5.2 1.8-11.5 2.1-47.3l0.3-41.2h-148.1zm-171.5-184.2c1.2 0 3.7 1.3 8.7 5.8l0.3 85.3c0.2 47 0 86.4-0.3 87.6-0.2 1.2-1.7 3.4-3.2 4.8-2 1.8-3.9 2.5-6.5 2.5-2.8 0-4.5-0.8-9.8-6.1v-86.2c-0.1-85.8 0-86.3 2-89.1 1.2-1.5 3.1-3.2 4.3-3.7 1.2-0.4 3.2-0.9 4.5-0.9zm492 0c1.3 0 3.7 1.4 9.2 6.9v85.5c0 61-0.3 86.2-1.1 87.8-0.6 1.2-2.1 3-3.2 4-1.2 0.9-3.8 1.7-5.7 1.7-1.9 0-4.4-0.8-5.6-1.7-1.2-1-2.7-2.8-3.3-4-0.8-1.6-1.1-26.8-1.1-87.5-0.1-84.8 0-85.3 2-88.1 1.2-1.5 3.1-3.2 4.3-3.7 1.2-0.4 3.2-0.9 4.5-0.9zm-375 203c1.8 0 4.1 0.4 5.2 0.9 1.1 0.6 2.7 2.4 3.5 4 0.8 1.7 1.5 5.2 1.5 7.8 0 2.6 0.7 9.2 1.6 14.7 0.8 5.5 2.8 14 4.4 18.8 1.7 4.8 4.4 11.6 6.1 15 1.7 3.4 5.5 9.8 8.4 14.2 2.9 4.4 8.6 11.4 12.6 15.6 4.1 4.1 10.1 9.6 13.4 12.1 3.3 2.5 9.2 6.4 13 8.7 3.9 2.3 10.6 5.6 15 7.3 4.4 1.7 11.8 3.9 16.5 5 4.7 1.1 12.6 2.3 17.5 2.7 5 0.4 13.3 0.4 18.5 0 5.2-0.4 13.3-1.6 18-2.7 4.7-1.1 12.1-3.3 16.5-5 4.4-1.7 11.2-5 15-7.3 3.9-2.3 9.7-6.2 13-8.7 3.3-2.5 9.3-8 13.4-12.1 4-4.2 9.7-11.2 12.6-15.6 2.9-4.4 6.7-10.8 8.4-14.2 1.7-3.4 4.5-10.2 6.1-15 1.6-4.8 3.6-13.3 4.5-18.8 0.8-5.5 1.5-12.1 1.5-14.7 0-2.6 0.7-6.1 1.5-7.8 0.8-1.6 2.4-3.4 3.5-4 1.1-0.5 3.4-1 5-1 1.7 0 3.9 0.5 5 1 1.1 0.6 2.7 2.4 3.5 4 0.8 1.7 1.5 5.5 1.5 8.5 0 3.1-0.6 9.9-1.4 15.3-0.8 5.4-2.7 13.8-4.1 18.7-1.5 5-3.9 12.2-5.5 16-1.6 3.9-5.2 10.9-8 15.5-2.8 4.7-6.8 10.8-8.9 13.5-2.1 2.8-6.4 7.9-9.7 11.4-3.2 3.6-9 9-12.9 12.2-3.8 3.1-9.7 7.4-13 9.5-3.3 2.1-9.6 5.6-14 7.8-4.4 2.2-13.2 5.7-31 11.4v49.7l5.5 0.8c3 0.5 7.8 1.5 10.5 2.3 2.8 0.7 7.7 3.1 11 5.3 3.3 2.1 8.1 6 10.6 8.7 2.5 2.7 5.7 7.2 7.1 9.9 1.4 2.8 3.3 7.5 4.2 10.5 0.9 3.1 1.6 8.1 1.6 11.3 0 5.1-0.3 6.1-6.1 11.7h-147.9l-3-3c-2.6-2.6-3-3.7-3-8.7 0-3.2 0.7-8.2 1.6-11.3 0.9-3 2.8-7.7 4.2-10.5 1.4-2.7 4.6-7.2 7.1-9.9 2.6-2.7 7.3-6.6 10.6-8.7 3.3-2.2 8.3-4.6 11-5.3 2.8-0.8 7.5-1.8 16-3.1v-49.7l-11.5-3.7c-6.3-2-15.1-5.5-19.5-7.7-4.4-2.2-10.7-5.7-14-7.8-3.3-2.1-9.1-6.4-13-9.5-3.8-3.2-9.6-8.6-12.9-12.2-3.3-3.5-7.6-8.6-9.7-11.4-2.1-2.7-6.1-8.8-8.9-13.5-2.8-4.6-6.3-11.6-7.9-15.5-1.6-3.8-4.1-11-5.5-16-1.5-4.9-3.3-13.3-4.1-18.7-0.8-5.4-1.5-12.2-1.5-15.3 0-3.2 0.7-6.7 1.7-8.4 0.9-1.6 2.3-3.4 3.2-4 0.9-0.5 3.1-1 4.9-1zm119.2 194.9h18l-0.2-47.7h-18zm-35.6 23.7c-2.1 1.2-5.3 3.6-7 5.5-1.7 1.8-3.9 4.4-4.8 5.8-0.9 1.4-1.6 3.1-1.6 3.7 0 1 12.2 1.3 58 1.3 45.7 0 58-0.3 58-1.3 0-0.6-0.8-2.3-1.7-3.7-0.9-1.4-3-4-4.7-5.9-1.7-1.8-5.4-4.5-8.1-6l-5-2.6c-57.4-0.3-75.2 0-76.6 0.4-1.3 0.4-4.3 1.7-6.5 2.8zm-119.4-391.9c1.4 0.2 3.6 1.5 7.5 5.2l0.2 70.3c0.3 55 0 70.8-1 73.1-0.6 1.6-2.1 3.5-3.2 4.2-1.1 0.8-3.6 1.4-5.5 1.4-1.9 0-4.4-0.6-5.5-1.4-1.1-0.7-2.6-2.6-3.3-4.2-1-2.3-1.2-18.1-0.7-143.3l2.3-2.5c1.2-1.4 3.3-2.7 4.5-2.9 1.2-0.2 3.3-0.2 4.7 0.1zm332 0c1.4 0.2 3.6 1.5 7.5 5.2l0.5 100-3.4 3.5c-2.5 2.5-4.3 3.5-6.5 3.5-2.2 0-4.1-1-10.1-7l0.5-99.9 2.3-2.5c1.2-1.4 3.3-2.7 4.5-2.9 1.2-0.2 3.3-0.2 4.7 0.1zm-374 10.2c2.8 0 4.8 0.7 9.5 4.8l0.5 105.2-3.4 3.5c-2.5 2.5-4.3 3.5-6.5 3.5-2.2 0-4.1-1-10.1-7l0.5-105.2 2.8-2.4c1.9-1.7 4-2.4 6.7-2.4zm412 0c2.8 0 4.8 0.7 9.5 4.8l0.5 105.2-3.4 3.5c-2.5 2.5-4.3 3.5-6.5 3.5-2.2 0-4.1-1-10.1-7l0.5-105.2 2.8-2.4c1.9-1.7 4-2.4 6.7-2.4zm-332 25c2.8 0 4.8 0.7 9.5 4.8l0.5 55.2-3.4 3.5c-2.5 2.5-4.3 3.5-6.5 3.5-2.2 0-4.1-1-10.1-7l0.5-55.2 2.8-2.4c1.9-1.7 4-2.4 6.7-2.4zm252 0c2.8 0 4.8 0.7 9.5 4.8l0.5 55.2-3.4 3.5c-2.5 2.5-4.3 3.5-6.5 3.5-2.2 0-4.1-1-10.1-7l0.5-55.2 2.8-2.4c1.9-1.7 4-2.4 6.7-2.4zm39.9 100c3 0 4.7 0.6 6.6 2.5 1.4 1.4 2.7 3.7 3.1 5.2 0.3 1.6 0 4.1-0.8 5.7-0.7 1.6-2.2 3.5-3.3 4.2-1.1 0.8-3.6 1.4-5.5 1.4-1.9 0-4.4-0.6-5.5-1.4-1.1-0.7-2.6-2.6-3.4-4.2-0.7-1.6-1-4.1-0.7-5.7 0.3-1.5 1.7-3.8 3-5.2 1.9-1.9 3.5-2.5 6.5-2.5zm-166.2-145c17.4 0 27 0.4 28.5 1.1 1.3 0.6 3.1 2.1 4 3.3 1 1.1 1.7 3.7 1.7 5.6 0 1.9-0.7 4.4-1.7 5.6-0.9 1.2-2.7 2.7-4 3.3-1.5 0.7-11.1 1.1-28.2 1.1-17.2 0-26.8-0.4-28.3-1.1-1.2-0.6-3-2.1-3.9-3.3-1-1.2-1.8-3.7-1.8-5.6 0-1.9 0.8-4.5 1.8-5.6 0.9-1.2 2.6-2.6 3.7-3.3 1.3-0.7 11.1-1.1 28.2-1.1zm-0.7 37.1c12.9-0.1 25 0.2 26.9 0.6 1.8 0.4 4.5 1.9 5.8 3.3 1.6 1.7 2.3 3.6 2.3 6.2 0 2.8-0.8 4.6-5.9 9.8h-56.1l-3-3c-2.3-2.3-3-4-3.1-6.8 0-2.6 0.7-4.5 2.5-6.4 1.4-1.5 3.5-2.9 4.8-3.1 1.2-0.2 12.9-0.5 25.8-0.6zm44.5 111.4c1.6 0.3 4.1 1.7 5.5 3 1.8 1.9 2.5 3.6 2.5 6.5 0 3-0.7 4.6-2.8 6.7-2.1 2.1-3.7 2.7-6.8 2.8-3.4 0-4.6-0.6-7-3.3-1.7-1.8-2.9-4.4-3-6 0-1.5 0.9-4 2.1-5.5 1.1-1.6 3.1-3.3 4.3-3.8 1.2-0.5 3.5-0.6 5.2-0.4zm-1.3 34.5c2.7 0 4.5 0.7 6.3 2.5 1.4 1.4 2.8 3.7 3.1 5.2 0.4 1.6 0.2 5.9-0.4 9.8-0.7 3.8-2.7 10.1-4.5 14-1.9 3.8-5.6 9.4-8.3 12.4-2.7 3-7.6 7.2-10.9 9.3-3.3 2.1-8.9 4.8-12.5 5.9-3.6 1-9.3 1.9-12.8 1.9-5.3 0-6.6-0.4-8.7-2.5-1.4-1.4-2.8-3.7-3.1-5.3-0.3-1.5 0-4 0.7-5.6 0.8-1.6 2.3-3.5 3.4-4.2 1.1-0.8 4.9-1.7 8.5-2.2 3.6-0.6 8.7-2.1 11.5-3.5 2.7-1.3 6.8-4.4 8.9-6.8 2.2-2.4 4.7-6.2 5.7-8.4 1-2.2 2.1-6.5 2.4-9.5 0.4-3 1.4-6.7 2.3-8.2 0.8-1.5 2.2-3.2 3.1-3.7 0.9-0.6 3.3-1.1 5.3-1.1z"/>
</svg>