<svg version="1.2" xmlns="http://www.w3.org/2000/svg" viewBox="0 0 478 397" width="478" height="397">
	<title>39aec38362c7dbd93096413e35261cf3</title>
	<style>
		.s0 { opacity: 1;fill: #030303 } 
	</style>
	<path id="Path 0" fill-rule="evenodd" class="s0" d="m186.5 10.4c9 0.2 13.5 0.8 18.3 2.4 3.4 1.2 9 3.9 12.4 5.9 3.5 2 9 6.4 12.3 9.8 3.3 3.3 7.5 8.5 9.2 11.5 1.7 3 4.4 9.1 5.9 13.5 2.7 7.8 2.8 8.5 2.6 28.8-0.1 13 0.2 20.9 0.8 21.2 0.6 0.3 4.7 1 9.2 1.5 4.6 0.6 10.3 1.5 12.8 2.1 3.9 0.9 5 0.8 8.5-1 2.4-1.3 5.9-2.1 8.7-2.1 2.7 0 6.3 0.6 8 1.3 1.8 0.8 4.8 3 6.5 5 1.9 2.1 3.6 5.3 3.9 7.4 0.4 2.1 0.4 5.4 0.1 7.3-0.4 1.9-0.8 4.2-0.9 5.1-0.2 0.9 9.9 12.1 48.7 52.1l17 25.7c10.6 16.1 18 28.4 19.7 32.7 1.4 3.8 2.9 8.9 3.2 11.4 0.6 3.8 2.3 6.5 10.7 17 5.6 6.9 12.6 15.6 15.7 19.5 3 3.9 7.5 9.1 9.9 11.7 3.6 4.1 4.3 5.4 4.3 9 0 2.7-1 6.4-2.7 9.8-1.6 3.2-5.7 8.4-9.8 12.4-3.8 3.7-9.9 8.7-13.5 11.1-3.6 2.3-8.9 5.4-11.8 6.9-2.8 1.4-8.7 3.8-13 5.2-6 2-9.2 2.5-14.4 2.2-5.9-0.3-7-0.6-8.6-2.8-1-1.4-6.8-9.7-12.7-18.5-6-8.8-12.7-18.7-14.8-22-2.2-3.3-4.9-7-6.1-8.3-1.1-1.2-3.5-2.5-5.1-2.9-1.6-0.3-6.1-2.1-10-3.9-3.9-1.8-10.6-5.8-15-9-4.4-3.1-10.4-8-13.4-10.8-3-2.8-8.1-8.5-11.4-12.6-3.5-4.4-9.1-9.7-20.7-18l-6.3 3.9c-3.4 2.1-8.2 5-10.7 6.4-2.5 1.4-8.3 3.9-13 5.5-4.7 1.6-11.3 3.6-21 5.7v64l9.7 0.7c5.4 0.4 14.7 1.7 20.8 2.8 6.1 1 14.4 3.1 18.5 4.5 4.1 1.4 8.9 3.4 10.5 4.4 1.6 1 4.2 3.3 5.7 5 2 2.2 2.8 4.2 2.8 6.8 0.1 2.7-0.8 4.9-2.7 7.4-1.5 2-5.4 5.1-8.6 6.8-3.1 1.7-5.8 2.9-6 2.6-0.1-0.3-2.2 0.2-4.7 1.1-2.5 0.8-10.8 2.6-18.5 3.9-8.1 1.3-21 2.6-30.5 3-10.3 0.4-22.5 0.2-32.5-0.5-8.8-0.7-17.1-1.4-18.5-1.6-1.4-0.2-5.9-1-10-1.8-4.1-0.8-10-2.2-13-3.1-3-1-7-2.5-8.9-3.4-1.8-0.9-5.3-3.3-7.7-5.4-3.9-3.3-4.4-4.2-4.4-8 0-2.3 0.6-5.3 1.3-6.6 0.6-1.4 3.2-3.7 5.7-5.2 2.5-1.5 8.5-4.1 13.5-5.8 4.9-1.6 15.3-3.9 23-5 7.7-1.2 16.4-2.1 24.5-2.1v-65l-4.8-0.6c-2.6-0.3-8.8-2-13.7-3.6-4.9-1.7-11.3-4.2-14-5.6-2.8-1.3-8.1-4.6-12-7.1-3.8-2.5-10.1-7.5-13.9-11.1-3.7-3.6-9.4-9.9-12.4-14-3.1-4.1-7.8-11.8-10.4-17-2.6-5.2-5.9-13.8-7.4-19-2.4-8.6-2.7-11.5-3.4-50l-3.8-1.6c-2-0.8-4.5-2.3-5.6-3.2-1-0.9-2.7-3.4-3.7-5.5-1.1-2.1-1.9-5.8-1.9-8.7 0-2.8 0.6-6.2 1.4-7.8 0.7-1.5 3-4.2 5-6 2.1-1.8 5.2-3.5 7.3-3.8 2.1-0.4 5.6-0.5 7.8-0.2 2.4 0.2 5.6 1.6 7.9 3.3 2.3 1.7 4.8 4.8 7.6 11.5h11c8.9 0 11.1-0.3 11.5-1.5 0.3-0.8 0.5-13.5 0.5-28.3 0-15.5 0.4-28.4 1.1-30.7 0.5-2.2 1.8-6 2.6-8.5 0.9-2.5 3-7 4.7-10 1.7-3 6-8.4 9.6-12 4.1-4.1 9.3-8 14-10.4 4.1-2.2 10.2-4.7 13.5-5.7 4.7-1.5 8.6-1.8 18-1.5zm-25 13.6c-5 2.4-10 5.8-13.4 9.2-3 2.9-6.9 7.5-8.7 10.3-1.7 2.7-4.2 7.9-5.5 11.5-2.4 6.4-2.4 7.3-2.7 46.7l-0.2 40.3h108c0-55-0.4-74.3-1-78.3-0.7-4.9-2.3-9.8-4.9-15.2-2.7-5.3-5.9-10-9.8-13.8-3.2-3.3-7.8-7.1-10.3-8.5-2.5-1.5-7.3-3.7-10.7-4.9-3.9-1.4-9.5-2.5-14.5-2.8-4.6-0.2-10.5 0-13.3 0.6-2.7 0.6-8.6 2.8-13 4.9zm-87.8 91.6c-0.8 1.1-1.7 2.9-2.1 4.1-0.3 1.3-0.1 3.9 0.4 5.8 0.5 1.9 2 4.2 3.2 5 1.3 0.8 4 1.5 6.1 1.5 3 0 4.5-0.7 6.8-3 2.1-2.2 2.9-4 2.9-6.5 0-1.9-0.5-4.4-1-5.5-0.5-1.1-2.3-2.7-4-3.5-1.7-0.8-3.8-1.5-4.8-1.4-0.9 0-2.7 0.4-3.9 0.8-1.2 0.5-2.8 1.7-3.6 2.7zm205.3 1.4c-0.6 1.1-1 3.8-1 6 0 3.2 0.6 4.5 3 6.5q3 2.5 6.7 2.5c2.8 0 4.5-0.7 6.5-2.7 1.5-1.6 3-4.1 3.3-5.8 0.4-2.1-0.1-4-1.5-6.3-1.1-1.7-3.1-3.7-4.5-4.2-1.4-0.6-3.3-1-4.3-1-0.9 0.1-2.9 0.7-4.5 1.5-1.5 0.8-3.2 2.4-3.7 3.5zm-31.3 1.5c19.4 0.5 21.4 0.2 21.8-1 0.3-1-0.5-1.8-2.8-2.5-1.7-0.5-6.9-1.2-11.3-1.6l-8.2-0.7zm-151.2 14.7c-1.4 1.9-4.4 4.4-6.6 5.5l-3.9 1.8c0.1 19.4 0.7 29.8 1.5 35.5 0.8 5.8 2.6 13.9 4 18 1.5 4.2 4.2 10.7 6.1 14.5 2 3.9 5.5 9.5 7.8 12.5 2.3 2.9 6 7.4 8.2 10 2.3 2.5 7.5 7 11.5 10.1 4.1 3 9.5 6.7 11.9 8.1 2.5 1.4 7.5 3.7 11 5.1 3.6 1.4 9.7 3.4 13.5 4.4 5.5 1.4 10.7 1.8 23.5 1.8 12.7 0 18.3-0.4 24-1.8 4.2-1 12.5-4.3 18.5-7.2 6.1-3 12.1-6.2 13.3-7.2l2.3-1.8-31.6-22.8c-9.3 3.3-15.2 4.8-19.2 5.3-4.9 0.7-9.6 0.7-14.5 0-4-0.5-9.5-1.7-12.3-2.6-2.7-0.9-7.7-3-11-4.7-3.5-1.9-9.1-6.3-13.5-10.7-5.9-5.8-8.4-9.3-11.6-16-2.3-4.6-4.7-10.7-5.4-13.5-1-3.5-1.4-11.8-1.4-27.5l-0.1-22.5c-20.7-0.5-23.4-0.2-23.4 0.8-0.1 0.7-1.2 2.9-2.6 4.9zm150.8-2.2c0.2 0.9 3.3 2.3 7.3 3.3 3.8 1 8.5 2.6 10.4 3.5 2.5 1.2 5.7 4.8 10.8 12.2l7.3 10.5c0-11.2-0.1-15.1-0.1-16 0-0.8 0.1-2 0.1-2.7 0-0.7-1.7-2-3.8-2.9-2.1-1-5-3.4-6.5-5.5-1.5-2.1-2.7-4.4-2.7-5.1-0.1-0.9-2.9-1.3-11.1-1.3-7.8 0-11.2 0.4-11.6 1.3-0.3 0.7-0.4 1.9-0.1 2.7zm44.7 9.5v33.5c9.5 14.4 12.9 21 13.7 24 0.9 3.1 1.3 7.1 0.9 9-0.3 2-1.6 5.1-2.8 7-1.3 2-4.1 4.6-6.3 5.8-3.3 2-5 2.3-10.5 1.9-5.9-0.4-8.6-1.6-31.5-13.1-13.7-7-26.8-13-29-13.3-2.8-0.4-4.8-0.1-6.7 1.1-1.5 0.9-3.4 3.2-4.3 5.1-1.2 3-1.3 4-0.1 6.8 0.8 1.8 2.8 4.6 4.6 6.2 1.8 1.7 10.3 8.1 18.9 14.3 8.6 6.2 19.7 14.1 24.6 17.7 6.4 4.5 11 8.8 15.5 14.6 3.6 4.5 9 10.5 12 13.2 3.1 2.8 9.1 7.4 13.5 10.3 4.4 2.8 11 6.3 14.5 7.7 3.6 1.4 8.6 3.1 11 3.6 2.5 0.5 7.9 1.4 11.9 1.8 4 0.5 7.8 1.3 8.3 1.8 0.5 0.6 0.8 2.2 0.6 3.5-0.2 2.4-0.7 2.5-6.5 2.8l-6.3 0.2c15.9 23.3 20.8 30.1 21 30 0.3 0 1.7-1.6 3-3.6 1.4-2 5.7-6.6 9.5-10.3 3.9-3.6 11.1-9 16-12 5-3 12.5-6.7 16.8-8.3 4.3-1.5 8.6-2.8 9.7-2.8 1.1 0 2-0.2 2-0.5 0-0.2-2.8-4.2-6.4-8.7-3.5-4.6-10.3-13-15-18.8-4.7-5.7-8.5-11.1-8.5-12 0-0.8-0.7-4.2-1.6-7.5-0.8-3.3-2.8-8.7-4.4-12-1.5-3.3-9.7-16.4-18.2-29.1l-15.4-23.1c-37.2-38.2-48.2-49.3-48.5-49.2-0.2 0.1-1.7 0.7-3.2 1.3zm-45 14.5c8.1 3.6 12.8 6.1 15.5 8 2.8 1.8 7.4 5.3 10.3 7.7 2.8 2.3 5.2 5.1 5.2 6 0 1-0.5 2.4-1.2 3-0.6 0.7-2 1.3-3 1.3-1 0-5.7-3-10.5-6.7-4.9-3.6-10.2-7.3-12-8.2-1.8-0.9-3.4-1.4-3.6-1.1-0.2 0.3-0.7 3.2-1 6.5l-0.6 6c7.2 4.6 9.7 6.8 10.3 7.7 0.8 1.3 0.8 2.3 0 3.5-0.6 1-2.2 1.9-3.5 2.1-1.3 0.2-2.8-0.2-3.4-0.8-0.5-0.6-2.1-1-3.5-1-1.4 0-3.2 0.4-4 0.9-0.8 0.6-1.3 1.2-1 1.4 0.3 0.3 7.4 3.9 15.8 8.1 8.3 4.2 15.4 7.6 15.7 7.6 0.3 0 1.4-1.7 2.4-3.8 1-2 3-7.5 4.4-12.2 1.4-4.7 2.7-10.1 3-12 0.5-3.2-0.5-5-9.7-18.5-9.1-13.3-10.7-15.2-14.2-16.3-2.1-0.7-5.5-1.6-7.5-1.9l-3.6-0.6zm37.6 47.5c-2 5-3.3 9.3-3 9.5 0.3 0.3 2.9 0.7 5.8 1 4.6 0.3 5.4 0.1 8-2.5 2.4-2.6 2.8-3.6 2.4-7.5-0.2-2.8-1.6-6.6-3.8-10.2-1.9-3.2-3.8-5.8-4.1-5.8-0.4 0-1 1.5-1.3 3.3-0.3 1.8-2.1 7.3-4 12.2zm104 117c-4.9 3.3-11.5 8.8-14.7 12.3-3.3 3.4-6.6 7.7-7.5 9.5-0.9 1.8-1.4 3.9-1.2 4.7 0.3 0.9 1.6 1.8 2.9 2.1 1.3 0.3 5.1 0 8.4-0.6 3.3-0.7 9.2-2.7 13-4.4 3.9-1.8 9.9-5.2 13.5-7.6 3.6-2.4 9.5-7.4 13.2-11.2 3.6-3.7 7.4-8.6 8.3-10.8 0.9-2.2 1.4-4.5 1.1-5.2-0.4-0.8-2.6-1.3-5.8-1.2-3.5 0-8.2 1.1-13.8 3.2-4.7 1.8-12.5 5.9-17.4 9.2zm-248.6 26c-4.7 0.9-12 2.8-16.4 4.3-4.3 1.5-9.2 3.9-11 5.4l-3.1 2.6c3.1 3.4 6.3 5.4 9 6.7 2.8 1.2 8.8 3.2 13.5 4.4 4.7 1.2 14.6 2.8 22 3.6 7.4 0.8 21.6 1.5 31.5 1.5 9.9 0 23.9-0.7 31-1.5 7.2-0.9 15-2 17.5-2.5 2.5-0.6 7.4-2 11-3.2 3.6-1.1 8.2-3.1 10.3-4.4 2-1.3 3.9-2.8 4.2-3.4 0.3-0.5 0-1.7-0.7-2.6-0.7-0.9-3.4-2.7-6-4-2.6-1.3-8-3.3-12-4.3-4-1.1-11.6-2.7-16.8-3.5-5.2-0.7-12.7-1.7-16.7-2l-7.3-0.6v15h-30v-15c-4.2 0.2-9.1 0.7-13.5 1.1-4.4 0.5-11.8 1.6-16.5 2.4z"/>
</svg>