<svg version="1.2" xmlns="http://www.w3.org/2000/svg" viewBox="0 0 512 512" width="512" height="512">
	<title>speak</title>
	<style>
		.s0 { fill: #000000 } 
	</style>
	<path id="Path 0" fill-rule="evenodd" class="s0" d="m307.5 62.1c125.9-0.1 142.7 0.1 148 1.5 3.3 0.8 8.7 3 12 4.7 3.2 1.8 8.9 6.1 12.5 9.7 3.9 4 7.8 9.1 9.8 13 1.8 3.6 3.9 9.7 4.7 13.5q1.5 7 1.5 25.5c0 10.2-0.4 20-1 21.8-0.6 2-2.1 3.8-4 4.7-1.6 0.8-3.7 1.5-4.5 1.5-0.8 0-2.7-0.6-4.3-1.4-1.5-0.7-3.3-2.5-4-4-0.8-1.8-1.2-8.5-1.2-21.9 0-14.9-0.3-20.4-1.6-24.7-0.9-3-2.7-7.1-3.9-9-1.2-1.9-3.7-5-5.6-6.9-1.9-1.8-5.9-4.5-14.4-8.6h-287l-5.5 2.6c-3 1.5-7 4.2-8.9 6-1.9 1.9-4.4 5-5.6 6.9-1.3 1.9-3 6-3.9 9-1.5 4.9-1.6 13.6-1.1 159.5l2.7 5.7c1.6 3.2 4.8 7.8 7.3 10.3 2.5 2.5 6.2 5.3 8.2 6.4 2.1 1 6.2 2.4 9 3 3.6 0.7 27.2 1.1 144.3 1.1l6 5v30.5c0 16.8 0.3 30.5 0.7 30.5 0.5 0 15-14.2 32.3-31.6 17.3-17.3 32.7-32.2 34.2-33 2.3-1.1 8.5-1.4 31.3-1.4 17.3 0 30.6-0.4 33.7-1.1 2.9-0.6 7-2 9-3 2.1-1.1 5.8-3.9 8.3-6.4 2.5-2.5 5.7-7.1 7.2-10.3 2.8-5.6 2.8-6.1 3.1-27.2 0.2-14 0.7-22.5 1.5-24.3 0.7-1.5 2.6-3.4 4.2-4.2 1.6-0.7 4.1-1.1 5.5-0.9 1.4 0.2 3.6 1.6 5 3 2.5 2.5 2.5 2.8 2.8 22.2 0.2 15-0.1 21.5-1.2 27.2-0.9 4.1-2.9 10.2-4.4 13.5-1.6 3.3-5.3 8.7-8.3 11.9-3 3.3-8.1 7.7-11.4 9.8-3.3 2.2-8.9 4.8-12.5 6-5.8 1.9-9.5 2.1-65.5 3l-80 79.8h-4.3c-3.2 0-4.8-0.6-9.2-5v-75h-47l-0.5 55.5-3.1 6.5c-1.7 3.6-5.1 8.5-7.5 10.9-2.4 2.4-6.7 5.5-9.4 6.7-2.8 1.3-7.7 2.8-11 3.4-3.3 0.5-22.1 1-77.5 1v21c0 12-0.4 21.9-1 23-0.6 1.1-2.5 2.7-4.3 3.6-1.9 1-4.2 1.3-5.7 0.9-1.4-0.3-13.1-11.1-50.5-48.3l-18.5-0.5c-10.2-0.3-20.1-1.1-22-1.7-1.9-0.6-6-2.8-9-4.8-3-2.1-6.8-5.5-8.5-7.7-1.7-2.2-4.1-6.7-5.4-10-2.2-6-2.2-6.1-1.6-108l2.7-5.5c1.4-3 4.8-7.7 7.5-10.4 2.6-2.7 7.3-6.1 15.8-10.1l77.5-0.5v-62.3c0-50.9 0.3-63.5 1.5-69.2 0.8-3.8 2.9-9.9 4.7-13.5 2-3.9 5.9-9 9.8-13 3.6-3.6 9.3-7.9 12.5-9.7 3.3-1.7 8.5-3.9 11.5-4.7 4.7-1.3 24.9-1.5 147.5-1.5zm-265.5 195.7c-1.4 1-3.5 3.4-4.8 5.3l-2.3 3.4c0.2 95.2 0.2 97.1 2.2 100.5 1.1 1.9 3.6 4.6 5.6 6 3.5 2.4 4.3 2.5 25 3l21.3 0.5 34.9 35c0.5-25.2 1-29.6 2.1-31.2 0.8-1.2 2.5-2.7 3.7-3.3 1.5-0.6 18-1 45.5-1 39.4 0 43.7-0.2 47.3-1.8 2.2-1 5.3-3.6 7-5.7l3-3.8 0.5-53.7c-65.9-0.6-69-0.8-75-2.8-3.6-1.2-9.2-3.8-12.5-6-3.3-2.1-8.4-6.5-11.4-9.8-3-3.2-6.7-8.6-8.3-11.9-1.5-3.3-3.5-9.1-4.3-13-0.8-3.9-1.5-8.5-1.5-10.2v-3.3c-52.3 0.2-69.3 0.6-71.5 1-2.2 0.5-5.1 1.7-6.5 2.8zm360.8-134.3l2.6 2.5c1.4 1.4 2.8 3.5 3.1 4.8 0.3 1.2-0.2 3.7-1 5.5-0.8 1.7-2.6 3.8-4 4.5-1.9 0.9-23.1 1.2-95.5 1.2-72.4 0-93.6-0.3-95.5-1.2-1.4-0.7-3.2-2.8-4-4.5-0.8-1.8-1.2-4.3-0.9-5.5 0.4-1.3 1.3-3.1 2.1-4.2 0.8-1 2.4-2.2 3.6-2.7 1.2-0.4 44.4-0.7 189.5-0.4zm-95.1 50.5c88.2 0 94.5 0.1 96.9 1.8 1.4 0.9 2.9 3.1 3.5 4.7 0.6 1.9 0.6 4 0 5.5-0.5 1.4-1.9 3.4-3.1 4.5-2.2 2-3.6 2-191.8 2l-2.6-2.5c-1.4-1.4-2.8-3.5-3.1-4.7-0.3-1.3 0-3.5 0.6-5 0.5-1.6 2-3.6 3.2-4.5 2-1.6 8.7-1.8 96.4-1.8zm178.4 3c1.6 0 4 0.8 5.4 1.8 1.4 0.9 3 2.8 3.5 4.2 0.4 1.4 0.5 3.9 0.1 5.5-0.4 1.7-1.9 3.8-3.2 4.9-1.3 1-4 1.8-5.9 1.8-2.7-0.1-4.2-0.8-6.4-3.4-2.4-2.7-2.8-3.9-2.3-6.8 0.4-2 1.8-4.5 3.2-5.7 1.5-1.3 3.9-2.3 5.6-2.3zm-217.6 47.1c31.7 0 53.5 0.3 55.7 0.9 2.1 0.6 4.5 2 5.3 3.3 0.8 1.2 1.5 3.8 1.5 5.7 0 1.9-0.6 4.2-1.3 5.1-0.7 0.9-2.2 2.1-3.5 2.7-1.6 0.9-17.3 1.2-57.2 1.2-50.7 0-55.2-0.1-57.6-1.7-1.4-1-2.9-3.1-3.5-4.8-0.6-1.9-0.6-4 0-5.5 0.5-1.4 1.7-3.2 2.7-4.1 1.1-1 2.8-1.9 3.9-2.2 1.1-0.2 25.4-0.5 54-0.6z"/>
</svg>