<svg version="1.2" xmlns="http://www.w3.org/2000/svg" viewBox="0 0 1024 1024" width="1024" height="1024"><style>.a{fill:#fdfefe}.b{fill:#010101}</style><path class="a" d="m248.7 528c0 4.7-0.2 6.5-0.4 4-0.2-2.5-0.2-6.3 0-8.5 0.2-2.2 0.4-0.2 0.4 4.5z"/><path class="b" d="m571.4 120.6c0.4 1.6 2.1 9.2 3.6 16.9 1.6 7.7 4.7 22.6 6.9 33 2.2 10.4 5.3 25.5 7.1 33.5 1.7 8 3.2 14.6 3.3 14.7 0.1 0.1 2.7-0.5 5.7-1.4 3.8-1.1 8.1-1.4 14-1.1 6.8 0.3 9.8 1 15 3.4 4.3 2 8.5 5.1 12.4 9 3.8 3.8 7 8.4 9.1 12.9 1.8 3.9 3.8 9.1 4.4 11.8 0.6 2.6 1.5 14.7 2.1 27 0.6 13.9 1.7 25.9 2.9 32.2 1 5.5 3.3 13.6 5 18 1.7 4.4 4.7 10.5 6.8 13.5 2 3 8.2 11.1 13.8 18 5.6 6.9 12.9 16.3 16.2 21 3.4 4.7 7.6 11 9.3 14 1.8 3 5.4 9.8 8 15 2.6 5.2 6.4 14 8.5 19.5 2 5.5 4.8 14.1 6.1 19 1.3 4.9 3.3 14.9 4.4 22 1.2 7.2 2.3 21 2.7 31 0.3 10.9 0.1 22.7-0.6 30-0.6 6.6-2.1 17.6-3.2 24.5-1.1 6.9-3.2 17-4.5 22.5-1.4 5.5-5.4 20.1-8.9 32.5-3.5 12.4-7.3 26.8-8.3 32-1.1 5.2-2.7 11.5-3.6 14-1.1 3.1-1.6 7.9-1.6 15.5 0 6.6 0.6 13 1.4 16 0.8 2.8 2.8 7.7 4.3 11 1.6 3.3 4.2 8.3 5.8 11 1.6 2.8 7.4 12.2 12.9 21 5.4 8.8 16 25 23.4 36 7.4 11 18.7 27 25 35.5 6.4 8.5 12.4 16.4 13.3 17.5 1 1.1 6.6 7.9 12.4 15 5.9 7.1 12.6 15 14.8 17.5 2.2 2.5 7.2 7.9 11 12 3.9 4.1 19.5 20.1 34.6 35.5 15.2 15.4 32 33.1 37.4 39.3l9.7 11.2-58.5 61.1c-140.7-0.1-181.5-0.4-181.5-0.8 0-0.5-2.2-3.1-4.8-5.9-2.6-2.8-6-6.6-7.7-8.5-1.6-1.9-6.1-7-9.9-11.4-3.7-4.4-7.8-9.1-9-10.5-1.1-1.4-6.4-7.7-11.7-14-5.3-6.3-13.1-16.2-17.3-22-4.2-5.8-11.4-15.6-15.9-21.9-4.5-6.2-12.2-17.1-17.2-24.2-4.9-7-13.9-20.5-20-30-6-9.4-12.3-18.9-14-21.2-1.6-2.2-6-6.3-9.7-9.1-3.7-2.8-10.4-7.3-15-10.1l-8.3-5c-28.7-0.4-40.4-1-44.5-1.6-4.1-0.6-11.8-2.2-17-3.6-5.2-1.4-13.9-4.3-19.2-6.4-5.4-2.1-13.1-5.5-17-7.5-4-2-10.7-5.9-14.8-8.7-4.1-2.7-10.2-7.1-13.5-9.7-3.3-2.6-10.3-9.2-15.6-14.6-5.2-5.5-12-13.3-15.1-17.4-3-4.1-7.5-10.6-9.8-14.5-2.4-3.9-6.2-11-8.6-16-2.3-5-6.8-16-10-24.5-3.1-8.5-9.8-23.8-14.8-34-5.1-10.2-10.5-22.4-12.1-27.2-2.7-8-3.5-9.1-8.4-13-2.9-2.4-8.9-8-13.2-12.6-4.4-4.5-9.9-11.2-12.3-15-2.4-3.7-5.7-9.4-7.4-12.7-1.6-3.3-4.1-9.7-5.6-14.3-1.4-4.5-3.3-12.1-4.1-16.9-0.8-4.9-1.5-14.7-1.5-21.8 0-7.1 0.7-17.1 1.6-22 0.8-4.9 3.1-13.5 5-19 2-5.5 3.8-10.9 4.1-12 0.3-1.2-1.1-5.7-3.5-11-2.3-4.9-5-12.4-6.2-16.5-1.1-4.1-2.5-11.8-3-17-0.7-6.4-0.7-12.5 0-18.5 0.5-4.9 1.9-12.6 3-17 1.2-4.4 3.8-11.6 5.9-16 2-4.4 5.7-10.9 8.1-14.5 2.4-3.6 5.9-8.1 7.7-10l3.2-3.5c-6.8-31-14-63.9-20.4-93-6.4-29.2-13.6-61.6-16-72-3.3-14.1-4.1-19.2-3.2-19.7 0.7-0.3 6.8-1.4 13.7-2.3 6.9-0.9 22.9-3.3 35.5-5.2 12.7-1.9 32.5-4.7 44-6.3 11.5-1.6 27.3-3.8 35-4.9 7.7-1.1 30.4-4.3 50.5-7.1 20.1-2.8 40.8-5.7 46-6.5 5.2-0.8 22.1-3.3 37.5-5.5 15.4-2.3 35.9-5.2 45.5-6.6 9.6-1.4 19.8-2.8 22.5-3.1 4.9-0.5 5.1-0.4 5.9 2.3z"/><path fill-rule="evenodd" class="a" d="m553.2 170.2c2.6 12.2 6.3 30.6 8.2 40.8 2 10.2 4 20.1 4.6 22 0.9 3.3 0.6 4-4.2 11.5-2.9 4.4-6.8 11.8-8.9 16.5-2 4.7-5.5 14.8-7.7 22.5-2.2 7.7-4.8 18.3-5.6 23.5-0.9 5.2-1.9 15.4-2.3 22.5-0.4 7.9-0.1 17.5 0.6 24.5 0.7 6.3 2.2 16.2 3.2 22 1.1 5.8 4.1 16.8 6.6 24.5 2.5 7.7 6.8 18.7 9.5 24.5 2.7 5.8 8 15.9 11.8 22.5 4.6 8 7.3 13.9 8 17.5 0.5 3 1 11.1 1 18v12.5c-10.2 15.5-16.4 26.7-20.5 35-4 8.2-9.8 22-12.8 30.5-3 8.5-6.1 18.1-6.8 21.2-0.8 3.2-2.1 6.1-2.9 6.4-0.8 0.3-11.2 3.9-23 7.9-11.8 4-43.7 15-70.7 24.4-27.1 9.4-50 17.1-50.8 17.1-1 0-2.2-2.3-3.5-6.8-1.2-3.7-2.5-9.5-3-13-0.8-4.7-0.6-7.9 0.5-13.5 1.1-5.2 3.7-11.4 9.5-22.2 4.3-8.3 8.6-17 9.5-19.5 0.9-2.5 2-7.5 2.5-11.3 0.7-4.4 0.6-9.2 0-14-0.6-3.9-2.3-9.9-3.8-13.2-1.6-3.3-4.6-8-6.8-10.3-2.1-2.4-6.8-5.8-10.4-7.6-3.6-1.8-8.9-3.6-11.8-3.9l-5.2-0.7c7.3-5.8 12.1-10.7 15.5-14.6 3.3-3.9 7.5-9.8 9.2-13.2 1.8-3.4 3.5-6.2 3.8-6.2 0.3 0 1.2 3.3 2.1 7.2l1.7 7.3c11.8-2.5 21.1-4.6 28.2-6.3 7.1-1.7 17.7-4.2 23.5-5.6 5.8-1.4 29.4-7.1 52.5-12.7 23.1-5.5 42.3-10.4 42.7-10.8 0.4-0.3 0.1-4.7-0.8-9.6-0.9-4.9-1.6-9.1-1.7-9.2-0.1-0.2-8.1 1.5-17.7 3.7-9.6 2.1-26.5 6-37.5 8.5-11 2.5-27 6.2-35.5 8.1-8.5 1.9-22.7 5.2-31.5 7.3-8.8 2.2-17.6 4.3-19.5 4.7-3.5 0.7-3.5 0.7-2.6-2.2 0.4-1.6 1.2-5.8 1.6-9.4 0.5-3.6 0.6-7.1 0.4-7.8-0.2-0.6-0.1-1.4 0.3-1.6 0.5-0.2 17.2-4.1 37.3-8.6 20.1-4.5 44.1-9.9 53.5-11.9 9.4-2.1 23.9-5.3 32.3-7.2l15.3-3.4c-0.9-4.6-1.8-9.1-2.7-13l-1.5-7c-11.2 2.5-23 5.1-33.4 7.4-10.5 2.2-26.4 5.7-35.5 7.6-9.1 2-20.8 4.5-26 5.5-5.2 1-17.8 3.7-28 5.9-10.2 2.2-18.5 4-18.5 3.8-0.1-0.1-1.2-1.9-2.5-3.9-1.4-2.1-4.6-5.3-7.2-7.3l-4.8-3.5c7-12 9-15.8 9-16.3 0-0.4 0.5-0.5 1-0.2 0.5 0.3 1 2.5 1 5 0 2.7 0.5 4.7 1.2 5 0.7 0.3 10.1-1.3 20.8-3.5 10.7-2.2 35.7-7.4 55.5-11.5 19.8-4 41.2-8.5 47.5-10 6.3-1.4 12.2-2.5 13-2.5 0.8 0 2-0.4 2.6-0.8 0.9-0.5 0.8-3.1-0.5-9.8-0.9-5.1-1.8-9.4-2.1-9.7-0.3-0.3-29.3 5.3-64.5 12.4-35.2 7.1-64.8 13.1-65.7 13.4-1 0.3-2.7 0.7-3.8 1-1.9 0.5-2 0-2-10.3v-10.7c63.9-12.7 93-18.5 105.7-21 12.8-2.5 24.2-4.5 25.3-4.5 1.1 0 2.2-0.3 2.3-0.8 0.2-0.4-0.5-5-1.5-10.2-1.1-5.2-2-9.6-2.1-9.8-0.1-0.1-4.9 0.7-10.7 1.8-5.8 1.1-20.4 3.8-32.5 6-12.1 2.2-30.1 5.6-40 7.5-9.9 1.9-26.5 5-37 7l-19 3.6c-9.3-8.8-14.3-12.6-17-14.2-3.3-1.8-4.5-3-3.5-3.3 0.8-0.3 11.6-2.4 24-4.6 12.4-2.3 29-5.3 37-6.6 8-1.4 17.9-3.2 22-4 4.1-0.8 12.7-2.4 19-3.5 6.3-1 21-3.8 32.5-6 11.5-2.3 21.1-4.2 21.3-4.2 0.2-0.1-0.5-4.6-1.5-10-1.8-9.6-1.9-9.8-4.3-9.2-1.4 0.3-11.5 2.1-22.5 4.1-11 1.9-28.8 5-39.5 6.9-10.7 1.9-31.2 5.5-45.5 8-14.3 2.4-32.3 5.6-40 7-7.7 1.3-17.4 3.1-21.5 4-4.1 0.8-7.6 1.6-7.8 1.7-0.1 0.2 0.2 2.3 0.8 4.8 0.5 2.5 1 5.4 1 6.5 0 1.6-0.7 2.1-3.7 2.3-2.1 0.1-6.7 1.1-10.3 2.1-3.6 1-8.1 2.5-10 3.3-1.9 0.8-6.1 3.1-9.3 5.1-3.1 2-5.9 3.6-6.1 3.4-0.2-0.1-1.8-7-3.5-15.2-1.7-8.3-4.8-23.6-7-34-2.2-10.4-4.9-23.1-6-28-1.1-4.9-3.1-14.6-4.5-21.5-1.4-6.9-3.9-18.6-5.5-26-1.7-7.4-2.6-13.7-2.2-14 0.5-0.3 9.4-1.8 19.7-3.3 10.4-1.6 29.3-4.4 41.9-6.3 12.6-1.8 40.1-5.9 61-9 20.9-3 51.5-7.5 68-9.9 16.5-2.4 41.5-6.2 55.5-8.4 14-2.2 26.9-4.3 28.5-4.6l3-0.7zm58.9 72.9c1.9 0.4 4.5 1.6 5.9 2.6 1.4 1.1 3.6 4.2 5 6.8 2.2 4.6 2.5 6.5 3.2 25.9 0.4 11.6 1.4 25.3 2.3 30.5 0.9 5.3 2.7 13.8 4 19 1.3 5.3 3.3 12 4.5 15 1.2 3.1 3.3 7.8 4.7 10.5 1.4 2.8 4.6 8 7.1 11.5 2.6 3.6 9.9 13.1 16.3 21 6.4 8 14.2 18.6 17.5 23.5 3.2 5 7.9 13.5 10.5 19 2.6 5.5 6.1 14.1 7.7 19 1.7 5 4 13.5 5.1 19 1.1 5.5 2.5 15 3.1 21 0.5 6.1 1 16.7 1 23.5 0 6.9-0.4 17.3-1 23-0.6 5.8-1.8 14.8-2.6 20-0.9 5.3-3.1 15.6-4.9 23-1.9 7.5-6.1 23-9.5 34.5-3.3 11.6-6.7 24.9-7.5 29.5-0.8 4.7-1.5 12.8-1.5 18l0.1 9.5c-30.7 17.6-45.3 26.4-52.4 30.9-7 4.5-20.9 13.9-31 21-10 7.1-26.3 19.2-36.2 26.9-9.9 7.7-21.3 17-25.5 20.6-4.1 3.7-11.9 10.8-17.5 16l-10 9.3c-20.1-0.8-29.6-1.7-34-2.6-4.4-0.8-11.5-2.4-15.7-3.5-4.3-1.1-11.3-3.5-15.5-5.1-4.3-1.7-12.1-5.3-17.3-8.1-5.2-2.7-13.3-7.7-18-11.3-4.7-3.5-12.6-10.5-17.5-15.7-5-5.1-12.3-13.9-16.2-19.4-3.9-5.5-9.1-14-11.6-19-2.4-4.9-5.8-12.8-7.4-17.5-1.7-4.6-4.3-12.3-5.8-17-1.6-5.2-5.4-13.1-9.8-20.5-3.9-6.6-8.6-15.3-10.4-19.5-1.8-4.1-4.2-11.3-5.4-16-1.9-7.4-2.1-10.3-1.6-23 0.4-10.5 1.1-16.5 2.6-22 1.2-4.1 4.4-12 7.1-17.5 2.7-5.5 7.3-12.9 10.2-16.5 4-4.8 6.9-7.2 11.3-9.4 5-2.4 6.8-2.8 10.5-2.3 2.5 0.3 5.6 1.5 7 2.5 1.4 1.1 3.4 3.2 4.5 4.7 1.6 2.1 2 4.3 2 10.4 0 6.8-0.4 8.5-3.7 15.1-2 4.2-6.2 11.8-9.2 17-3.1 5.3-6.8 12.9-8.2 17-1.8 5.4-2.7 10.5-3.1 18-0.4 8.6-0.2 12 1.5 18.5 1.1 4.4 4.2 13.7 7 20.5 2.7 6.9 5.7 15 6.7 18 1 3.1 2 5.9 2.4 6.3 0.3 0.5 4.2-0.6 8.6-2.3 4.4-1.7 13.6-5.1 20.5-7.4 6.9-2.4 23.3-8.3 36.5-13 13.2-4.8 30.8-11.2 39-14.3 8.3-3 23.1-8.6 33-12.3 9.9-3.7 18.8-7.1 19.8-7.4 1.5-0.5 1.7 0.2 1.7 5.4 0 3.3 0.7 9.5 1.5 13.8 0.9 4.3 2.9 10.6 4.5 14 1.7 3.4 5.2 8.4 7.8 11 2.6 2.6 7.6 6.2 11.2 8 3.6 1.8 8.1 3.5 10 3.9 3.2 0.7 3.4 0.6 2.6-1.2-0.5-1.1-2.2-6.2-3.8-11.5-1.6-5.2-3.5-13.7-4.3-19-0.8-5.2-1.5-13.1-1.5-17.5 0-4.4 0.5-12 1.1-17 0.5-4.9 2.1-13.9 3.6-20 1.4-6 4.5-16.4 6.9-23 2.3-6.6 6.3-16.2 8.7-21.5 2.4-5.2 7.2-14.4 10.7-20.5 3.5-6 8.9-14.8 12.1-19.5 3.2-4.6 10-13.6 15-20 5.1-6.3 9.7-12.5 10.3-13.7 0.6-1.2 0.9-2.5 0.6-2.8-0.3-0.2-5.5 1.1-11.7 3-6.2 2-11.5 3.5-11.8 3.5-0.3 0-0.8-4.1-1.1-9.2-0.3-5.1-1.5-11.7-2.5-14.8-1.1-3-5-10.9-8.8-17.5-3.8-6.6-8-14.2-9.4-17-1.4-2.7-3.9-8.6-5.7-13-1.7-4.4-4.4-12.9-6-19-1.6-6-3.6-16.4-4.5-23-1.4-9.4-1.6-15.7-1.1-29.5 0.4-9.6 1.3-20.8 2-25 0.7-4.1 2.6-11.7 4.1-17 1.5-5.2 4.8-14 7.5-19.5 2.6-5.5 6.6-12.3 8.9-15.2 2.2-2.9 5.8-6.4 7.9-7.7 2-1.4 5.6-2.9 7.8-3.3 2.3-0.5 5.7-0.5 7.5-0.1zm-260.6 98.1c2.5 0.7 5.8 2.8 8.6 5.7 2.8 2.8 5.1 6.1 5.8 8.5 0.6 2.2 1.1 6.1 1.1 8.5 0 2.5-0.9 7.2-2 10.5-1.1 3.3-4.2 9-6.8 12.6l-4.7 6.5c-10.8 1-17.4 2.4-21.5 3.8-4.1 1.5-11.3 5-15.9 7.9-4.7 2.9-13 9.6-18.9 15.2-5.7 5.5-12.5 12.9-15 16.3-2.6 3.5-5 6.3-5.4 6.3-0.4-0.1-1.3-3.1-1.9-6.8-0.6-3.8-0.9-11.2-0.6-16.8 0.3-5.5 1.3-12.7 2.2-16 0.9-3.3 3.1-8.9 4.9-12.5 1.7-3.5 4.9-9.2 7.1-12.5 2.1-3.3 8.2-10.3 13.5-15.6 5.7-5.7 12.3-11.2 16.5-13.7 3.9-2.3 9.7-5 13-6 3.3-1.1 8.3-2.1 11-2.4 2.8-0.3 6.8-0.1 9 0.5zm12.4 80.6c1.9 1 4.4 3.2 5.6 4.7 1.2 1.6 2.7 4.7 3.4 6.9 0.9 2.6 1.2 6.6 0.9 11-0.3 5.7-1.2 8.5-4.3 14.5-3.2 6.2-6.7 10.4-19.5 23.3-8.5 8.6-16.7 17.9-18.2 20.5-1.5 2.6-3.1 7.2-3.5 10.2-0.6 4.8-1.4 6.4-6.6 12.5-3.2 3.9-7.6 10-9.7 13.5-2.1 3.6-5.5 10.6-7.5 15.5-2 5-4.6 14.1-5.8 20.3l-2.2 11.3c-6.9-10.5-10.4-16.9-12.2-21.1-1.7-4.1-3.9-10.2-4.8-13.5-0.9-3.3-1.9-11.8-2.2-19-0.4-9.8-0.1-15.1 1.2-22 0.9-4.9 2.8-12.3 4.2-16.5 1.4-4.1 4.6-11.5 7.2-16.5 2.5-4.9 7.9-13.5 12-19 4.1-5.5 11.4-13.8 16.1-18.5 4.8-4.6 11.1-10.1 14.1-12.2 3-2 8-4.6 11.2-5.7 3.2-1.2 8.2-2.1 11.5-2.1 3.7 0 6.9 0.7 9.1 1.9z"/><path class="b" d="m510.7 238.5c0.9 4.9 1.8 9.4 2 10 0.2 0.6-6.4 2.2-15.4 3.8-8.7 1.6-23.7 4.2-33.3 5.7-9.6 1.6-31 5.2-47.5 8-16.5 2.8-40.6 6.9-53.5 9.1-12.9 2.2-24.9 4.2-26.5 4.5l-3 0.6c-2.7-12.2-3.8-16.6-4.1-17.7-0.5-1.7 0.2-2.2 4.3-3.2 2.6-0.7 12.9-2.6 22.8-4.3 9.9-1.7 29.9-5.1 44.5-7.6 14.6-2.4 34.8-5.8 45-7.4 10.2-1.6 28.5-4.7 40.8-6.8l22.3-3.8z"/></svg>