<svg version="1.2" xmlns="http://www.w3.org/2000/svg" viewBox="0 0 613 242" width="613" height="242">
	<title>b9eb0bee3605ad2347f56649dcb97af5 (1)</title>
	<style>
		.s0 { fill: #000001 } 
	</style>
	<path id="Path 0" fill-rule="evenodd" class="s0" d="m565.5 5.1c1.2 0 8 5.6 16.5 13.5 12.5 11.7 14.5 14 14.5 16.6 0 2.6-0.7 3.4-5 5.9-2.8 1.5-5.6 2.8-6.3 2.9-0.6 0-10-4.3-20.7-9.5-14-6.8-19.6-10.1-20-11.5-0.3-1.1-0.3-2.5 0-3 0.3-0.6 4.7-4.1 9.8-8 5-3.8 10.1-7 11.2-6.9zm-8.5 15.9c21.7 10.8 28 13.5 28 13 0-0.5-4.3-4.9-9.5-9.8-5.3-4.8-9.9-8.8-10.3-8.9-0.4-0.1-2.4 1.1-4.5 2.7zm-244.1-4.7c135 0.2 136.3 0.2 137.7 2.2 1.1 1.5 1.5 5.1 1.5 24.5h18.2c16.3 0 18.4 0.2 19.5 1.8 0.7 0.9 1.3 3 1.3 7.2l106.6 0.5 3.9 3c2.1 1.7 4.4 4.5 5.1 6.3 0.8 1.8 1.4 4.6 1.4 6.2 0 1.7-0.8 4.7-1.8 6.7-1 2-3.5 4.8-9.6 8.8l-105.6 0.5v3c0 1.7-0.8 3.7-1.6 4.5-1.3 1.2-4.9 1.5-37.4 1.5v12c0 9.6-0.4 12.3-1.6 13.5-1.4 1.3-6.8 1.5-71.4 1.5l-1.2 3.8c-0.6 2-1.8 4.3-2.7 5-1.3 1-13.9 1.3-113.1 1.2v2.5c0 1.4-0.8 4-1.7 5.8-0.9 1.8-2.2 3.6-3 4-1.1 0.6-0.8 1.5 1.4 4.4 1.9 2.6 2.9 5.2 3.1 8.8 0.2 2.8 0.1 6.3-0.2 7.8-0.4 1.5-1.8 4.1-3.1 5.7-2.3 2.8-2.4 3.1-0.9 4.3 0.9 0.7 2.3 2.7 3 4.5 0.7 1.8 1.4 5.3 1.4 7.7 0 2.5-0.6 6-1.4 7.8-0.7 1.8-2.7 4.5-4.5 6-1.7 1.5-4.8 3.2-6.9 3.7-2.1 0.6-5.2 1-7 1-3 0-3.2 0.2-2.1 2.3 0.6 1.2 1.2 4.5 1.2 7.2-0.1 2.8-0.7 6.4-1.6 8-0.8 1.7-2.9 4.3-4.6 5.8-1.7 1.5-5.1 3.2-7.4 3.8-2.9 0.8-25.3 1-71.3 0.7-60.3-0.3-67.5-0.5-73-2.1-3.2-1-7.5-2.5-9.4-3.4-2-0.9-5.5-3.1-7.8-4.9-2.3-1.9-4.9-4.7-7.2-9.4h-18c-14 0-18.7-0.3-21-1.5-1.7-0.8-4.1-3.2-5.4-5.2-1.2-2.1-2.8-5.1-3.4-6.8-0.6-1.6-1.6-5.7-2.2-9-0.6-3.3-1-10.9-1-17 0-6 0.6-13.7 1.3-17 0.7-3.3 2.4-8.4 3.9-11.5 1.4-3 3.7-6.3 5.2-7.2 2.2-1.5 5.2-1.8 43.6-1.8l1.7-3.1c1-1.8 3.3-5 5.3-7.2 1.9-2.1 5.5-5.1 8-6.5 2.4-1.4 7.4-3.4 11-4.4 3.5-1 9.5-1.8 13.1-1.8 4.2 0 7.2-0.5 8-1.3 0.8-0.7 7.3-10.1 14.7-20.7 9.1-13.4 14.4-20.2 17-21.8 2.5-1.7 5.2-2.4 14.1-2.7l5.7-16c3.1-8.8 6.9-19.3 8.4-23.5 1.9-5.2 3.4-7.8 5.1-8.7 1.8-1 31.5-1.2 138.7-1zm-149.2 50c-8.1 22.7-14.9 42.2-15.2 43.5l-0.4 2.2c99 0 101.1 0.1 105 2 2.1 1.1 4.6 3.2 5.5 4.5l1.5 2.5h110c2.1-6.6 9.5-27.4 17.8-50.5 8.2-23.1 15.3-42.8 15.6-43.7 0.5-1.7-5.3-1.8-112.3-1.8h-112.8zm239.3-15.9c-5.1 13.9-11.9 32.6-15.1 41.7-3.3 9.1-5.7 17-5.4 17.7 0.5 1 7.5 1.3 30.6 1.3h30l-0.2-86-30.7 0.2zm49.1 34.6l29.5-0.5 0.4-33.5h-29.9zm39-17c0 7 0 7 2.7 7.1 2.5 0 3-0.6 5.3-7l2.5-7-10.5-0.1zm15.4 5.8c-0.3 0.8 0.7 1.2 2.8 1.2 3.1 0.1 3.4-0.3 5.2-5.7 1.1-3.2 2.2-6.3 2.3-7 0.2-0.8-0.9-1.3-3-1.3-3.1 0-3.4 0.3-5.1 5.8-1 3.1-2 6.3-2.2 7zm15.9 0c-0.2 0.8 0.8 1.2 2.9 1.2 3.1 0.1 3.4-0.2 5.1-5.7 1.1-3.2 2.1-6.3 2.3-7q0.3-1.3-3-1.3c-3.2 0-3.4 0.3-5.1 5.8-1 3.1-2 6.3-2.2 7zm15.7 0.5c0 0.4 1.4 0.6 3.1 0.5 2.7-0.2 3.3-0.9 5-5.3 1-2.7 2.1-5.8 2.4-6.7 0.4-1.4-0.2-1.8-2.8-1.8-3.2 0-3.5 0.3-5.5 6.3-1.2 3.4-2.2 6.6-2.2 7zm16 0c0 0.4 1.4 0.6 3.1 0.5 3-0.3 3.4-0.7 5.5-7l2.4-6.8c-6.8 0-7 0.2-9 6.3-1.1 3.4-2 6.6-2 7zm15.2 0.2c4.9 0.5 6.4 0.5 6.5 0.3 0.2-0.2 1.4-3.3 2.8-7l2.5-6.8c-6.7 0-6.9 0.2-9.3 6.8zm17.6-5.3c-1 2.6-1.9 5-1.9 5.3 0 0.2 2.2 0.5 4.8 0.5 3.4 0 5.4-0.6 7-2 1.4-1.3 2.3-3.2 2.3-5.3 0-1.8-0.8-4-1.8-5-1-0.9-3-1.7-4.5-1.7-1.8 0-3 0.6-3.4 1.7-0.4 1-1.5 3.9-2.5 6.5zm-454.7 24c-6.3 9-11.6 16.8-11.8 17.5-0.3 1 1.9 1.2 8.9 1l9.2-0.2c1.9-5.5 4.7-13.4 7.5-21.3 2.8-7.8 5-14.7 5-15.2 0-0.6-0.7-1-1.7-1-1 0-2.7 0.6-3.8 1.5-1.1 0.8-7.1 8.8-13.3 17.7zm-50.7 32.2c-2.2 1.3-5 3.4-6.2 4.7-1.2 1.3-3 4.6-4 7.4l-1.8 5-34.5 0.5c3 7.3 4.4 13.5 5.1 18.5 0.7 5.3 0.9 12.8 0.6 18.2-0.4 5.7-1.6 12.2-3.2 16.8l-2.5 7.5 29.5-0.1c3.8 7.6 6.1 10.1 9.3 12.1 2.6 1.7 7 3.8 9.7 4.7 4.5 1.5 12.3 1.8 73.3 2 59 0.2 68.6 0.1 71.2-1.2 1.7-0.9 3.5-2.7 4-4 0.6-1.4 1-3.7 1-5 0-1.5-1.2-3.8-3-5.5l-3-3c-37.1 0-47.8-0.4-49-1-1.1-0.6-2-2-2-3.3 0-1.2 0.6-2.8 1.2-3.5 1-0.9 9.4-1.2 35.5-1.2 20.9 0 35.1-0.4 36.3-1 1.1-0.6 2.8-2.5 3.7-4.3 1-2 1.3-4.4 1-6.5-0.4-1.9-1.8-4.1-3.4-5.3-2.6-1.9-4.1-2-37-2-29.1 0.1-34.5-0.2-35.8-1.4-0.8-0.9-1.5-2.1-1.5-2.8 0-0.7 0.8-2 1.8-3 1.6-1.5 4.9-1.7 36-1.7h34.3c3.8-3.9 5.2-6.3 5.5-7.8 0.4-1.5 0-4-0.7-5.6-0.7-1.6-2.6-3.5-4.1-4.3-2.2-1-10-1.3-36.3-1.3-28.4 0-33.7-0.3-35-1.5-0.8-0.9-1.5-1.8-1.5-2 0-0.3 0.5-1.4 1-2.5 1-2 2-2 34.5-2 27.8 0 34.1-0.3 36.5-1.5 1.7-0.9 3.7-2.5 4.6-3.8 0.8-1.2 1.5-3.2 1.5-4.5-0.1-1.2-0.8-3.6-1.8-5.2-1-1.6-2.8-3.4-4-4-1.5-0.7-27.9-1-76.5-0.9-61.4 0-75.3 0.3-80.3 1.5-3.3 0.8-7.8 2.5-10 3.8zm-62.6 27.6c-1.8 5.2-2.2 9-2.3 19.5 0 10.7 0.3 14.2 2.2 20 1.2 3.8 2.9 7.9 3.7 9 1.5 2 1.6 1.9 3.6-0.5 1.2-1.4 2.8-5 3.8-8 1.2-4.1 1.6-9.3 1.6-20 0-10.8-0.4-16-1.6-20-1-3.1-2.5-6.6-3.5-7.9-1.8-2.2-1.9-2.2-3.6-0.5-1 1-2.7 4.8-3.9 8.4zm581.7-58c0.8 0 2.1 0.6 2.9 1.5 0.9 0.8 1.5 1.9 1.5 2.5 0 0.5-2.4 7.6-5.4 15.7-2.9 8.1-6.6 18.1-8 22.3-1.5 4.1-3.1 8.3-3.6 9.2-0.5 1-2.1 1.8-3.5 1.8-1.9 0-4.2-2.2-10.4-9.8-4.4-5.3-8-10.6-8.1-11.7 0-1.2 2.2-4.1 5.3-7 2.9-2.8 10.4-9.4 16.6-14.8 6.1-5.3 11.9-9.7 12.7-9.7zm-24.1 31.8c0 0.4 1.5 2.5 3.3 4.7l3.2 4c1.4-3.9 2.9-8.4 4.2-12.4 1.3-4.1 2.4-7.6 2.3-7.8-0.1-0.2-3 2.2-6.5 5.2-3.6 3.1-6.5 5.9-6.5 6.3zm-386.6-94.6c1.3 0.1 3 1.2 3.7 2.3 0.8 1.3 1 2.7 0.4 4.2-0.7 1.8-1.8 2.3-4.5 2.3-2.2 0-3.6-0.6-4-1.5-0.2-0.9-0.5-2.3-0.7-3.3-0.1-1 0.5-2.4 1.3-3.1 0.8-0.7 2.5-1.1 3.8-0.9zm31.4-0.2c1 0 3.2 0.6 5 1.3 1.8 0.7 4 2.4 5 3.7 1 1.4 1.8 4.2 1.8 6.2-0.1 2.1-1.8 8.6-4 14.5-2.1 5.9-5.3 14.8-7 19.8-1.7 4.9-4.1 10-5.3 11.2-1.3 1.3-4 2.6-6.3 2.9-2.2 0.3-5.2 0.1-6.7-0.5-1.5-0.6-3.7-2.6-4.8-4.4-1-1.8-1.9-4.2-2-5.5 0-1.2 3.3-11.3 7.2-22.5 3.9-11.1 8-21.3 9.1-22.6 1.1-1.3 2.9-2.8 4.1-3.2 1.2-0.4 2.9-0.8 3.9-0.9zm-5.1 18.5c-1.1 3.3-3.7 10.5-5.7 16-2.1 5.5-3.9 11.3-4.2 13-0.4 2.2 0 3.2 1.4 3.7 1 0.5 2.2 0.5 2.6 0 0.4-0.4 3.9-9.4 7.8-20 3.8-10.6 6.7-19.9 6.4-20.7-0.2-0.9-1.3-1.5-2.4-1.5-1.1 0-2.4 0.8-2.9 1.7-0.5 1-1.8 4.5-3 7.8zm38.8-18.1c2.4 0.3 4.6 1.7 6.8 4 2 2.2 3.2 4.6 3.2 6.3 0 1.5-2.6 10.2-5.8 19.3-3.3 9-7 18.9-8.3 21.9-1.5 3.4-3.3 5.8-5.1 6.7-1.5 0.8-4.3 1.4-6.3 1.4-2.6 0-4.3-0.9-7-3.5-2.7-2.8-3.5-4.3-3.5-7.3 0-2.1 2.8-11.6 6.6-22.2 3.7-10.2 7.3-19.8 8.1-21.3 0.7-1.5 2.8-3.4 4.6-4.2 1.9-0.9 4.7-1.3 6.7-1.1zm-11.4 30.1c-6.2 17.3-6.6 19.1-5.2 20.5 1.5 1.3 1.8 1.3 3.2 0 0.8-0.9 3.3-6.7 5.6-13 2.2-6.4 5.2-14.7 6.6-18.5 1.4-3.9 2.2-7.8 1.9-8.8-0.4-0.9-1.3-1.7-2-1.7-0.8 0-1.9 0.5-2.4 1.2-0.5 0.7-4 9.8-7.7 20.3zm41.2-30.5c1.2 0 3.6 0.6 5.2 1.5 1.7 0.8 3.7 2.5 4.6 3.7 0.8 1.3 1.5 3.8 1.5 5.8 0 1.9-0.5 4.8-1 6.5-0.5 1.6-2 6.1-3.4 10-1.4 3.8-4.1 11.5-6.1 17-2.5 6.9-4.5 10.8-6.6 12.7-2 1.9-4 2.8-6.5 2.8-1.9 0-4.8-0.7-6.5-1.5-1.6-0.9-3.6-2.9-4.5-4.5-0.8-1.7-1.5-3.9-1.5-5 0-1.1 2.9-10 6.4-19.8 3.5-9.7 7.1-19.4 8-21.5 0.9-2 3.1-4.6 4.9-5.7 1.8-1.1 4.3-2 5.5-2zm-9.2 29c-3.6 10.1-6.6 18.9-6.6 19.5 0 0.5 0.7 1.6 1.6 2.5 1.4 1.3 1.7 1.3 2.9 0 0.7-0.9 4.2-10.2 7.8-20.7 3.6-10.6 6.4-19.7 6.1-20.3-0.2-0.5-1.2-1-2.3-1-1.1 0-2.2 0.3-2.4 0.7-0.3 0.4-3.5 9.1-7.1 19.3zm112.5-29c2.1 0 3.3 0.6 4.1 2.2 0.8 1.7 0.8 2.9 0 4.5-0.8 1.6-2 2.3-4.2 2.3-2.1 0-3.3-0.7-4.1-2.3-0.8-1.6-0.8-2.8 0.1-4.5 0.8-1.6 2-2.2 4.1-2.2zm44.4 0c1.1 0 2.5 0.3 3.1 0.7 0.6 0.4 1.3 1.4 1.6 2.3 0.3 0.8 0.2 2.5-0.3 3.7-0.6 1.6-1.7 2.3-3.6 2.3-1.5 0-3.3-0.6-4-1.3-0.7-0.7-1.4-2.2-1.5-3.3-0.1-1.1 0.5-2.6 1.2-3.2 0.8-0.7 2.4-1.2 3.5-1.2zm0.3 63c0.1 0 1 0.3 1.9 0.7 0.9 0.4 2 1.8 2.5 3 0.5 1.3 0.4 3.1-0.2 4.3-0.6 1.2-2 2-3.7 2-1.5 0-3.3-0.6-4-1.3-0.7-0.7-1.3-2.2-1.4-3.4-0.1-1.3 0.9-2.9 2.3-3.8 1.3-0.8 2.5-1.5 2.6-1.5zm-72.6 7c2 0 3.2 0.7 4 2.2 0.8 1.7 0.8 2.9 0 4.5-0.8 1.5-2.1 2.3-3.9 2.3-1.5 0-3.3-0.6-4-1.3-0.7-0.7-1.4-2.2-1.5-3.3-0.1-1.1 0.5-2.6 1.2-3.2 0.8-0.7 2.7-1.2 4.2-1.2z"/>
</svg>