<svg version="1.2" xmlns="http://www.w3.org/2000/svg" viewBox="0 0 720 720" width="720" height="720">
	<title>swisslogo-svg</title>
	<style>
		.s0 { fill: #da291c } 
	</style>
	<path id="SAV" fill-rule="evenodd" class="s0" d="m0.8 632.6h64.2c2.1 17.1 15.3 25.2 36 25.2 12.3 0 27.3-4.8 27.3-17.7 0-12.9-14.4-16.2-40.8-22.8-36-9-79.5-21.3-79.5-66.9 0-49.2 40.2-67.8 88.5-67.8 44.4 0 85.2 18.6 86.1 65.4h-62.1c-1.8-11.7-10.2-19.2-27.3-19.2-13.8 0-23.4 6.3-23.4 15 0 12.6 18.3 14.4 50.4 22.2 36 8.7 72 22.8 72 68.4 0 46.8-41.7 71.7-92.4 71.7-55.8 0-98.1-24-99-73.5zm267.6-146.1h63.9l79.5 214.5h-66.6l-10.5-31.5h-72.6l-10.5 31.5h-62.4zm7.8 139.8h44.4l-13.5-42c-3.3-10.5-8.1-27.6-8.1-27.6h-0.6c0 0-4.5 17.1-8.1 27.6zm108.9-139.8h64.5l29.4 100.8c5.4 18.3 10.5 41.7 10.5 41.7h0.6c0 0 5.4-23.4 10.5-41.7l28.8-100.8h63.6l-69 214.5h-70.2z"/>
	<path id="WC" class="s0" d="m55.4 470h64.2l18.6-90.9c3.9-18.6 7.5-41.7 7.5-41.7h0.6c0 0 3.6 23.1 7.5 41.7l19.2 90.9h63.3l56.4-214.5h-64.2l-15.6 72.9c-5.1 24-10.8 60.3-10.8 60.3h-0.6c0 0-5.4-32.4-10.8-57.3l-16.5-75.9h-56.7l-16.5 76.5c-5.4 24.6-11.1 56.7-11.1 56.7h-0.6c0 0-5.4-36.3-10.5-59.7l-15.6-73.5h-62.7zm341.4 5.1c31.2 0 54-7.8 72.3-25.5 15.3-14.7 26.1-35.7 27.9-59.4h-63.3c-2.1 19.2-15.3 33.6-37.2 33.6-27.9 0-44.7-25.2-44.7-60.3 0-35.1 14.4-60.3 44.1-60.3 20.4 0 34.5 15 36 31.8h62.7c-2.7-27.3-15.6-51.3-37.8-66.6-15.6-10.8-36.6-16.8-60-16.8-64.5 0-108.6 47.7-108.6 111.9 0 64.2 43.2 111.6 108.6 111.6z"/>
	<path id="RA" fill-rule="evenodd" class="s0" d="m0.4 29.5h106.5c43.8 0 81 20.1 81 63.9 0 24.6-12.6 42-35.1 52.2v0.9c17.4 6.6 26.4 18.6 30 35.4 5.7 25.8 0.9 56.7 8.7 58.8v3.3h-61.8c-6-4.2-3.6-30.6-8.1-49.8-3.9-16.5-11.1-24.9-29.4-24.9h-29.1v74.7h-62.7zm62.7 95.1h33.6c18 0 27.9-7.8 27.9-22.8 0-14.1-9-23.1-27-23.1h-34.5zm212.7-95.1h63.9l79.5 214.5h-66.6l-10.5-31.5h-72.6l-10.5 31.5h-62.4zm7.8 139.8h44.4l-13.5-42c-3.3-10.5-8.1-27.6-8.1-27.6h-0.6c0 0-4.5 17.1-8.1 27.6z"/>
</svg>