<svg version="1.2" xmlns="http://www.w3.org/2000/svg" viewBox="0 0 720 720" width="720" height="720">
	<title>PhotopeaLogo</title>
	<style>
		.s0 { fill: #ffffff }
	</style>
	<path id="SAV" class="s0" aria-label="SAV"  d="m99.8 706.1c50.7 0 92.4-24.9 92.4-71.7 0-45.6-36-59.7-72-68.4-32.1-7.8-50.4-9.6-50.4-22.2 0-8.7 9.6-15 23.4-15 17.1 0 25.5 7.5 27.3 19.2h62.1c-0.9-46.8-41.7-65.4-86.1-65.4-48.3 0-88.5 18.6-88.5 67.8 0 45.6 43.5 57.9 79.5 66.9 26.4 6.6 40.8 9.9 40.8 22.8 0 12.9-15 17.7-27.3 17.7-20.7 0-33.9-8.1-36-25.2h-64.2c0.9 49.5 43.2 73.5 99 73.5zm89.4-5.1h62.4l10.5-31.5h72.6l10.5 31.5h66.6l-79.5-214.5h-63.9zm101.1-116.7c3.6-10.5 8.1-27.6 8.1-27.6h0.6c0 0 4.8 17.1 8.1 27.6l13.5 42h-44.4zm163.5 116.7h70.2l69-214.5h-63.6l-28.8 100.8c-5.1 18.3-10.5 41.7-10.5 41.7h-0.6c0 0-5.1-23.4-10.5-41.7l-29.4-100.8h-64.5z"/>
	<path id="WC" class="s0" aria-label="WC"  d="m55.4 470h64.2l18.6-90.9c3.9-18.6 7.5-41.7 7.5-41.7h0.6c0 0 3.6 23.1 7.5 41.7l19.2 90.9h63.3l56.4-214.5h-64.2l-15.6 72.9c-5.1 24-10.8 60.3-10.8 60.3h-0.6c0 0-5.4-32.4-10.8-57.3l-16.5-75.9h-56.7l-16.5 76.5c-5.4 24.6-11.1 56.7-11.1 56.7h-0.6c0 0-5.4-36.3-10.5-59.7l-15.6-73.5h-62.7zm341.4 5.1c31.2 0 54-7.8 72.3-25.5 15.3-14.7 26.1-35.7 27.9-59.4h-63.3c-2.1 19.2-15.3 33.6-37.2 33.6-27.9 0-44.7-25.2-44.7-60.3 0-35.1 14.4-60.3 44.1-60.3 20.4 0 34.5 15 36 31.8h62.7c-2.7-27.3-15.6-51.3-37.8-66.6-15.6-10.8-36.6-16.8-60-16.8-64.5 0-108.6 47.7-108.6 111.9 0 64.2 43.2 111.6 108.6 111.6z"/>
	<path id="RA" class="s0" aria-label="RA"  d="m0.4 244h62.7v-74.7h29.1c18.3 0 25.5 8.4 29.4 24.9 4.5 19.2 2.1 45.6 8.1 49.8h61.8v-3.3c-7.8-2.1-3-33-8.7-58.8-3.6-16.8-12.6-28.8-30-35.4v-0.9c22.5-10.2 35.1-27.6 35.1-52.2 0-43.8-37.2-63.9-81-63.9h-106.5zm62.7-165.3h34.5c18 0 27 9 27 23.1 0 15-9.9 22.8-27.9 22.8h-33.6zm133.5 165.3h62.4l10.5-31.5h72.6l10.5 31.5h66.6l-79.5-214.5h-63.9zm101.1-116.7c3.6-10.5 8.1-27.6 8.1-27.6h0.6c0 0 4.8 17.1 8.1 27.6l13.5 42h-44.4z"/>
</svg>