<svg version="1.2" xmlns="http://www.w3.org/2000/svg" viewBox="0 0 900 873" width="900" height="873"><style>.a{fill:#5b92e5}.b{fill:#d4af37}</style><path fill-rule="evenodd" class="a" d="m889.7 434.3l-2.1 1.3c-1.1 0.8-19 11-39.9 22.7-20.8 11.7-37.9 21.4-38.2 21.5-0.2 0.2 2.8 5.7 6.5 12.2 3.7 6.5 6.8 12.2 6.8 12.5 0 0.4-6.3 4.1-14 8.4-7.8 4.3-14.1 8.1-14.1 8.6 0 0.4 1.4 3.1 3.1 6 1.7 2.9 3.2 5.6 3.2 6 0 0.4-1.1 1.3-4.5 3.3q0.6-0.3 1.3-0.8c1.5-0.9 3.1-2 3.5-2.5 0.4-0.5 2.8-2 9.4-5.8l3.3 6.6c0.7 1.4 1.3 2.6 1.8 3.5-0.9-1.8-1.6-3.3-1.6-3.6 0-0.1 4.6-2.8 20.3-11.6v-3.6c0.1-2.2 0.8-4.6 2-6.7 1.4-2.5 3-3.9 5.6-5 2.8-1.3 4.6-1.6 7.2-1.3 2 0.3 4.8 1.4 6.3 2.5 1.6 1.1 3.4 3.1 4.1 4.5 0.8 1.4 1.3 4.3 1.3 6.4q0 3.9-1.7 7c-1 1.6-3 3.7-4.5 4.6q-2.8 1.7-6.7 1.7c-2.5 0-4.7-0.6-9.3-3.4l-9 5.1c-4.9 2.8-9.7 5.4-10.7 5.8-0.4 0.2-0.8 0.3-1.1 0.3q0.3 0.1 0.7-0.1c1-0.4 1.2-0.3 0.7 0.4-0.3 0.5 0 1.9 0.6 3 0.6 1.1 1.1 2.2 1 2.3-0.1 0.1-5.7 3.3-12.5 7.2-6.7 3.9-12.4 7.1-12.6 7.1-0.3 0-1-1.1-1.6-2.3-0.7-1.4-1.5-2.1-2.2-1.9-0.7 0.5-0.7 0.3 0-0.5 0.8-0.9 0.7-1.5 0-3.1-0.6-1.1-1.6-2.5-2.1-3.1-0.7-0.6-1.8-2.1-2.5-3.3-0.7-1.2-1.4-2.7-1.4-3.3 0-0.6 1.8-2.1 3.9-3.4 2.1-1.1 3.6-2.4 3.4-2.8-0.2-0.5 0-0.4 0.6 0.1q0.1 0.1 0.2 0.2l-1.3-2.1c-1-1.6-2.4-4-3.1-5.3-0.7-1.3-1.6-2.8-1.9-3.5-0.7-0.9-3.5 0.4-16.1 7.6-8.4 4.8-15.6 8.8-16.1 8.8-0.4 0-3.7-5.4-7.4-12.1-6.3-11.5-6.7-12.1-8.3-11.2-1 0.5-58.1 32.7-127 71.5-68.9 38.7-127.6 72-130.6 73.8-3.1 1.9-12.4 7.2-20.7 11.9-8.3 4.7-16.8 9.4-18.7 10.4-2 0.9-12.3 6.7-23 12.8-10.7 6-27.1 15.2-36.3 20.5-9.2 5.1-48.9 27.5-88.1 49.5-62.6 35.3-71.5 40.1-72.1 38.9-0.4-0.7-47.6-84.3-104.7-185.7-57.3-101.4-103.7-184.6-103.4-184.8 0.3-0.3 28.1-16 61.8-34.9 33.7-19.1 61.3-34.7 61.5-34.9 0-0.1-1.2-2.5-2.9-5.2-1.7-2.7-4.1-6.9-5.3-9.5-1.3-2.6-3.5-7.9-4.9-11.7-1.4-3.9-3.2-10.5-4.1-14.8-1.2-6.1-1.6-10.6-1.6-20.3 0-9.6 0.4-14.2 1.6-20.2 0.9-4.3 2.7-11 4.1-14.9 1.4-3.9 3.6-9.2 5-12 1.4-2.8 4.8-8.5 7.5-12.5 2.8-4.1 8.2-10.7 12.4-14.8 4.2-4.2 10.6-9.6 14.8-12.4 4.1-2.7 10.6-6.5 14.5-8.3 3.9-1.8 9.8-4.2 13.2-5.3 3.5-1 9.6-2.5 13.7-3.2 5.7-1.1 10.3-1.3 21-1.1 8.8 0.3 15.7 0.9 19.4 1.7 3.2 0.8 5.6 1.7 5.6 2.2 0 0.6-1.4 6.7-6 26l5.9 2.3c3.3 1.4 8.7 3.9 12.1 5.9 3.4 1.9 9.1 6.3 12.9 9.8 3.6 3.4 8.6 9 11 12.5 2.3 3.3 5.3 8.5 8.9 16.5l47.6-26.9c26.1-14.7 50.2-28.3 53.4-30 3.2-1.7 9.5-5.2 14.1-7.7 4.5-2.6 8.7-5 9.3-5.4 0.6-0.4 5.1-2.9 9.8-5.5 4.7-2.7 10.1-5.7 12.1-6.8 1.9-1 7.3-4.1 12-6.7 4.7-2.6 10.7-6 13.6-7.6 2.8-1.5 7-3.9 9.1-5.2 2.1-1.3 48.1-27.3 102.1-57.8 54.1-30.5 98.7-55.5 99.1-55.5 0.4 0 47.9 83.4 105.3 185.3zm-212.9-359.5c-0.3 0-43.6 24.3-96.3 54-52.6 29.7-103.1 58.3-112.1 63.4-9 5.2-18.7 10.6-21.4 12.2-2.8 1.5-12.5 6.9-21.5 12.1-9 5.1-18.4 10.4-21 11.7-2.6 1.4-55 30.8-116.4 65.4l-111.7 62.9c3.9 3.5 7.1 5.9 9.7 7.7 2.6 1.8 6.8 4.2 9.4 5.3 2.6 1.2 7.5 3 11.1 4 5.6 1.6 6.4 2 6 3.3-0.2 0.8-2 8.7-4.1 17.4-2.7 11.8-4 15.8-4.8 15.8-0.7 0-4.4-0.9-8.2-2-3.9-1.1-11.1-3.9-16-6.3-5-2.4-11.6-6.1-14.8-8.4-3.3-2.2-9.2-7.2-13.3-11.1l-7.4-7.2-118.1 66.5c3.9 6.7 49.1 86.8 103.1 182.4 53.9 95.6 98.5 173.8 99.1 173.8 0.4 0 40-22.1 87.9-49 47.8-26.9 96.1-54.1 107.2-60.4 11.2-6.3 23.4-13.2 27.3-15.2 3.8-2.1 8.6-4.7 10.5-6 1.9-1.2 96.5-54.6 210.2-118.7 113.6-64.1 206.8-116.8 206.8-117.2 0.1-0.3-45-80.6-100.2-178.5-55.2-97.8-100.7-177.9-101-177.9zm126.3 411c-0.1 0-2.4 1.2-5.2 2.8-2.8 1.7-14.8 8.5-26.7 15.2l-21.6 12.1c6.7 11.9 8.8 15.4 9 15.5 0.2 0 12.3-6.6 26.9-14.8 14.6-8.3 26.5-15.2 26.4-15.5 0-0.1-1.9-3.6-4.4-7.8-2.3-4-4.3-7.4-4.4-7.5zm-521.8-219.7c-1.9-2.6-5.8-6.9-8.8-9.7-2.9-2.8-8.3-6.9-11.9-9.2-3.7-2.2-9.7-5-13.6-6.3-3.9-1.3-10.4-2.7-14.5-3.2-4.1-0.4-9.7-0.7-12.5-0.4-2.8 0.3-8.1 1.2-11.7 2.1-3.6 0.8-9.1 2.6-12 4-3.1 1.4-7.3 3.8-9.4 5.2-2.2 1.5-5.6 4.1-7.7 5.8-2.1 1.7-5.9 5.8-8.5 9-2.6 3.3-6.2 9-8.1 12.8-1.9 3.9-4.2 9.9-5.1 13.3-1.3 5-1.6 8.5-1.6 17.1 0 8.6 0.3 12.3 1.5 16.8 0.9 3.3 2.8 8.3 4.1 11.3 1.3 3 3.9 7.7 5.7 10.4 1.8 2.7 3.4 4.9 3.5 4.9 0.1 0 26.7-15 59.3-33.3 32.5-18.3 59.3-33.4 59.6-33.8 0.3-0.2-0.7-3.1-2.2-6.3-1.5-3.2-4.3-7.9-6.1-10.5zm-40.6-55.3c-1.3-0.2-6.8-0.6-12.1-0.8-7.2-0.4-11.9-0.2-17.9 0.8-4.5 0.7-11.9 2.5-16.4 3.9-4.5 1.6-11 4.3-14.4 6.1-3.4 1.8-9.1 5.3-12.5 7.8-3.4 2.6-8.9 7.3-12.1 10.5-3.1 3.3-7.5 8.5-9.6 11.4-2.1 3.1-5.6 9-7.7 13.3-2.1 4.3-4.7 10.6-5.8 14-1 3.4-2.4 9.4-3 13.3-0.7 3.8-1.3 10.9-1.3 15.5 0 4.8 0.6 11.8 1.3 15.6 0.6 3.9 2 9.9 3 13.3 1.1 3.4 3.7 9.7 5.8 14 2.1 4.3 6.1 10.8 8.7 14.4 2.8 3.7 7.1 8.9 9.9 11.6 2.7 2.6 7.6 6.8 11 9.3 3.3 2.5 8.9 5.9 12.3 7.7 3.4 1.8 8.8 4.2 12.1 5.3 3.2 1.1 6 1.8 6.3 1.4 0.3-0.3 1.3-4.1 2.2-8.4 1-4.3 1.9-8.1 2.1-8.6 0.2-0.3-1.2-1.2-3.1-1.7-1.8-0.7-6.3-2.6-9.9-4.5-3.6-1.8-8.9-5-11.7-7.1-2.7-2.1-7.5-6.4-10.5-9.7-3-3.3-6.9-8.4-8.7-11.3-1.7-3-4.2-7.8-5.6-10.9-1.2-2.9-3.1-8.5-4.1-12.4-1.5-5.7-1.9-9-1.8-18 0-8.4 0.3-12.3 1.6-17.5 1-3.6 2.8-9.4 4.3-12.9 1.4-3.4 4.6-9.2 7-12.8 2.4-3.6 7.1-9.2 10.5-12.5 3.4-3.2 8-7.1 10.5-8.6 2.3-1.6 6.7-4.1 9.9-5.7 3.1-1.5 8.7-3.7 12.4-4.8 3.8-1.1 10.2-2.3 14.3-2.7 4.8-0.6 9.7-0.6 14-0.1 3.6 0.4 6.8 0.7 6.8 0.6 0.1 0 1.2-4.3 2.4-9.3l2.2-9.2zm607.1 303.6c-1.6 0-2.8 0.6-3.9 2.2-0.9 1.1-1.6 2.5-1.6 2.8 0 0.5 0.7 1.8 1.6 3 1.1 1.4 2.3 2.1 3.7 2.2 1.3 0 2.9-0.8 3.9-1.8 1-0.9 1.8-2.6 1.8-3.5 0-1-0.7-2.5-1.6-3.4-0.9-0.8-2.6-1.5-3.9-1.5zm-56 41.4c-0.7 0.7-14 8.5-57.5 33.3l-0.4 4.2c-0.2 3.1-1 5-2.7 7.2-1.2 1.7-3.4 3.5-4.8 4.1-1.4 0.5-4.2 1-6.3 1.1-2.5 0-4.5-0.6-6.4-1.8-1.4-1-3.5-3-4.5-4.6-1.3-2-1.8-3.8-1.8-7 0-3.1 0.5-5 1.8-6.9 1-1.4 2.7-3.4 4-4.3 1.3-0.9 3.8-1.7 6.2-1.9 3.1-0.3 4.9 0 10.6 3l29.1-16.5c15.9-9.2 29.4-16.7 29.8-16.9 0.5 0 1.6 1.2 2.5 2.8 1.7 2.8 1.7 3 0.4 4.2zm-69.1 32c-1.1-0.5-2.3-0.9-2.8-0.9-0.4 0-1.6 0.9-2.7 1.9-1 1.1-2 2.7-2 3.6 0 0.9 1 2.4 2 3.5 1.1 1 2.5 2 3.3 2 0.8 0 2.1-0.7 3.1-1.4 0.9-0.8 1.8-2.1 2.1-3 0.2-0.9 0-2.3-0.3-3.1-0.4-1-1.6-2-2.7-2.6zm-492.6-386.1c-2.3 0.1-6.5 0.1-9.3 0-2.8-0.2-0.9-0.3 4.3-0.3 5.1 0 7.4 0.1 5 0.3zm-83 105c0 3.8 0 5.6-0.2 3.9-0.1-1.7-0.1-4.9 0-7 0.2-2.2 0.2-0.8 0.2 3.1z"/><path fill-rule="evenodd" class="b" d="m772.1 397.5v11.7h-3.9c-3.5 0-3.9-0.1-3.9-3.5l-21.1 1.2v-4.7h6.5c3.5 0 8.3-0.3 10.5-0.6 3.6-0.5 4.1-0.8 4.1-2.4 0-1.5 0.4-1.7 3.9-1.7zm-22.1-100.4c-0.1 0.3-41 57.9-91 127.9-50 70.2-91.2 127.6-91.6 127.6-0.5 0-6-3.8-12.3-8.4-7.3-5.2-11.4-8.7-11.2-9.3 0.2-0.5 41.3-58.2 91.2-128.1 68.2-95.6 90.9-127 91.8-126.6 0.6 0.3 6.1 4.1 12.2 8.4 6.1 4.4 11 8.2 10.9 8.5zm-21.2-5.7c-0.5-0.3-2.6 1.9-5.4 5.8-4.2 5.9-4.5 6.6-3.5 8.2 1 1.6 1 1.9-0.3 3.1-1.1 1-1.6 1.2-2.7 0.5-1.1-0.8-1.7-0.3-3.9 2.7-1.4 2-2.5 3.8-2.5 4.2 0 0.3 1.2 1.3 2.7 2.1l2.7 1.6c-2.1 3.7-3.3 5.4-4 6.1-1.3 1.2-1.6 1.1-4.1-0.8l-2.8-2.2c-5 6.9-5.2 7.6-4.3 8.6 0.7 0.6 1.1 1.5 1.1 1.9 0 0.5-0.4 1.4-1.1 2.2-1 1.1-1.4 1.2-2.6 0.4-1.3-0.9-1.7-0.8-3.1 0.9-0.9 1.1-2.1 2.8-2.6 3.8-0.9 1.7-0.8 2 1.7 4l2.7 2.2c-3.3 5-4.5 6.4-4.9 6.4-0.3 0.1-1.5-0.6-2.7-1.6-1.2-0.8-2.4-1.5-2.9-1.5-0.5 0-1.9 1.5-3.1 3.5-2.2 3.3-2.3 3.6-1 4.6 1.3 1 1.3 1.2 0 3.1-1.2 1.7-1.6 1.9-3.1 1.2-1-0.5-1.9-0.6-2.2-0.2-0.3 0.3-1.4 2-2.8 3.7-2.1 3-2.2 3.1-0.7 4 0.9 0.6 2.3 1.6 3.2 2.1 1.5 1.2 1.5 1.2-0.8 4.4-1.3 1.8-2.6 3.3-3 3.2-0.3 0-1.7-0.9-3.1-1.9l-2.5-1.9c-5.3 7.6-5.4 7.9-4.1 8.9 1.2 1.1 1.3 1.3 0.2 3.1-0.6 1.1-1.5 1.9-1.9 1.9-0.5 0-1-0.3-1.2-0.7-0.3-0.4-0.7-0.8-1.2-0.8-0.5 0-1.9 1.6-3.3 3.7l-2.4 3.7c2.9 2.2 4.3 3.1 4.9 3.5 1 0.5 0.7 1.2-1.5 4.2l-2.8 3.6c-3.9-3.1-5.3-3.9-5.6-3.9-0.4 0-1.8 1.7-3.2 3.7-2 3.1-2.2 3.8-1.3 4.3 0.6 0.3 1.2 1 1.2 1.6 0 0.4-0.6 1.6-1.2 2.5-0.9 1.2-1.3 1.4-2.3 0.6-0.7-0.6-1.4-0.9-1.8-0.7-0.3 0.1-1.7 1.9-3.1 3.7l-2.4 3.4c4.1 3 5.4 4.1 5.3 4.5 0 0.3-0.8 1.8-1.8 3.3-0.9 1.5-2 2.7-2.5 2.7-0.4 0-1.8-0.7-3.1-1.6-1.2-0.8-2.5-1.5-2.7-1.5-0.3 0-1.6 1.6-3.1 3.6-2.4 3.6-2.5 3.9-1.1 4.7 1.3 1 1.4 1.2 0.3 3-0.6 1.1-1.7 1.8-2.2 1.5-0.5-0.2-1.4-0.5-2-0.7-0.4-0.3-1.8 0.9-2.8 2.5-1.1 1.6-2.2 3.3-2.6 3.9-0.3 0.7 0.4 1.6 2.2 2.8 1.4 0.9 2.7 1.9 2.7 2.3 0 0.3-0.9 1.9-2.1 3.5-1.2 1.6-2.2 3-2.3 3.1-0.2 0.1-1.5-0.7-2.9-1.8-1.3-1-2.7-1.9-3.1-1.9-0.3 0-1.6 1.5-2.9 3.5-2.1 3.2-2.2 3.7-1.1 4.9 1.1 1.2 1.1 1.5-0.3 3.3-1.4 1.7-1.6 1.8-2.8 0.8-0.7-0.7-1.4-1.1-1.5-0.8-0.2 0.2-1.4 1.9-2.8 3.9l-2.5 3.5 5.7 4.7-4.8 6.6c-4.5-3-6-3.8-6.2-3.6-0.3 0.2-1.6 1.9-3 3.9-2.4 3.5-2.4 3.6-0.9 4.6 1.4 0.9 1.4 1 0.1 2.8-1.1 1.5-1.5 1.6-2.9 0.9-1.3-0.7-1.8-0.4-4.1 2.7-1.3 1.9-2.5 3.7-2.5 4.1 0 0.3 1.3 1.3 2.7 2.4l2.8 1.7c-3.9 5.7-5.1 6.8-5.7 6.4-0.5-0.2-2-1.2-3.2-2.1-1.9-1.4-2.4-1.4-2.9-0.4-0.3 0.6-1.5 2.4-2.6 3.9-1.8 2.4-1.9 2.9-0.8 4.1 0.8 0.9 0.9 1.7 0.3 2.9-0.4 0.8-1.2 1.5-1.7 1.5-0.5 0-1.3-0.3-1.8-0.7-0.5-0.7-2.2 1.1-5.7 5.7l-4.8 6.7c8.7 6 11.3 7.7 11.4 7.6 0-0.1 38.7-54.3 85.9-120.6 47.1-66.2 86-120.8 86.2-121.4 0.4-0.5-1.1-2.1-3.9-4.2-2.5-1.8-4.8-3.5-5.3-3.9zm-48.2-117.7c-0.1 0.5-1.6 1.7-3.4 2.5-3.4 1.5-3.4 1.5-3.8 0-0.2-0.9-0.7-1.6-1.1-1.6-0.5 0-4.9 1.8-9.8 3.9-4.9 2.2-9.1 3.8-9.3 3.7-0.1-0.1-0.6-1-1.1-1.9-0.8-1.6-0.7-1.9 1.7-2.9 1.3-0.6 5.4-2.3 9.1-4 3.7-1.5 6.9-3 7.3-3.2 0.3-0.1 0.2-1-0.3-1.8-0.7-1.4-0.3-1.8 2.9-3.3 2-1 3.8-1.5 3.9-1 0.2 0.4 1.1 2.5 2.1 4.7 1.1 2.1 1.9 4.3 1.8 4.9zm-1.2 72.1l-1.6 1.7c-1.4 1.4-1.7 1.4-2.6 0.4-0.7-0.7-3.9-4.2-7.3-8.1-5.5-6-6.3-6.6-7.3-5.6-1 1-1.5 0.9-3.7-1.4-1.4-1.3-2.6-2.7-2.6-3 0-0.4 1.7-2.2 3.8-4.1 2-1.9 4.1-3.6 4.7-3.6 0.4 0 1.8 1.3 3.1 2.9 1.9 2.5 2 2.8 0.8 4-1.3 1.3-0.9 1.8 5.7 9.1zm-54.4 75c-4.1 7.2-7.7 13.5-8 14-0.3 0.4-9.9 2.5-21.5 4.6-11.5 2.1-21 3.7-21.1 3.5-0.2-0.2-1.3-5.6-2.5-11.9-1.3-6.3-2-11.6-1.8-11.8 0.1-0.3 3.6-1 7.6-1.8 5.3-1 7.2-1.7 7.2-2.6-0.1-0.6-3.2-18.2-7.1-39-3.8-20.7-6.9-38.2-7-38.9 0-0.9 2.8-1.7 11.9-3.4 6.6-1.2 12-2.1 12.1-1.9 0.1 0.1 3.5 18.1 7.6 39.9 4.1 22 7.4 39.8 7.5 39.8 0 0 4.2-0.8 9.5-1.7 5.2-0.9 10.3-1.8 11.2-1.8 1.6-0.2 0.9 1.4-5.6 13zm-26.8 1.2c-9.7 1.7-17.9 3.4-18.1 3.6-0.3 0.4-0.3 2 0 3.8 0.2 1.7 0.7 3.4 0.9 3.7 0.2 0.3 6.5-0.5 14-1.8 7.5-1.4 14.4-2.8 15.3-3.2 0.8-0.4 2.6-2.6 3.9-5 1.4-2.5 2.3-4.5 2-4.4-0.3 0-8.4 1.5-18 3.3zm-3.4-10.3c-0.8 0-1.3 0.5-1.3 1.2 0 0.9 0.6 1.1 3.3 0.7 1.8-0.3 3.5-0.7 3.9-0.8 0.3-0.2 0.6-0.7 0.6-1.2q0-0.9-2.6-0.4c-1.4 0.3-3.1 0.5-3.9 0.5zm-2.9-5.8c-0.2 0.2-0.2 0.6 0 0.7 0.2 0.3 2.1 0.2 4.2-0.1 2.1-0.3 3.9-1 4.1-1.4 0.1-0.5-1.2-0.6-3.8-0.1-2.3 0.3-4.3 0.8-4.5 0.9zm-3.4-64.9c-0.1-0.1-1.9 0.1-4 0.5-2.2 0.4-4 0.9-4.1 1.1-0.2 0 2.2 13.1 5 28.9l5.4 28.9c3.5-0.3 5.4-0.6 6.3-0.8 1.1-0.2 1.8-0.9 1.8-1.7-0.1-0.8-2.5-13.8-5.3-29.1-2.8-15.2-5.1-27.7-5.1-27.8zm-54.3 139.8c0 0-0.7 4.1-1.5 8.9-0.9 4.9-1.6 9.5-1.6 10.3 0 0.9 0.5 1.3 1.6 1.3 1.4 0 1.4 0.4 1 3.8-0.3 2-0.5 3.7-0.6 3.9-0.1 0-2.6-0.3-5.8-0.8-3.1-0.6-5.6-1.3-5.6-1.8 0-0.4 0.3-2.1 0.6-3.7 0.4-2.4 0.9-2.9 2.3-2.9 1 0 1.9-0.6 2.1-1.4 0.2-0.7 1-5.3 1.7-10.1 1.4-7.9 1.7-8.8 3.1-8.9 0.9-0.1 1.9 0.2 2.2 0.5 0.3 0.4 0.5 0.8 0.5 0.9zm-170.9 306c0 0.4-2.9 1.6-6.4 2.9-3.5 1.1-12.8 4.4-20.6 7.1-11.2 3.9-14.1 5.3-13.8 6.2 0.2 0.7 0.6 1.9 0.7 2.7 0.4 1.4-0.7 2-8.4 4.6-4.8 1.6-9.2 3.2-9.7 3.4-0.6 0.1-1.3-1-1.7-2.5-0.8-2.6-1-2.7-2.8-1.7-1.1 0.5-2 1.2-2 1.5 0 0.3 0.4 1.5 0.9 2.5 0.7 2 0.5 2-5.3 4.1-3.4 1.1-7.8 2.6-13.4 4.5l-1-2.4c-0.5-1.2-0.9-2.4-1-2.5 0 0-9 3-19.9 6.8-11 3.9-20.3 7-20.9 7-0.5 0-1.2-0.6-1.4-1.3-0.2-0.8-11.5-32.6-25-70.9-13.4-38.3-24.5-69.9-24.5-70.2 0-0.3 28.3-10.6 62.8-22.8 34.5-12.2 62.9-22 63.1-21.8 0.1 0.2 11.5 32.3 25.2 71.3 13.8 39 25.1 71.2 25.1 71.5zm-32.4-66.4c-0.6-0.9-2.4-0.4-10.8 2.5-8.2 2.9-10.1 3.9-10 5 0 0.8 0.3 2.5 0.6 3.8 0.5 2.1 0.4 2.4-2.4 3.3-1.7 0.5-3.5 0.9-4 0.9-0.5 0-1.5-1.4-2.1-3.1-0.9-2.3-1.6-2.9-2.6-2.7-0.8 0.2-12.1 4.2-25.1 8.8-20.6 7.3-23.8 8.6-23.7 10 0 0.8 0.3 2.4 0.6 3.4 0.5 1.8 0.2 2.1-3 3.4-2 0.7-3.9 1.1-4.3 0.9-0.5-0.2-1-1.4-1.2-2.7-0.2-1.3-0.8-2.5-1.2-2.8-0.4-0.1-5.5 1.4-11.2 3.4l-10.4 3.7c3.5 9.6 8.5 23.7 13.3 37.4 4.8 13.7 9.1 24.9 9.6 24.9 0.5 0 25.3-8.6 55.1-19.1 40.1-14 54.3-19.4 54.3-20.2-0.1-0.7-4.7-14.3-10.4-30.4-5.8-16.1-10.7-29.7-11.1-30.4zm-14.7-7.3c-5.6 2-10.3 3.8-10.5 3.9-0.2 0.2-0.1 0.6 0.4 0.9 0.4 0.4 5-0.8 10.8-2.9 5.6-2 10.2-4 10.4-4.5 0.2-0.4 0-0.9-0.3-0.9-0.4-0.1-5.2 1.5-10.8 3.5zm-8.5-58.8c-12.8 4.6-24.2 8.6-33.7 12l-17.4 6.1c5.8 16.4 9.6 26.8 12.1 33.8 2.5 7 4.9 12.7 5.2 12.7 0.3-0.1 5.1-1.7 10.5-3.6 5.5-2 10.1-3.7 10.1-3.7 0.1-0.1-0.3-1.7-1-3.5l-1.1-3.3c5.7-1.8 7.7-2.4 8-2.4 0.3 0 1 1.4 1.6 3.2 0.5 1.7 1.3 3 1.8 2.8 0.3-0.1 5.2-1.7 10.6-3.5 5.5-1.7 9.9-3.4 9.9-3.8 0-0.3-3.8-11-8.4-23.8zm-49.7 79.4c-6.3 2.2-11.5 4.3-11.5 4.7 0 0.5 0.5 0.8 1 0.8 0.6 0 12.1-4 25.7-8.7 14.2-5.1 24.8-9.2 24.8-9.8 0-0.6-5.3 0.9-14.2 4.1-7.9 2.7-19.4 6.7-25.8 8.9zm-9.3-58.2c-0.2 0-11.3 3.8-24.8 8.5-13.5 4.7-25 8.8-25.4 9.1-0.7 0.4 1.5 7.5 7.2 23.5 4.5 12.6 8.2 23.1 8.3 23.2 0.1 0.2 4.9-1.4 10.7-3.4 5.8-2 10.6-3.7 10.7-3.7 0.1 0-0.3-1.7-1-3.6-0.6-2-1.1-3.5-0.9-3.6 0 0 1.8-0.6 3.6-1.4 2-0.7 3.8-1 4.1-0.7 0.2 0.3 0.9 1.9 1.3 3.6l0.9 2.9c16-5.6 20.9-7.4 21.2-7.8 0.3-0.2-3.1-10.8-7.7-23.4-4.4-12.6-8.1-23.1-8.2-23.2zm-21.1 68.9c-5.7 2-10.4 3.8-10.5 3.9-0.2 0.2 0 0.7 0.1 1 0.3 0.5 4.7-0.5 11-2.5 8.2-2.6 10.5-3.6 10.5-4.7 0-0.7-0.2-1.3-0.4-1.3-0.1 0-5 1.6-10.7 3.6zm123.4-266c0 0.5-2.7 12.2-5.8 26.2-3.2 13.9-6 25.4-6.1 25.6-0.1 0.1-15.4-3.2-34.1-7.4-18.7-4.2-34.1-7.7-34.3-7.8-0.2-0.2 2.2-11.7 5.4-25.8 3.3-13.9 6.1-25.7 6.4-26.2 0.4-0.6 10.5 1.4 34.6 6.8 18.8 4.4 33.9 8.1 33.9 8.6zm-35.8-0.5c-23.1-5.1-26.3-5.7-26.7-4.6-0.4 0.7-2.2 8.5-4.2 17.3-1.9 8.8-3.6 16.4-3.7 17-0.1 0.9 6.1 2.6 25.9 7.1 14.5 3.3 26.3 6 26.3 6 0.1-0.1 1.8-7.1 3.8-15.7 2-8.6 3.9-16.8 4.2-18.5l0.6-2.8zm-33.6 126.7c0 1.1-0.5 3.1-1.1 4.3-0.5 1.1-1.9 2.5-3.1 3.1-1.1 0.5-3.3 1-4.8 1-1.9 0-3.3-0.7-5-2.3-1.9-1.8-2.4-2.9-2.4-5.7 0.1-2 0.6-4 1.4-5 0.7-1 2.1-2.1 3.1-2.5 1-0.5 2.8-0.9 3.9-0.9 1.2 0 3 0.6 4 1.3 1 0.6 2.4 1.9 2.9 2.9 0.6 0.9 1.1 2.6 1.1 3.8zm-8.1-3.5c-1 0-2 0.6-2.6 1.1-0.5 0.6-1 1.7-1 2.6 0 0.9 0.5 2 1 2.6 0.6 0.4 1.6 0.9 2.5 0.9 0.9 0 2-0.5 2.6-1 0.5-0.5 0.9-1.7 0.9-2.6 0-0.8-0.4-2.1-0.9-2.6-0.5-0.6-1.7-1.1-2.5-1zm-18-26.3c-0.2 1.7-1.2 3.4-2.7 4.8-1.8 1.6-3.2 2.2-5.5 2.2-2.4 0-3.7-0.5-5.5-2.3-1.9-1.9-2.3-2.9-2.3-5.9 0-2.9 0.4-3.9 2.3-5.8 1.8-1.8 3.1-2.4 5.3-2.4 1.7 0 3.8 0.6 5.2 1.6 1.1 0.9 2.5 2.3 2.9 3.3 0.3 1 0.5 2.9 0.3 4.5zm-8.1-4.8c-0.7 0-1.7 0.5-2.2 1.1-0.6 0.5-1 1.7-1 2.5 0 0.9 0.4 2.1 1 2.6 0.5 0.5 1.7 0.9 2.7 0.9 0.9 0 2.1-0.7 2.5-1.5 0.5-0.9 0.8-2 0.8-2.4 0-0.4-0.6-1.2-1.3-1.9-0.6-0.8-1.8-1.3-2.5-1.3zm3 24.4c0 2.1-0.6 3.6-2.3 5.5-1.9 2.2-2.8 2.6-5.9 2.6-3.1 0-4-0.4-5.9-2.6-1.7-1.8-2.3-3.4-2.3-5.5 0-1.7 0.6-3.7 1.6-5 0.8-1.2 2.8-2.5 4.3-2.9 2-0.6 3.4-0.6 5.3 0.2 1.4 0.6 3.1 1.9 3.9 2.9 0.7 1.1 1.3 3.2 1.3 4.8zm-9.7-3c-0.9 0.6-1.7 1.7-1.8 2.6-0.2 0.7 0.3 2 0.9 2.8 0.7 0.8 1.8 1.4 2.4 1.4 0.6 0 1.7-0.6 2.4-1.2 0.6-0.7 1.1-1.9 1.1-2.7 0-0.9-0.8-2-1.7-2.7-1.5-1.1-2-1.1-3.3-0.2zm-23.8 22.7c0 2.9-0.4 4-2.4 5.9-1.8 1.8-3 2.3-5.4 2.3-2.4 0-3.8-0.6-5.7-2.3-2.1-1.9-2.5-2.8-2.5-5.8 0-3.2 0.4-4 2.5-6 2-1.8 3.2-2.2 5.7-2.2 2.5 0.1 3.8 0.6 5.5 2.3 1.9 1.8 2.3 2.8 2.3 5.8zm-8.4-3.6c-0.9 0.1-2.1 0.9-2.6 1.7-0.3 0.9-0.6 2.3-0.3 3.1 0.2 0.9 1.2 1.7 2.3 2 1.1 0.1 2.5-0.1 3.2-0.6 0.6-0.6 1.2-1.8 1.2-2.6-0.1-0.9-0.5-2.1-1.1-2.7-0.4-0.6-1.7-1.1-2.7-0.9zm-47.4-35.2c-0.2 2.3-1.2 5.8-2.3 7.8-1 2.1-3.3 5.1-5.2 6.8-1.9 1.7-4.4 3.5-5.8 4.1-1.2 0.4-4 1.1-6.2 1.5-2.1 0.2-5.3 0.1-7-0.4-1.7-0.4-3.7-0.9-4.3-1.1-0.9-0.4-2.2 1-4.7 5-1.9 2.9-3.6 5.4-3.9 5.4-0.2-0.1-1.1-0.6-1.9-1.2-1.5-1-1.5-1.2 1.8-6.2 1.8-2.8 3.2-5.4 3.2-5.7 0.1-0.3-1-1.6-2.3-2.9-1.3-1.3-3.1-4.1-4.1-6.2-1.1-2.7-1.6-5.5-1.6-9 0-3.3 0.5-6.3 1.6-8.5 0.8-2 2.7-4.9 4.2-6.6 1.5-1.6 4.4-3.8 6.5-4.8 3.1-1.5 5.2-2 9.6-2 3.3 0 6.9 0.6 8.6 1.3 1.6 0.7 4.1 2 5.5 3 1.4 1 3.5 3.4 4.6 5.2 1.2 1.8 2.6 5 3.2 6.9 0.4 2 0.7 5.4 0.5 7.6zm-11.9-11.7c-0.7-0.9-2.8-2.2-4.5-3-1.7-0.8-4.3-1.4-5.8-1.4-1.5 0-4.2 0.6-5.9 1.4-1.7 0.8-3.9 2.4-4.9 3.7-0.9 1.2-2.1 3.5-2.6 5-0.4 1.5-0.7 4.3-0.4 6.3 0.3 2.2 1.3 4.4 2.7 6.2 1.2 1.5 3.4 3.3 4.9 4.1 1.5 0.7 4.1 1.3 6 1.3 1.8 0.1 4.3-0.3 5.5-0.8 1.1-0.5 3.1-1.8 4.3-3 1.3-1 2.8-3.1 3.3-4.6 0.6-1.4 1.1-4 1.1-5.8 0-1.8-0.5-4.4-1.2-5.6-0.7-1.3-1.8-3-2.5-3.8zm187.4-75.9c-0.2 0.5-1.7 7-3.5 14.6-1.7 7.5-3.2 13.7-3.3 13.8-0.2 0.2-1.9-0.2-3.9-0.5-3.5-0.8-3.7-1-3.3-3 0.3-1.2 1.8-7.7 6.3-27.1l2.3 0.2c1.2 0.1 3 0.3 4 0.5 1 0.3 1.6 0.9 1.4 1.5zm-15.2-1.9c0 1.1-0.6 2.7-1.4 3.5-0.9 0.9-2.1 1.3-3.3 1-1.1-0.2-2.3-1.2-2.8-2.2-0.6-1.1-0.6-2.5-0.3-3.5 0.4-1 1.5-2 2.5-2.2 1-0.3 2.5-0.1 3.5 0.3 1.1 0.7 1.8 1.7 1.8 3.1zm-2.4 11.4c0 1.1-0.5 2.5-1.1 3.2-0.7 0.6-2.1 1.1-3.2 1.1-1.2 0-2.5-0.8-3.3-2-1.1-1.6-1.2-2.3-0.4-3.9 0.5-1 1.7-2 2.6-2.3 0.8-0.2 2.4 0.2 3.5 0.8 1.2 0.8 1.9 1.9 1.9 3.1zm-2.3 11.4c0 0.8-0.6 2-1.2 2.7-0.6 0.6-2.2 1.1-3.5 1.1-1.7 0-2.6-0.5-3.3-1.9-0.8-1.6-0.8-2.3 0-3.9 0.7-1.4 1.6-2 3.2-2 1.3 0 2.9 0.5 3.5 1.2 0.7 0.7 1.3 2 1.3 2.8zm-6.2-25.2c0 0.7-0.4 2-1 2.8-0.6 0.9-1.9 1.5-3.3 1.5-1.4 0-2.8-0.6-3.4-1.5-0.5-0.8-0.9-2.1-0.9-2.8 0-0.7 0.5-1.9 1.1-2.5 0.7-0.7 2.1-1.2 3.1-1.3 1.1 0 2.5 0.6 3.1 1.3 0.7 0.7 1.3 1.8 1.3 2.5zm-2.4 11.7c0 0.5-0.7 1.7-1.5 2.5-0.9 0.9-2.1 1.6-2.6 1.6-0.5 0-1.7-0.6-2.8-1.2-0.9-0.6-1.7-1.9-1.7-2.9 0-1 0.7-2.4 1.4-3.2 0.7-0.7 2.1-1.4 3.1-1.4 1 0 2.2 0.7 2.9 1.7 0.7 1.1 1.2 2.4 1.2 2.9zm-3.3 11.3c-0.1 1.3-0.8 2.8-1.5 3.2-1 0.7-2.1 0.7-3.5 0.1-1.7-0.6-2.3-1.4-2.5-3.3 0-2 0.3-2.8 1.8-3.7 1.8-1 2.2-1 4 0.1 1.6 0.9 2 1.7 1.7 3.6zm-5.3-25.5c0 0.4-0.5 1.5-1.1 2.5-0.7 1.1-2 1.8-3.2 1.8-1 0-2.5-0.6-3.1-1.3-0.6-0.6-1.1-2-1.1-3.1 0-1.1 0.7-2.3 1.7-3 1.3-1 2.3-1.1 3.8-0.5 1.2 0.5 2.3 1.2 2.5 1.8 0.2 0.5 0.5 1.4 0.5 1.8zm-3.1 11.4c0 1.5-0.6 2.6-1.9 3.4-1.8 1-2.2 1-3.9 0-1.4-0.8-2-1.9-2-3.3 0-1.2 0.4-2.6 1-3.2 0.5-0.5 1.8-1 2.9-1.1 1.2-0.1 2.4 0.3 3 1 0.5 0.6 0.9 2.1 0.9 3.2zm-2.3 11.1c0.1 0.9-0.6 2.3-1.4 3-1 1-2 1.4-3.5 1-1.2-0.2-2.5-1.2-3-2.1-0.6-1.4-0.6-2.3 0-3.5 0.5-1.1 1.8-2.1 3-2.3q2.2-0.5 3.5 0.9c0.7 0.7 1.4 2.1 1.4 3zm188.2 207.4c-0.7-1.3-2.2-3.3-3.3-4.5-1.1-1.3-3.4-2.9-5-3.7-1.7-0.9-4.5-1.5-6.6-1.5-2 0-5.1 0.6-6.8 1.4-1.7 0.8-4.1 2.4-5.3 3.7-1.2 1.2-2.7 3.5-3.4 5-0.6 1.5-1.1 3.9-1.1 5.3 0 2.2-1.3 3.8-13.2 15.2-7.2 6.9-13 13-12.8 13.4 0.2 0.4-1.1 2.2-2.8 3.9-2.8 2.9-3 3.2-1.9 4.7 1 1.4 0.9 1.7-0.6 3.1-0.9 0.9-2.3 3-3.1 4.9-0.9 2.1-1.3 4.2-1 5.8 0.3 1.4 1.3 3.7 2.4 5.1 1 1.4 3 3.2 4.4 4.1 1.4 0.8 3.6 1.5 5 1.5 1.4 0 3.4-0.3 4.3-0.7 1-0.3 6-4.4 11.1-9 5.2-4.7 12-10.8 15.3-13.8 4-3.7 6.6-5.4 8.5-5.8 1.5-0.2 3.5-0.1 4.5 0.4 1 0.5 2.5 2 3.3 3.4 0.9 1.4 1.6 3.6 1.6 4.9 0 1.8-1 3.2-4.3 6.4-3.7 3.6-4.1 4.2-3.1 5.1 1 0.8 1.7 0.6 4-1.4 1.6-1.3 3.5-3.2 4.3-4.3 0.8-1 1.7-3.3 2-5 0.3-2.3 0-4-1.1-6.2-0.8-1.7-2.5-3.8-3.8-4.6-1.2-0.9-3.7-1.8-5.4-2-2-0.2-4.1 0.2-5.9 1.1-1.5 0.7-5.7 4-9.3 7.3-3.6 3.2-10.2 9.2-14.6 13.1-7.3 6.6-8.3 7.2-11.2 7.2-2.3 0-3.7-0.5-5.5-2.1-1.6-1.5-2.5-3.1-2.8-5.3-0.3-2.5-0.1-3.5 1.6-5.6 1.1-1.4 2.6-2.6 3.2-2.6 0.7 0 1.7 0.8 2.3 1.8l1.1 1.8c5.6-4.6 7.5-5.7 7.9-5.5 0.5 0.2 3.9-2.2 7.7-5.3 3.8-3.1 10-8.2 13.9-11.3 6.5-5.4 7.1-5.8 11.2-6 2.3-0.1 5.3-0.7 6.6-1.4 1.3-0.7 3.3-2.2 4.4-3.4 1.1-1.2 2.6-3.4 3.3-4.8 0.8-1.4 1.3-4.3 1.3-7-0.1-2.5-0.6-5.5-1.3-6.8zm-5.2 0.3q1.8 2.7 1.8 6.3c0 1.9-0.4 4.2-1 5.1-1.1 1.5-1.2 1.4-4.1-1.9-1.7-1.9-5.1-5.8-7.6-8.6-4-4.4-4.4-5.2-3.2-5.6 0.8-0.3 2.7-0.6 4.2-0.6 1.5 0 4 0.6 5.5 1.3 1.4 0.8 3.5 2.6 4.4 4zm-4.5 16.8l-2.1 1c-1.2 0.5-2.7 1-3.5 1-0.7 0-3.6-2.5-6.4-5.6-3.7-4.3-5-6.3-5.1-8 0-1.3 0.4-3 1-3.8 0.9-1.2 1.7-0.6 8.5 7zm-13.2 3.9l-1.9 1.6c-1 0.9-6 5-11.1 9.2-5 4.1-9.5 7.5-10 7.5-0.4 0-1.8-1.2-5.4-5.5l10.3-10.1c5.7-5.5 10.7-10.1 11.1-10.2 0.4-0.1 2.1 1.6 3.9 3.7zm-30.2 19.7c1.3 1.2 1.3 1.5 0.2 2.5-1.1 1.1-1.3 1.1-2.6-0.1-1.2-1.2-1.2-1.4-0.2-2.5 1.1-1.2 1.3-1.1 2.6 0.1zm54.6-35.5c-0.2 0.7-0.2 1.8 0 2.3 0.3 0.6 0.4 0 0.4-1.3 0-1.2-0.2-1.7-0.4-1zm-5.1-10.7l-1.8-1.5c2.5 2.8 3.3 3.5 3.4 3.5 0.1 0 0.2-0.1 0.2-0.3 0-0.1-0.8-0.9-1.8-1.7zm-0.4 47.4c-0.3 0.3-0.3 0.8 0 1.1 0.3 0.3 0.6 0 0.6-0.6 0-0.6-0.2-0.8-0.6-0.5zm0 7c-0.3 0.3-0.3 0.8 0 1.1 0.3 0.3 0.6 0.1 0.6-0.6 0-0.6-0.2-0.8-0.6-0.5zm-1.1-9.3q-1-0.6-0.4 0.4c0.3 0.5 0.7 0.9 0.9 0.9 0.2 0 0.4-0.1 0.4-0.3 0-0.2-0.4-0.6-0.9-1zm-1.4 14.2c-0.9 0.9-1.6 1.7-1.6 1.9 0 0.3 0.7-0.1 1.6-0.8 0.8-0.7 1.5-1.5 1.6-1.9 0-0.4-0.7-0.1-1.6 0.8zm-0.6-9.6c-0.3 0.4-0.3 0.9 0 1.2 0.3 0.2 0.6 0 0.6-0.6 0-0.6-0.3-0.9-0.6-0.6zm0.1 3c-0.2 0.6-0.2 1.3 0 1.5 0.3 0.1 0.4-0.4 0.4-1.2 0-1.1-0.2-1.2-0.4-0.3zm-2-11.5q-1-0.6-0.4 0.4c0.3 0.5 0.7 0.9 0.9 0.9 0.2 0 0.4-0.1 0.4-0.3 0-0.2-0.4-0.6-0.9-1zm-0.8 4l-1.8-1.5c2.4 2.8 3.2 3.6 3.3 3.5 0.1 0 0.2-0.1 0.2-0.3 0-0.1-0.8-0.9-1.7-1.7zm-1.4 13.3c-0.9 0.9-1.6 1.8-1.6 2 0 0.2 0.7-0.2 1.6-0.9 0.8-0.7 1.6-1.5 1.6-1.9 0-0.4-0.7 0-1.6 0.8zm0-18.3c-0.6 0-0.9 0.2-0.6 0.6 0.3 0.3 0.9 0.3 1.2 0 0.3-0.4 0-0.6-0.6-0.6zm-0.5 23.5c-1 0.6-1.6 1.2-1.4 1.4 0.2 0.3 1-0.2 1.7-1 1.3-1.4 1.3-1.4-0.3-0.4zm-1.5-20.3c-0.8 0-1.1 0.1-0.5 0.2 0.6 0.1 1.3 0.1 1.6-0.1 0.3-0.1-0.2-0.2-1.1-0.1zm-2.7-0.1c-0.6 0-0.9 0.2-0.6 0.6 0.4 0.3 0.9 0.3 1.2 0 0.3-0.4 0.1-0.6-0.6-0.6zm-4.7-12.9c-0.4 0.2-0.7 0.6-0.7 0.8 0 0.2 0.3 0.2 0.7 0 0.5-0.2 0.8-0.6 0.8-0.8 0-0.3-0.3-0.3-0.8 0zm-3.1 17.9c-0.4 0.3-0.8 0.6-0.8 0.9 0 0.2 0.4 0.2 0.8 0 0.4-0.3 0.8-0.6 0.8-0.9 0-0.3-0.4-0.3-0.8 0zm-0.2-15.2c-0.1 0-0.7 0.6-1.3 1.4-1.1 1.3-1.1 1.3 0.2 0.6 0.7-0.4 1.3-1 1.3-1.4 0-0.3-0.1-0.5-0.2-0.6zm-2.1 17.5c-0.4 0.3-0.8 0.7-0.8 0.9 0 0.2 0.4 0.2 0.8 0 0.4-0.2 0.8-0.6 0.8-0.9 0-0.2-0.4-0.2-0.8 0zm-1-50.2c-0.1 0-0.7 0.6-1.4 1.4-1 1.2-1 1.3 0.2 0.6 0.8-0.5 1.4-1.1 1.4-1.4 0-0.3-0.1-0.6-0.2-0.6zm-0.6 46.3c-0.4 0.3-0.8 0.7-0.8 0.9 0 0.2 0.4 0.2 0.8 0 0.4-0.2 0.8-0.6 0.8-0.9 0-0.2-0.4-0.2-0.8 0zm-1-9.7c-0.1 0-0.7 0.6-1.3 1.4-1.1 1.3-1.1 1.3 0.2 0.6 0.7-0.4 1.3-1.1 1.3-1.4 0-0.3 0-0.5-0.2-0.6zm-3.4-24.9c-0.2 0.7-0.2 1.4 0.1 1.5 0.2 0.2 0.4-0.3 0.4-1.1-0.1-1.1-0.2-1.2-0.5-0.4zm-0.3 44c-0.4 0.3-0.7 0.6-0.7 0.9 0 0.2 0.3 0.2 0.7 0 0.5-0.3 0.8-0.6 0.8-0.9 0-0.3-0.3-0.3-0.8 0zm-2.5-2.7c-0.1 0-0.7 0.6-1.4 1.4-1 1.3-1 1.3 0.2 0.6 0.8-0.5 1.4-1.1 1.4-1.4 0-0.3-0.1-0.6-0.2-0.6zm-3.9 8.6c-0.1 0-0.7 0.6-1.4 1.4-1 1.2-1 1.3 0.2 0.5 0.8-0.4 1.4-1 1.4-1.3 0-0.3-0.1-0.6-0.2-0.6zm-5.6-36.6c-2.8 2.8-5.1 5.2-5.1 5.4 0 0.3 2.3-1.7 5-4.4 2.8-2.6 5.1-5.1 5.1-5.4 0-0.4-2.3 1.6-5 4.4zm1.1 35.4c-0.4 0.2-0.8 0.6-0.8 0.8 0 0.2 0.4 0.2 0.8 0 0.5-0.2 0.8-0.6 0.8-0.8 0-0.3-0.3-0.3-0.8 0zm-4.7 9.3c-0.4 0.3-0.7 0.7-0.7 0.9 0 0.2 0.3 0.2 0.7 0 0.5-0.2 0.8-0.6 0.8-0.9 0-0.2-0.3-0.2-0.8 0zm-3.9-16.3c-0.4 0.2-0.7 0.6-0.7 0.8 0 0.2 0.3 0.2 0.7 0 0.5-0.2 0.8-0.6 0.8-0.8 0-0.3-0.3-0.3-0.8 0zm-10.3 10.8q-1-0.6-0.4 0.3c0.3 0.6 0.8 1 1 1 0.2 0 0.4-0.1 0.4-0.3 0-0.2-0.5-0.7-1-1zm-2.3 2.9c-1.3-1.5-2-2-1.6-1.2 0.5 0.9 1.6 2.2 2.5 3 0.9 0.8 1.6 1.4 1.6 1.2 0-0.2-1.1-1.5-2.5-3zm-2.7-5.3c-0.4 0.3-0.4 0.8-0.1 1.1 0.4 0.3 0.6 0 0.6-0.6 0.1-0.6-0.2-0.8-0.5-0.5zm64-11.3c-0.2 0.6-0.2 1.4 0 2 0.2 0.5 0.4 0.1 0.4-1 0-1.1-0.2-1.5-0.4-1zm-3.2-7.7c-1.3-1-1.3-0.9-0.2 0.3 0.6 0.8 1.2 1.4 1.3 1.4 0.1 0 0.2-0.2 0.2-0.3 0-0.2-0.6-0.8-1.3-1.4zm-2.6 12.9c-0.4 0.3-0.7 0.6-0.7 0.9 0 0.2 0.3 0.2 0.7 0 0.5-0.3 0.8-0.6 0.8-0.9 0-0.3-0.3-0.3-0.8 0zm-6.2-16.7c-0.6 0-0.9 0.2-0.6 0.6 0.3 0.3 0.9 0.3 1.2 0 0.3-0.4 0-0.6-0.6-0.6zm-4.7 5.8c-0.4 0.2-0.8 0.6-0.8 0.8 0 0.3 0.4 0.3 0.8 0 0.4-0.2 0.8-0.6 0.8-0.8 0-0.3-0.4-0.3-0.8 0zm-12.2-35.2c-0.4 0.3-0.4 0.8-0.1 1.1 0.4 0.3 0.6 0 0.6-0.6 0.1-0.6-0.2-0.8-0.5-0.5zm-2.2 5.3c-1.1 1-2 2.1-2 2.3 0 0.2 0.9-0.4 2-1.3 1.1-0.9 1.9-1.9 2-2.3 0-0.4-0.9 0.2-2 1.3zm0.4 42.4c-0.4 0.2-0.8 0.6-0.8 0.8 0 0.2 0.4 0.2 0.8 0 0.4-0.2 0.8-0.6 0.8-0.8 0-0.3-0.4-0.3-0.8 0zm-23.6-4q-1-0.6-0.4 0.3c0.3 0.6 0.8 1 1 1 0.2 0 0.4-0.1 0.4-0.3 0-0.2-0.5-0.7-1-1zm-3.1 12.5q-1-0.7-0.4 0.3c0.3 0.5 0.7 1 1 1 0.2 0 0.3-0.2 0.3-0.4 0-0.2-0.4-0.6-0.9-0.9zm44.6-27.6c-0.6 0-0.9 0.3-0.6 0.6 0.4 0.3 0.9 0.3 1.2 0 0.3-0.3 0.1-0.6-0.6-0.6zm-16.4 11.3c-0.4 0.2-0.7 0.6-0.7 0.8 0 0.2 0.3 0.2 0.7 0 0.5-0.2 0.8-0.6 0.8-0.8 0-0.3-0.3-0.3-0.8 0zm-3.1-6.3c-0.4 0.3-0.8 0.7-0.8 0.9 0 0.2 0.4 0.2 0.8 0 0.5-0.2 0.8-0.6 0.8-0.9 0-0.2-0.3-0.2-0.8 0zm-18.1-10.5c-0.1 0-0.7 0.6-1.4 1.4-1 1.3-1 1.3 0.2 0.6 0.8-0.4 1.4-1 1.4-1.4 0-0.3-0.1-0.5-0.2-0.6zm-3.1 3.2c-0.1-0.1-0.8 0.6-1.4 1.3-1.1 1.3-1 1.4 0.2 0.6 0.7-0.4 1.4-1 1.4-1.3 0-0.3-0.1-0.6-0.2-0.6zm-3 5.1c-0.8 0.8-1.6 1.7-1.6 1.9 0 0.2 0.7-0.1 1.6-0.8 0.9-0.7 1.6-1.6 1.6-2 0-0.4-0.7 0-1.6 0.9zm-2.5 2.7c-0.1-0.1-0.7 0.6-1.4 1.3-1 1.3-1 1.4 0.2 0.6 0.8-0.4 1.4-1 1.4-1.3 0-0.4-0.1-0.6-0.2-0.6zm-0.8 6.2c-0.1 0-0.7 0.6-1.3 1.4-1.1 1.2-1.1 1.3 0.2 0.6 0.7-0.5 1.3-1.1 1.3-1.4 0-0.3-0.1-0.6-0.2-0.6zm49.4-21.1c-0.7 0-0.9 0.3-0.6 0.6 0.3 0.4 0.8 0.4 1.1 0 0.4-0.3 0.1-0.6-0.5-0.6zm-12.5 6.6c-0.4 0.3-0.8 0.7-0.8 0.9 0 0.2 0.4 0.2 0.8 0 0.4-0.2 0.8-0.6 0.8-0.9 0-0.2-0.4-0.2-0.8 0zm-8.6 16.4c-0.4 0.3-0.8 0.6-0.8 0.9 0 0.2 0.4 0.2 0.8 0 0.4-0.3 0.8-0.6 0.8-0.9 0-0.3-0.4-0.3-0.8 0zm-0.8-36.6c-0.4 0.2-0.8 0.6-0.8 0.8 0 0.2 0.4 0.2 0.8 0 0.5-0.2 0.8-0.6 0.8-0.8 0-0.3-0.3-0.3-0.8 0zm-24.3 50.6q-1-0.7-0.4 0.3c0.3 0.5 0.7 1 0.9 1 0.2 0 0.4-0.2 0.4-0.4 0-0.2-0.4-0.6-0.9-0.9zm49.3-3.1c-0.5 0.3-0.8 0.7-0.8 0.9 0 0.2 0.3 0.2 0.8 0 0.4-0.2 0.8-0.6 0.8-0.9 0-0.2-0.4-0.2-0.8 0zm-3.9-2.3c-0.5 0.2-0.8 0.6-0.8 0.8 0 0.2 0.3 0.2 0.8 0 0.4-0.2 0.8-0.6 0.8-0.8 0-0.3-0.4-0.3-0.8 0zm-10.9-16.4c-0.5 0.3-0.8 0.7-0.8 0.9 0 0.2 0.3 0.2 0.8 0 0.4-0.2 0.7-0.6 0.7-0.9 0-0.3-0.3-0.3-0.7 0zm-10.2 14.8c-0.4 0.3-0.8 0.7-0.8 0.9 0 0.2 0.4 0.2 0.8 0 0.5-0.2 0.8-0.6 0.8-0.9 0-0.2-0.3-0.2-0.8 0zm-5.4-0.8c-0.5 0.3-0.8 0.7-0.8 0.9 0 0.2 0.3 0.2 0.8 0 0.4-0.2 0.7-0.6 0.7-0.9 0-0.2-0.3-0.2-0.7 0zm-2.4 7.8c-0.4 0.3-0.8 0.7-0.8 0.9 0 0.2 0.4 0.2 0.8 0 0.5-0.2 0.8-0.6 0.8-0.9 0-0.2-0.3-0.2-0.8 0zm-0.8-16.3c-0.4 0.2-0.7 0.6-0.7 0.8 0 0.2 0.3 0.2 0.7 0 0.5-0.2 0.8-0.6 0.8-0.8 0-0.3-0.3-0.3-0.8 0zm-4.6 15.6c-0.5 0.2-0.8 0.6-0.8 0.8 0 0.2 0.3 0.2 0.8 0 0.4-0.2 0.7-0.6 0.7-0.8 0-0.3-0.3-0.3-0.7 0zm-12.5-10.2c-0.4 0.3-0.8 0.7-0.8 0.9 0 0.2 0.4 0.2 0.8 0 0.4-0.2 0.8-0.6 0.8-0.9 0-0.2-0.4-0.2-0.8 0zm-0.2-11.2c-0.1-0.1-0.7 0.6-1.4 1.3-1 1.3-1 1.4 0.2 0.6 0.8-0.4 1.4-1 1.4-1.3 0-0.4-0.1-0.6-0.2-0.6zm-2.2 7.3c-0.4 0.3-0.7 0.7-0.7 0.9 0 0.2 0.3 0.2 0.7 0 0.5-0.2 0.8-0.6 0.8-0.9 0-0.2-0.3-0.2-0.8 0zm61.1-1.1c-0.2 0.7-0.1 1.3 0.1 1.5 0.3 0.2 0.4-0.3 0.4-1.1 0-1.1-0.2-1.2-0.5-0.4zm-22.1-7.5c-0.4 0.3-0.7 0.7-0.7 0.9 0 0.2 0.3 0.2 0.7 0 0.5-0.2 0.8-0.6 0.8-0.9 0-0.2-0.3-0.2-0.8 0zm-5.4 12.5c-0.4 0.3-0.8 0.7-0.8 0.9 0 0.2 0.4 0.2 0.8 0 0.4-0.2 0.8-0.6 0.8-0.9 0-0.2-0.4-0.2-0.8 0zm27.5-2.4c-0.3 0.3-0.3 0.8 0 1.1 0.3 0.3 0.6 0 0.6-0.6 0-0.6-0.3-0.9-0.6-0.5zm-8.8 11.8c-0.4 0.2-0.8 0.6-0.8 0.8 0 0.2 0.4 0.2 0.8 0 0.4-0.2 0.8-0.6 0.8-0.8 0-0.3-0.4-0.3-0.8 0zm-1.6-6.3c-0.4 0.3-0.7 0.7-0.7 0.9 0 0.2 0.3 0.2 0.7 0 0.5-0.2 0.8-0.6 0.8-0.9 0-0.2-0.3-0.2-0.8 0zm-2.3-64.2c-0.6 0-0.9 0.2-0.6 0.6 0.3 0.3 0.9 0.3 1.2 0 0.3-0.4 0-0.6-0.6-0.6zm-17.7 15c-0.4 0.3-0.4 0.8 0 1.1 0.3 0.3 0.6 0 0.6-0.6 0-0.6-0.3-0.8-0.6-0.5zm-13.5 53.1c-0.4 0.3-0.8 0.7-0.8 0.9 0 0.2 0.4 0.2 0.8 0 0.4-0.2 0.8-0.6 0.8-0.9 0-0.2-0.4-0.2-0.8 0zm-1.6-35c-0.4 0.2-0.7 0.6-0.7 0.8 0 0.2 0.3 0.2 0.7 0 0.5-0.2 0.8-0.6 0.8-0.8 0-0.3-0.3-0.3-0.8 0zm-15.7 42.8q-1-0.7-0.4 0.3c0.3 0.5 0.7 1 0.9 1 0.2 0 0.4-0.2 0.4-0.4 0-0.2-0.4-0.6-0.9-0.9zm65.9-58c-0.2 0.7-0.2 1.4 0.1 1.5 0.2 0.2 0.4-0.3 0.4-1.1-0.1-1.1-0.2-1.2-0.5-0.4zm-43.1 45.6c-0.5 0.2-0.8 0.6-0.8 0.8 0 0.2 0.3 0.2 0.8 0 0.4-0.2 0.7-0.6 0.7-0.8 0-0.3-0.3-0.3-0.7 0zm23.4-28.5c-0.7 0-0.9 0.3-0.6 0.6 0.3 0.4 0.8 0.4 1.1 0 0.4-0.3 0.1-0.6-0.5-0.6zm-9.4 16c-0.4 0.2-0.8 0.6-0.8 0.8 0 0.3 0.4 0.3 0.8 0 0.4-0.2 0.8-0.6 0.8-0.8 0-0.3-0.4-0.3-0.8 0zm-4.9 11.3c-0.1 0-0.7 0.6-1.3 1.4-1.1 1.3-1.1 1.3 0.2 0.6 0.7-0.5 1.3-1.1 1.3-1.4 0-0.3-0.1-0.5-0.2-0.6zm-2.1-42.5c-0.4 0.3-0.8 0.7-0.8 0.9 0 0.2 0.4 0.2 0.8 0 0.4-0.2 0.8-0.6 0.8-0.9 0-0.3-0.4-0.3-0.8 0zm-4.1 4.3c-0.1 0-0.7 0.6-1.4 1.4-1 1.3-1 1.3 0.2 0.6 0.8-0.4 1.4-1.1 1.4-1.4 0-0.3-0.1-0.5-0.2-0.6zm-13.9 36.2c-0.4 0.3-0.7 0.7-0.7 0.9 0 0.2 0.3 0.2 0.7 0 0.5-0.2 0.8-0.6 0.8-0.9 0-0.2-0.3-0.2-0.8 0zm49.8-31.5c-0.1 0-0.8 0.6-1.4 1.4-1.1 1.3-1 1.3 0.2 0.6 0.7-0.5 1.4-1.1 1.4-1.4 0-0.3-0.1-0.6-0.2-0.6zm-11.5 16.4c-0.7 0-0.9 0.2-0.6 0.6 0.3 0.3 0.8 0.3 1.1 0 0.4-0.4 0.1-0.6-0.5-0.6zm-18 10.5c-0.4 0.2-0.8 0.6-0.8 0.8 0 0.2 0.4 0.2 0.8 0 0.4-0.2 0.8-0.6 0.8-0.8 0-0.3-0.4-0.3-0.8 0zm-7.8 7c-0.4 0.2-0.8 0.6-0.8 0.8 0 0.3 0.4 0.3 0.8 0 0.5-0.2 0.8-0.6 0.8-0.8 0-0.3-0.3-0.3-0.8 0zm-5.4 10.9c-0.5 0.2-0.8 0.6-0.8 0.8 0 0.3 0.3 0.3 0.8 0 0.4-0.2 0.7-0.6 0.7-0.8 0-0.3-0.3-0.3-0.7 0zm-2.4-3.9c-0.4 0.3-0.8 0.6-0.8 0.9 0 0.2 0.4 0.2 0.8 0 0.5-0.3 0.8-0.6 0.8-0.9 0-0.3-0.3-0.3-0.8 0zm-7-29.5c-1.7 1.7-3.1 3.2-3.1 3.5 0 0.2 1.4-0.9 3.1-2.5 1.7-1.6 3.1-3.1 3.1-3.5 0-0.4-1.4 0.7-3.1 2.5zm-5.5 7.7c-0.4 0.2-0.7 0.6-0.7 0.8 0 0.2 0.3 0.2 0.7 0 0.5-0.2 0.8-0.6 0.8-0.8 0-0.3-0.3-0.3-0.8 0zm32-5.5c-0.4 0.3-0.8 0.7-0.8 0.9 0 0.2 0.4 0.2 0.8 0 0.4-0.2 0.8-0.6 0.8-0.9 0-0.2-0.4-0.2-0.8 0zm-5.4 14.8c-0.5 0.3-0.8 0.7-0.8 0.9 0 0.2 0.3 0.2 0.8 0 0.4-0.2 0.7-0.6 0.7-0.9 0-0.2-0.3-0.2-0.7 0zm18.7-12.8c-0.7 0-0.9 0.3-0.6 0.6 0.3 0.3 0.8 0.3 1.2 0 0.3-0.3 0-0.6-0.6-0.6zm-18.5-27c-0.4 0.3-0.4 0.8 0 1.1 0.3 0.2 0.6 0 0.6-0.6 0-0.6-0.3-0.9-0.6-0.5zm-11.2 56.2c-0.4 0.2-0.7 0.6-0.7 0.8 0 0.3 0.3 0.3 0.7 0 0.5-0.2 0.8-0.6 0.8-0.8 0-0.3-0.3-0.3-0.8 0zm-5.4-14.8c-0.4 0.2-0.8 0.6-0.8 0.8 0 0.3 0.4 0.3 0.8 0 0.4-0.2 0.8-0.6 0.8-0.8 0-0.3-0.4-0.3-0.8 0zm35.7 11.6q-1-0.6-0.4 0.3c0.3 0.6 0.7 1 0.9 1 0.3 0 0.4-0.1 0.4-0.3 0-0.2-0.4-0.7-0.9-1zm-29.5-41.2c-0.4 0.2-0.8 0.6-0.8 0.8 0 0.2 0.4 0.2 0.8 0 0.5-0.2 0.8-0.6 0.8-0.8 0-0.3-0.3-0.3-0.8 0zm-11.7 44.8c-0.6 0-0.9 0.3-0.6 0.6 0.4 0.4 0.9 0.4 1.2 0 0.3-0.3 0.1-0.6-0.6-0.6zm-0.9-12.2q-1-0.6-0.4 0.4c0.3 0.5 0.7 0.9 0.9 0.9 0.2 0 0.4-0.1 0.4-0.3 0-0.2-0.4-0.6-0.9-1zm-7.1-7.8q-0.9-0.6-0.4 0.4c0.4 0.5 0.8 1 1 1 0.2 0 0.4-0.2 0.4-0.4 0-0.2-0.4-0.6-1-1zm-2.3 19.5q-1-0.6-0.4 0.4c0.3 0.5 0.8 0.9 1 0.9 0.2 0 0.4-0.1 0.4-0.3 0-0.2-0.5-0.6-1-1zm-2.7-7.8c-0.4 0.3-0.4 0.8 0 1.1 0.3 0.3 0.6 0 0.6-0.6 0-0.6-0.3-0.8-0.6-0.5zm65.9-59.2q-1-0.6-0.4 0.3c0.3 0.6 0.7 1 0.9 1 0.3 0 0.4-0.2 0.4-0.3 0-0.2-0.4-0.7-0.9-1zm-22.5 49.2c-0.4 0.2-0.7 0.6-0.7 0.8 0 0.2 0.3 0.2 0.7 0 0.5-0.2 0.8-0.6 0.8-0.8 0-0.3-0.3-0.3-0.8 0zm-1.7-51c-0.1-0.1-0.7 0.5-1.4 1.3-1 1.3-1 1.3 0.2 0.6 0.8-0.4 1.4-1 1.4-1.4 0-0.3-0.1-0.5-0.2-0.5zm-3.7 49.4c-0.4 0.3-0.8 0.6-0.8 0.9 0 0.2 0.4 0.2 0.8 0 0.4-0.3 0.8-0.6 0.8-0.9 0-0.3-0.4-0.3-0.8 0zm-11.7 0c-0.4 0.3-0.8 0.6-0.8 0.9 0 0.2 0.4 0.2 0.8 0 0.4-0.3 0.8-0.6 0.8-0.9 0-0.3-0.4-0.3-0.8 0zm-3.1-23.4c-0.5 0.3-0.8 0.7-0.8 0.9 0 0.2 0.3 0.2 0.8 0 0.4-0.2 0.7-0.6 0.7-0.9 0-0.2-0.3-0.2-0.7 0zm31.9 34.3c-0.4 0.3-0.7 0.7-0.7 0.9 0 0.2 0.3 0.2 0.7 0 0.5-0.2 0.8-0.6 0.8-0.9 0-0.2-0.3-0.2-0.8 0zm-25.7 3.1c-0.4 0.3-0.8 0.7-0.8 0.9 0 0.2 0.4 0.2 0.8 0 0.4-0.2 0.8-0.6 0.8-0.9 0-0.2-0.4-0.2-0.8 0zm-11.7-31.9c-0.4 0.2-0.8 0.6-0.8 0.8 0 0.2 0.4 0.2 0.8 0 0.4-0.2 0.8-0.6 0.8-0.8 0-0.3-0.4-0.3-0.8 0zm12.5 24.9c-0.4 0.3-0.8 0.7-0.8 0.9 0 0.2 0.4 0.2 0.8 0 0.4-0.2 0.8-0.6 0.8-0.9 0-0.2-0.4-0.2-0.8 0zm-18.7 17.6c-0.7 0-0.9 0.3-0.6 0.6 0.3 0.3 0.8 0.3 1.1 0 0.4-0.3 0.1-0.6-0.5-0.6zm-6.5-2.8q-0.9-0.7-0.4 0.3c0.4 0.5 0.8 1 1 1 0.2 0 0.4-0.2 0.4-0.4 0-0.2-0.4-0.6-1-0.9zm50.1-45.5c-0.6 0-0.9 0.2-0.5 0.6 0.3 0.3 0.8 0.3 1.1 0 0.3-0.4 0.1-0.6-0.6-0.6zm-0.9-13.8q-1-0.6-0.4 0.4c0.3 0.5 0.7 0.9 0.9 0.9 0.3 0 0.4-0.1 0.4-0.3 0-0.2-0.4-0.6-0.9-1zm-0.4 5.1c-1.3-0.9-1.3-0.9-0.2 0.4 0.6 0.7 1.2 1.3 1.3 1.3 0.2 0 0.2-0.1 0.2-0.3 0-0.2-0.6-0.8-1.3-1.4zm-0.6-17c-0.9 0.1-1.1 0.2-0.5 0.3 0.5 0.1 1.2 0.1 1.5-0.1 0.3-0.1-0.2-0.2-1-0.2zm-4.9 5.3c-1.2-0.9-1.3-0.9-0.2 0.4 0.7 0.7 1.3 1.4 1.4 1.3 0.1 0 0.2-0.1 0.2-0.3 0-0.2-0.6-0.8-1.4-1.4zm-1.5 3.9c-1.3-0.9-1.3-0.9-0.2 0.4 0.6 0.7 1.2 1.4 1.3 1.3 0.1 0 0.2-0.1 0.2-0.3 0-0.2-0.6-0.8-1.3-1.4zm-2.8 9.7q-0.9-0.6-0.4 0.4c0.4 0.5 0.8 1 1 1 0.2 0 0.4-0.2 0.4-0.4 0-0.2-0.4-0.6-1-1zm-0.7 4.7q-1-0.6-0.4 0.4c0.3 0.5 0.7 0.9 0.9 0.9 0.2 0 0.4-0.1 0.4-0.3 0-0.2-0.4-0.7-0.9-1zm0.1 6.3c-0.4 0.3-0.7 0.7-0.7 0.9 0 0.2 0.3 0.2 0.7 0 0.5-0.2 0.8-0.6 0.8-0.9 0-0.2-0.3-0.2-0.8 0zm-0.7-24.5c-0.7 0-0.9 0.3-0.6 0.6 0.3 0.3 0.8 0.3 1.1 0 0.4-0.3 0.1-0.6-0.5-0.6zm-3.2 27.6c-0.4 0.3-0.7 0.7-0.7 0.9 0 0.2 0.3 0.2 0.7 0 0.5-0.2 0.8-0.6 0.8-0.9 0-0.2-0.3-0.2-0.8 0zm-6.2-10.8c-2.2 2.1-3.9 4.1-3.9 4.3 0 0.2 1.7-1.3 3.9-3.3 2.1-2 3.9-3.9 3.9-4.3 0-0.3-1.7 1.2-3.9 3.3zm1.6 14.7c-0.5 0.3-0.8 0.7-0.8 0.9 0 0.2 0.3 0.2 0.8 0 0.4-0.2 0.7-0.6 0.7-0.9 0-0.2-0.3-0.2-0.7 0zm-7.8-8.5c-0.9 0.9-1.6 1.8-1.6 2 0 0.2 0.7-0.2 1.5-0.9 0.9-0.6 1.6-1.5 1.6-1.9 0.1-0.4-0.7 0-1.5 0.8zm31-6.4q-1-0.6-0.4 0.4c0.3 0.5 0.7 1 0.9 1 0.3 0 0.4-0.2 0.4-0.4 0-0.2-0.4-0.6-0.9-1zm-2.4-8.5q-0.9-0.7-0.4 0.3c0.4 0.6 0.8 1 1 1 0.2 0 0.4-0.2 0.4-0.4 0-0.1-0.4-0.6-1-0.9zm-15.9-1.6c-0.4 0.3-0.4 0.8-0.1 1.1 0.4 0.3 0.6 0 0.6-0.6 0.1-0.6-0.2-0.8-0.5-0.5zm-15.3 19.2c-0.1 0-0.7 0.6-1.3 1.4-1.1 1.3-1.1 1.3 0.2 0.6 0.7-0.5 1.3-1.1 1.3-1.4 0-0.3-0.1-0.5-0.2-0.6zm0.2 12.8c-0.4 0.3-0.8 0.7-0.8 0.9 0 0.2 0.4 0.2 0.8 0 0.5-0.2 0.8-0.6 0.8-0.9 0-0.2-0.3-0.2-0.8 0zm-10.3 2.3q-1-0.6-0.4 0.4c0.3 0.5 0.8 0.9 1 0.9 0.2 0 0.4-0.1 0.4-0.3 0-0.2-0.5-0.6-1-1zm37.6-45.5c-0.6 0-0.9 0.3-0.6 0.6 0.4 0.4 0.9 0.4 1.2 0 0.3-0.3 0.1-0.6-0.6-0.6zm-1.7 5.8q-1-0.7-0.4 0.3c0.3 0.5 0.7 1 0.9 1 0.3 0 0.4-0.2 0.4-0.4 0-0.2-0.4-0.6-0.9-0.9zm-9.4 15.5q-1-0.6-0.4 0.4c0.3 0.5 0.8 1 1 1 0.2 0 0.4-0.2 0.4-0.4 0-0.2-0.5-0.6-1-1zm-11.5 4.8c-0.4 0.3-0.8 0.6-0.8 0.9 0 0.2 0.4 0.2 0.8 0 0.4-0.3 0.8-0.6 0.8-0.9 0-0.3-0.4-0.3-0.8 0zm-2.3 2.3c-0.5 0.3-0.8 0.7-0.8 0.9 0 0.2 0.3 0.2 0.8 0 0.4-0.2 0.7-0.6 0.7-0.9 0-0.2-0.3-0.2-0.7 0zm34.9-25q-1-0.6-0.4 0.4c0.3 0.5 0.7 0.9 0.9 0.9 0.3 0 0.4-0.1 0.4-0.3 0-0.2-0.4-0.6-0.9-1zm-3.1 12.5q-1-0.6-0.4 0.3c0.3 0.6 0.7 1 0.9 1 0.2 0 0.4-0.1 0.4-0.3 0-0.2-0.4-0.7-0.9-1zm-2.4 3.9q-1-0.6-0.4 0.3c0.3 0.6 0.8 1 1 1 0.2 0 0.4-0.1 0.4-0.3 0-0.2-0.5-0.7-1-1zm-4.7-11.7q-0.9-0.6-0.4 0.3c0.4 0.6 0.8 1 1 1 0.2 0 0.4-0.1 0.4-0.3 0-0.2-0.4-0.7-1-1zm-0.7 5.5q-1-0.7-0.4 0.3c0.3 0.5 0.7 1 0.9 1 0.2 0 0.4-0.2 0.4-0.4 0-0.2-0.4-0.6-0.9-0.9zm-2.4 9.3q-1-0.6-0.4 0.4c0.3 0.5 0.8 0.9 1 0.9 0.2 0 0.4-0.1 0.4-0.3 0-0.2-0.5-0.7-1-1zm-4.7-17.1q-0.9-0.7-0.4 0.3c0.4 0.5 0.8 1 1 1 0.2 0 0.4-0.2 0.4-0.4 0-0.2-0.4-0.6-1-0.9zm-15.4 35.1c-0.4 0.3-0.8 0.7-0.8 0.9 0 0.2 0.4 0.2 0.8 0 0.5-0.2 0.8-0.6 0.8-0.9 0-0.2-0.3-0.2-0.8 0zm-6.2 5.1c-0.7 0-0.9 0.3-0.6 0.6 0.3 0.4 0.8 0.4 1.2 0 0.3-0.3 0-0.6-0.6-0.6zm-0.8-12.9c-0.4 0.3-0.8 0.7-0.8 0.9 0 0.2 0.4 0.2 0.8 0 0.4-0.2 0.8-0.6 0.8-0.9 0-0.2-0.4-0.2-0.8 0zm43.2-20.6c-0.2 0.7-0.2 1.4 0 1.5 0.3 0.2 0.4-0.3 0.4-1.1 0-1.1-0.2-1.2-0.4-0.4zm-10.2-2.4c-1.3-1-1.3-1-0.2 0.3 0.6 0.8 1.2 1.4 1.3 1.4 0.1 0 0.2-0.2 0.2-0.3 0-0.2-0.6-0.8-1.3-1.4zm-10.6 6.6q-0.9-0.7-0.4 0.3c0.4 0.6 0.8 1 1 1 0.2 0 0.4-0.2 0.4-0.4 0-0.2-0.4-0.6-1-0.9zm-24.1 26.5q-1-0.7-0.4 0.3c0.3 0.6 0.7 1 0.9 1 0.2 0 0.4-0.2 0.4-0.4 0-0.1-0.4-0.6-0.9-0.9zm43-24.9c-0.4 0.3-0.7 0.6-0.7 0.9 0 0.2 0.3 0.2 0.7 0 0.5-0.3 0.8-0.6 0.8-0.9 0-0.3-0.3-0.3-0.8 0zm-19.6 6.2q-1-0.7-0.4 0.3c0.3 0.6 0.7 1 0.9 1 0.2 0 0.4-0.2 0.4-0.4 0-0.2-0.4-0.6-0.9-0.9zm-7.7-3.9c-0.4 0.3-0.7 0.7-0.7 0.9 0 0.2 0.3 0.2 0.7 0 0.5-0.2 0.8-0.6 0.8-0.9 0-0.2-0.3-0.2-0.8 0zm-15.9 15.3c-1.1 1.1-2 2.1-2 2.4 0 0.2 0.8-0.4 1.9-1.3 1.1-0.9 2-2 2-2.3 0-0.4-0.9 0.2-1.9 1.2zm-8.8 11.1c-0.3 0.4-0.3 0.8 0 1.1 0.3 0.3 0.6 0.1 0.6-0.6 0-0.6-0.3-0.8-0.6-0.5zm46.4-25.7q-1-0.6-0.4 0.4c0.3 0.5 0.8 1 1 1 0.2 0 0.4-0.2 0.4-0.4 0-0.2-0.5-0.6-1-1zm-34.1 11.1c-0.9 0.9-1.6 1.7-1.6 2 0 0.2 0.7-0.2 1.5-0.9 0.9-0.7 1.6-1.5 1.6-1.9 0.1-0.4-0.7 0-1.5 0.8zm21.6-25.1q-1-0.6-0.4 0.4c0.3 0.5 0.8 0.9 1 0.9 0.2 0 0.4-0.1 0.4-0.3 0-0.2-0.5-0.6-1-1zm-2.3 15.6q-1-0.6-0.4 0.4c0.3 0.5 0.7 0.9 0.9 0.9 0.3 0 0.4-0.1 0.4-0.3 0-0.2-0.4-0.7-0.9-1zm-10.8 0.9c-0.8 0.9-1.6 1.8-1.6 2 0 0.2 0.7-0.2 1.6-0.9 0.9-0.6 1.6-1.5 1.6-1.9 0-0.4-0.7 0-1.6 0.8zm25.6-9.5q-1-0.6-0.4 0.4c0.3 0.5 0.8 1 1 1 0.2 0 0.4-0.2 0.4-0.4 0-0.2-0.5-0.6-1-1zm-10.1 7q-1-0.6-0.4 0.4c0.3 0.5 0.7 1 0.9 1 0.2 0 0.4-0.2 0.4-0.4 0-0.2-0.4-0.6-0.9-1zm-5.9-6.5c-1.3-1-1.3-1-0.2 0.3 0.6 0.8 1.3 1.4 1.4 1.4 0.1 0 0.2-0.2 0.2-0.4 0-0.1-0.7-0.7-1.4-1.3zm-0.4 5.8q-1-0.7-0.4 0.3c0.3 0.6 0.8 1 1 1 0.2 0 0.4-0.2 0.4-0.4 0-0.2-0.5-0.6-1-0.9zm2.4-3.9q-1-0.7-0.4 0.3c0.3 0.6 0.7 1 0.9 1 0.2 0 0.4-0.2 0.4-0.4 0-0.2-0.4-0.6-0.9-0.9zm-25 25.7q-1-0.6-0.4 0.3c0.3 0.6 0.8 1 1 1 0.2 0 0.4-0.1 0.4-0.3 0-0.2-0.5-0.7-1-1zm31.2-30.4q-1-0.6-0.4 0.3c0.3 0.6 0.8 1 1 1 0.2 0 0.4-0.1 0.4-0.3 0-0.2-0.5-0.7-1-1zm-10.9 6.2q-1-0.6-0.4 0.4c0.3 0.5 0.7 1 1 1 0.2 0 0.3-0.2 0.3-0.4 0-0.2-0.4-0.6-0.9-1zm-19.3 17.3c-0.5 0.2-0.8 0.6-0.8 0.8 0 0.2 0.3 0.2 0.8 0 0.4-0.2 0.7-0.6 0.7-0.8 0-0.3-0.3-0.3-0.7 0zm-4.9 9.2q-1-0.6-0.4 0.4c0.3 0.5 0.8 1 1 1 0.2 0 0.4-0.2 0.4-0.4 0-0.2-0.5-0.6-1-1zm-2.9 0.9c-0.5 0.2-0.8 0.6-0.8 0.8 0 0.3 0.3 0.3 0.8 0 0.4-0.2 0.7-0.6 0.7-0.8 0-0.3-0.3-0.3-0.7 0zm3.9 3.1c-0.5 0.3-0.8 0.6-0.8 0.9 0 0.2 0.3 0.2 0.8 0 0.4-0.3 0.7-0.6 0.7-0.9 0-0.3-0.3-0.3-0.7 0zm-2.6 0.7q-0.9-0.6-0.4 0.4c0.4 0.5 0.8 0.9 1 0.9 0.2 0 0.4-0.1 0.4-0.3 0-0.2-0.4-0.7-1-1zm22.1-28.8c-0.5 0.3-0.8 0.7-0.8 0.9 0 0.2 0.3 0.2 0.8 0 0.4-0.2 0.7-0.6 0.7-0.9 0-0.2-0.3-0.2-0.7 0zm19.7-9.7c-1.3-1-1.3-1-0.2 0.3 0.6 0.8 1.2 1.4 1.3 1.4 0.1 0 0.2-0.2 0.2-0.4 0-0.1-0.6-0.7-1.3-1.3zm-10.6 13.6q-0.9-0.7-0.4 0.3c0.4 0.6 0.8 1 1 1 0.2 0 0.4-0.2 0.4-0.4 0-0.2-0.4-0.6-1-0.9zm-1.3 4.7c-0.5 0.3-0.8 0.7-0.8 0.9 0 0.2 0.3 0.2 0.8 0 0.4-0.2 0.7-0.6 0.7-0.9 0-0.2-0.3-0.2-0.7 0zm-5.9-2.7c-1.1-0.9-1.4-0.9-2.4 0.1-1 1-1 1.4 0 2.7 1 1.4 1.2 1.4 2.4 0.4 0.7-0.7 1.2-1.4 1.2-1.7 0-0.3-0.6-1-1.2-1.5zm1.2 1.9c-0.4 0.3-0.8 0.7-0.8 0.9 0 0.2 0.4 0.2 0.8 0 0.4-0.2 0.8-0.6 0.8-0.9 0-0.2-0.4-0.2-0.8 0zm-0.6-2.7c-1.3-1-1.3-1-0.2 0.3 0.6 0.8 1.3 1.4 1.4 1.4 0.1 0 0.2-0.2 0.2-0.4 0-0.1-0.7-0.7-1.4-1.3zm1.2 3.2c-0.1 0-0.8 0.6-1.4 1.3-1.1 1.3-1 1.4 0.2 0.6 0.7-0.4 1.4-1 1.4-1.3 0-0.3-0.1-0.6-0.2-0.6zm-2.4-3.7q-0.9-0.6-0.4 0.4c0.4 0.5 0.8 1 1 1 0.2 0 0.4-0.2 0.4-0.4 0-0.2-0.4-0.6-1-1zm0.4 4.8c-0.5 0.2-1.6 0-2.3-0.5-1.3-0.9-1.3-0.8 0 0.6 1.1 1.3 1.5 1.4 2.3 0.4 0.8-0.8 0.8-0.9 0-0.5zm-3.9-2.5c-0.3 0.4-0.3 0.9 0 1.1 0.3 0.3 0.6 0.1 0.6-0.5 0-0.6-0.2-0.9-0.6-0.6zm46.5-124.5c-0.5-1.3-1.7-3.4-2.6-4.7-1-1.2-3.5-4.1-5.6-6.2-2.1-2.2-6.1-5.9-8.8-8.2-2.8-2.4-6.5-5.3-8.2-6.6-1.7-1.3-3.6-2.7-4.1-3.2-0.6-0.5-1-1.9-1-3 0-1.1-0.4-2.9-0.9-4.1-0.6-1.2-1.5-2.7-2.2-3.4-0.6-0.7-2.3-1.8-3.7-2.5-1.4-0.8-4.1-1.3-5.9-1.3-1.9 0-4.3-0.7-5.8-1.6l-2.6-1.6c-1.4 2.8-1.8 6-1.8 9 0 4.3 0.4 6.2 1.9 9 1.3 2.5 2.9 4 5.4 5.2 1.9 1 4.6 1.8 5.9 1.8 1.6 0 2.7 0.6 3.8 2.2 0.9 1.2 3.5 4.4 5.9 7.1 2.4 2.7 5.8 6.4 7.7 8.1 1.8 1.8 3.9 3.2 4.6 3.2 0.6 0 1.5 0.7 1.8 1.6 0.3 0.9 0.6 1.1 0.7 0.6 0-0.5-2.3-3.4-5.1-6.2-2.9-2.9-6.1-6.5-7.2-7.9l-2.1-2.6c6.2-6.3 6.2-6.3 8.1-4.8 1 0.8 3.8 3.2 6.2 5.3 2.3 2.2 5.1 4.6 6 5.5 0.9 0.8 3 3.5 4.6 5.8 1.8 2.7 2.8 5 2.6 6.2-0.1 1-0.8 2.2-1.6 2.7-1.1 0.7-2.3 0.4-6-1.5-3-1.5-4.6-2-4.7-1.3 0 0.5 1.5 1.9 3.3 3 2 1.2 4.5 2.1 6.3 2.1 2.3 0.1 3.4-0.3 4.5-1.8 0.9-1.1 1.5-2.3 1.5-2.8-0.1-0.4-0.5-1.8-0.9-3.1zm-28.7-24.4c0.8 0.5 1.5 1.2 1.5 1.4 0 0.2-1 1.4-4.7 4.7l-1.1-1.7c-0.7-1-1.2-2.1-1.2-2.4 0-0.3 0.9-1.1 1.9-1.7 1.6-1 2.3-1 3.6-0.3zm-5.3-10c0.2 0.9 0.4 2.5 0.5 3.4 0 1.1-0.9 2.8-2.5 4.3-2.2 2.1-2.8 2.4-5.2 1.9-1.5-0.3-3.5-1-4.5-1.7-1-0.6-2.3-2.3-3-3.7-0.7-1.4-1.5-4.1-1.7-6-0.2-2-0.1-3.8 0.3-4 0.4-0.3 3.4-0.1 6.6 0.4 3.6 0.5 6.6 1.4 7.6 2.3 0.9 0.7 1.8 2.1 1.9 3.1zm28.5 25.7q-1-0.6-0.4 0.3c0.3 0.6 0.7 1 0.9 1 0.3 0 0.4-0.1 0.4-0.3 0-0.2-0.4-0.7-0.9-1zm-4.7-1.6q-1-0.6-0.4 0.4c0.3 0.5 0.8 1 1 1 0.2 0 0.4-0.2 0.4-0.4 0-0.2-0.5-0.6-1-1zm-3.1-6.2q-1-0.6-0.4 0.3c0.3 0.6 0.7 1 0.9 1 0.3 0 0.4-0.1 0.4-0.3 0-0.2-0.4-0.7-0.9-1zm-0.8 17.1c-1-0.8-2.5-1.4-3.3-1.3-1 0.2-2.7-0.8-4.3-2.2-1.6-1.4-1.2-0.9 0.7 1.1 2 2.1 3.8 3.7 4.2 3.7 0.3 0.1 0.7-0.4 0.8-0.9 0.2-0.5 0.2-0.4 0 0.4-0.1 0.7 0.3 1.8 0.9 2.3 1 0.9 1.1 0.8 0.7-0.7-0.5-1.4-0.4-1.5 0.7-0.9 0.7 0.4 1.3 0.6 1.3 0.4 0-0.1-0.8-1-1.7-1.9zm-5.5-4.6l-1.7-1.4c2.4 2.7 3.2 3.5 3.3 3.5 0.1 0 0.2-0.1 0.2-0.3 0-0.2-0.8-0.9-1.8-1.8zm-6.2-22.6q-1-0.7-0.4 0.3c0.3 0.6 0.8 1 1 1 0.2 0 0.4-0.2 0.4-0.4 0-0.2-0.5-0.6-1-0.9zm-5.9 12.9c-1.2-1-1.2-1-0.2 0.3 0.7 0.8 1.3 1.4 1.4 1.4 0.1 0 0.2-0.2 0.2-0.4 0-0.1-0.6-0.7-1.4-1.3zm-21.8-21.5c-0.3 0.3-0.3 0.8 0 1.1 0.3 0.2 0.6 0 0.6-0.6 0-0.6-0.2-0.9-0.6-0.5zm-0.7-3.2c-0.2 0.7-0.2 1.7 0 2.3 0.2 0.6 0.4 0 0.4-1.3-0.1-1.3-0.2-1.7-0.4-1zm31.1 30.1c-1.2-0.9-1.3-0.9-0.2 0.4 0.7 0.7 1.3 1.4 1.4 1.3 0.1 0 0.2-0.1 0.2-0.3 0-0.2-0.6-0.8-1.4-1.4zm-7-23.8c-0.3 0.3-0.3 0.8 0 1.1 0.3 0.3 0.6 0 0.6-0.6 0-0.6-0.3-0.9-0.6-0.5zm-3.5 16.4q-1-0.7-0.4 0.3c0.3 0.6 0.8 1 1 1 0.2 0 0.4-0.2 0.4-0.3 0-0.2-0.5-0.7-1-1zm13.3 14.8q-1-0.6-0.4 0.3c0.3 0.6 0.7 1 0.9 1 0.2 0 0.4-0.1 0.4-0.3 0-0.2-0.4-0.7-0.9-1zm12-11.3c-1.2-0.9-1.2-0.9-0.2 0.4 0.7 0.7 1.3 1.4 1.4 1.3 0.1 0 0.2-0.1 0.2-0.3 0-0.2-0.6-0.8-1.4-1.4zm-19.8-16.8q-1-0.6-0.4 0.4c0.3 0.5 0.7 1 0.9 1 0.2 0 0.4-0.2 0.4-0.4 0-0.2-0.4-0.6-0.9-1zm-2.4 17.2q-1-0.7-0.4 0.3c0.3 0.6 0.8 1 1 1 0.2 0 0.4-0.2 0.4-0.4 0-0.1-0.5-0.6-1-0.9zm21.1 3.1q-1-0.6-0.4 0.3c0.3 0.6 0.7 1 0.9 1 0.3 0 0.4-0.1 0.4-0.3 0-0.2-0.4-0.7-0.9-1zm-2.4-7q-0.9-0.7-0.4 0.3c0.4 0.6 0.8 1 1 1 0.2 0 0.4-0.2 0.4-0.3 0-0.2-0.4-0.7-1-1zm-3.1 14.8q-1-0.6-0.4 0.3c0.3 0.6 0.8 1 1 1 0.2 0 0.4-0.1 0.4-0.3 0-0.2-0.5-0.7-1-1zm-13.2-8.6q-1-0.6-0.4 0.4c0.3 0.5 0.7 0.9 0.9 0.9 0.2 0 0.4-0.1 0.4-0.3 0-0.2-0.4-0.6-0.9-1zm-8.6-9.3q-1-0.7-0.4 0.3c0.3 0.5 0.7 1 0.9 1 0.3 0 0.4-0.2 0.4-0.4 0-0.2-0.4-0.6-0.9-0.9zm3.9-21.1q-1-0.6-0.4 0.4c0.3 0.5 0.7 0.9 0.9 0.9 0.3 0 0.4-0.1 0.4-0.3 0-0.2-0.4-0.6-0.9-1zm-7.6 18.4c-0.7 0-0.9 0.3-0.6 0.7 0.3 0.3 0.8 0.3 1.1 0 0.4-0.4 0.1-0.7-0.5-0.7zm18.5 1.9q-1-0.6-0.4 0.3c0.3 0.6 0.8 1 1 1 0.2 0 0.4-0.2 0.4-0.3 0-0.2-0.5-0.7-1-1zm-7.2-0.3c-1.1 1.1-2 2.2-2 2.4 0 0.2 0.9-0.4 1.9-1.3 1.1-0.9 2-1.9 2-2.3 0-0.4-0.8 0.2-1.9 1.2zm-5.9-6.7c-0.4 0.3-0.8 0.7-0.8 0.9 0 0.2 0.4 0.2 0.8 0 0.4-0.2 0.8-0.6 0.8-0.9 0-0.2-0.4-0.2-0.8 0zm-5.4 2c-0.7 0-0.9 0.3-0.6 0.6 0.3 0.4 0.8 0.4 1.1 0 0.4-0.3 0.1-0.6-0.5-0.6zm-10.7-13.2c-0.2 0.7-0.2 1.3 0.1 1.5 0.2 0.2 0.4-0.3 0.4-1.2-0.1-1-0.2-1.1-0.5-0.3zm18.5 12.8c-0.5 0.3-0.8 0.6-0.8 0.9 0 0.2 0.3 0.2 0.8 0 0.4-0.3 0.7-0.6 0.7-0.9 0-0.3-0.3-0.3-0.7 0zm-11-15.9c-0.6 0-0.9 0.2-0.5 0.6 0.3 0.3 0.8 0.3 1.1 0 0.3-0.4 0.1-0.6-0.6-0.6zm-7.5 4.9c-0.4 0.3-0.4 0.8-0.1 1.1 0.4 0.3 0.6 0 0.6-0.6 0.1-0.6-0.2-0.8-0.5-0.5zm16.7 8.3c-0.1 0-0.7 0.6-1.4 1.4-1 1.3-1 1.3 0.2 0.6 0.8-0.5 1.4-1.1 1.4-1.4 0-0.3-0.1-0.6-0.2-0.6zm-0.4 4.9c-0.3 0.3-0.3 0.8 0 1.1 0.3 0.3 0.6 0.1 0.6-0.6 0-0.6-0.2-0.8-0.6-0.5zm4.3-3.3c-0.1 0-0.7 0.6-1.4 1.3-1 1.3-1 1.4 0.2 0.6 0.8-0.4 1.4-1 1.4-1.3 0-0.3-0.1-0.6-0.2-0.6zm-19.3-15.6c-0.6 0-0.9 0.3-0.6 0.6 0.3 0.3 0.9 0.3 1.2 0 0.3-0.3 0-0.6-0.6-0.6zm23.2 17.9c-0.1 0.3-0.8 1.1-1.4 2-1.1 1.5-1 1.5 0.3 0.4 0.7-0.7 1.4-1.5 1.4-2-0.1-0.4-0.2-0.6-0.3-0.4zm39.2-190.5c-0.4-0.9-0.7-2.5-0.7-3.6-0.1-1-0.3-2.4-0.7-3-0.4-0.8-1.4-0.8-4.5-0.1-2.1 0.4-8.1 1.7-13.2 2.8-5.2 1.1-11.8 2.5-14.8 3.2-3 0.7-7.6 1.7-10.2 2.3-2.5 0.6-6.8 1.4-9.3 1.9-2.6 0.5-6.1 1.2-7.8 1.7-1.7 0.4-4.5 1.9-6.2 3.3-1.7 1.3-3.8 3-4.5 3.7-0.8 0.8-1.2 1.8-1 2.2 0.2 0.4 1 0.8 1.7 0.8 0.8 0 3.1 0.6 5.3 1.3 3.6 1.2 4.3 1.2 10.1-0.1 3.5-0.8 7.5-1.7 9-2.1 1.5-0.3 6.2-1.3 10.5-2.2 4.3-0.8 11.2-2.3 15.2-3.2 4.1-0.9 9-1.9 11-2.3 1.9-0.4 5.1-1 7.2-1.5 2.7-0.6 3.7-1.2 3.6-2.2 0-0.8-0.3-2.1-0.7-2.9zm-3.6-1.8c0.1 1 0.3 2.2 0.4 2.7 0 0.6-0.7 1.2-1.7 1.4-0.9 0.2-2.2 0.4-2.7 0.4-0.5 0-1.2-1.1-1.4-2.5-0.3-1.4-0.3-2.6-0.2-2.7 0.1 0 1.4-0.3 2.8-0.6 2.2-0.4 2.5-0.2 2.8 1.3zm-9.4 2c0.2 1.1 0.3 2.4 0.4 2.7 0.1 0.3-0.3 0.7-0.9 0.9-0.5 0.1-3.9 0.9-7.6 1.6-3.6 0.8-8.5 1.8-10.9 2.4-2.3 0.5-6.9 1.5-10.1 2.2-3.2 0.7-8.9 1.9-12.5 2.7-5.1 1-7.3 1.2-12.6-0.3l2.2-1.6c1.2-0.8 3.6-2 5.3-2.5 1.7-0.5 5.8-1.4 9-2 3.2-0.7 9.9-2.1 14.8-3.1 5-1.1 11.8-2.5 15.2-3.2 3.5-0.8 6.5-1.5 6.9-1.7 0.3-0.1 0.7 0.7 0.8 1.9zm13.4 0.2c-0.2 0-0.4 0.1-0.4 0.4 0 0.2 0.2 0.3 0.4 0.3 0.2 0 0.4-0.1 0.4-0.3 0-0.3-0.2-0.4-0.4-0.4zm-0.8-2.4c-0.2 0-0.4 0.2-0.4 0.4 0 0.2 0.2 0.4 0.4 0.4 0.2 0 0.4-0.2 0.4-0.4 0-0.2-0.2-0.4-0.4-0.4zm-0.8-4.7c-0.2 0-0.4 0.2-0.4 0.4 0 0.2 0.2 0.4 0.4 0.4 0.2 0 0.4-0.2 0.4-0.4 0-0.2-0.2-0.4-0.4-0.4zm-3.1 11.7c-0.2 0-0.4 0.2-0.4 0.4 0 0.2 0.2 0.4 0.4 0.4 0.2 0 0.4-0.2 0.4-0.4 0-0.2-0.2-0.4-0.4-0.4zm-3.1-11.7c-0.2 0-0.4 0.2-0.4 0.4 0 0.2 0.2 0.4 0.4 0.4 0.2 0 0.4-0.2 0.4-0.4 0-0.2-0.2-0.4-0.4-0.4zm0 12.5c-0.2 0-0.4 0.2-0.4 0.4 0 0.2 0.2 0.4 0.4 0.4 0.2 0 0.4-0.2 0.4-0.4 0-0.2-0.2-0.4-0.4-0.4zm-10.9 2.4c-0.2 0-0.4 0.1-0.4 0.3 0 0.3 0.2 0.4 0.4 0.4 0.2 0 0.4-0.1 0.4-0.4 0-0.2-0.2-0.3-0.4-0.3zm-1.6-12.5c-0.2 0-0.4 0.2-0.4 0.4 0 0.2 0.2 0.4 0.4 0.4 0.2 0 0.4-0.2 0.4-0.4 0-0.2-0.2-0.4-0.4-0.4zm-3.1 13.2c-0.2 0-0.4 0.2-0.4 0.4 0 0.2 0.2 0.4 0.4 0.4 0.2 0 0.4-0.2 0.4-0.4 0-0.2-0.2-0.4-0.4-0.4zm-3.1-11.7c-0.2 0-0.4 0.2-0.4 0.4 0 0.2 0.2 0.4 0.4 0.4 0.2 0 0.4-0.2 0.4-0.4 0-0.2-0.2-0.4-0.4-0.4zm0 12.5c-0.2 0-0.4 0.2-0.4 0.4 0 0.2 0.2 0.4 0.4 0.4 0.2 0 0.4-0.2 0.4-0.4 0-0.2-0.2-0.4-0.4-0.4zm-3.2 0.8c-0.2 0-0.3 0.2-0.3 0.4 0 0.2 0.1 0.4 0.3 0.4 0.3 0 0.4-0.2 0.4-0.4 0-0.2-0.1-0.4-0.4-0.4zm-1.5-12.5c-0.2 0-0.4 0.2-0.4 0.4 0 0.2 0.2 0.4 0.4 0.4 0.2 0 0.4-0.2 0.4-0.4 0-0.2-0.2-0.4-0.4-0.4zm-3.1 13.3c-0.2 0-0.4 0.1-0.4 0.4 0 0.2 0.2 0.4 0.4 0.4 0.2 0 0.4-0.2 0.4-0.4 0-0.3-0.2-0.4-0.4-0.4zm-2.4-11.7c-0.2 0-0.4 0.2-0.4 0.4 0 0.2 0.2 0.4 0.4 0.4 0.2 0 0.4-0.2 0.4-0.4 0-0.2-0.2-0.4-0.4-0.4zm-0.8 12.5c-0.2 0-0.3 0.1-0.3 0.3 0 0.3 0.1 0.4 0.3 0.4 0.3 0 0.4-0.1 0.4-0.4 0-0.2-0.1-0.3-0.4-0.3zm-4.6-11.7c-0.2 0-0.4 0.1-0.4 0.4 0 0.2 0.2 0.3 0.4 0.3 0.2 0 0.4-0.1 0.4-0.3 0-0.3-0.2-0.4-0.4-0.4zm0 12.4c-0.2 0-0.4 0.2-0.4 0.4 0 0.2 0.2 0.4 0.4 0.4 0.2 0 0.4-0.2 0.4-0.4 0-0.2-0.2-0.4-0.4-0.4zm-3.2-11.7c-0.2 0-0.3 0.2-0.3 0.4 0 0.2 0.1 0.4 0.3 0.4 0.3 0 0.4-0.2 0.4-0.4 0-0.2-0.1-0.4-0.4-0.4zm0 12.5c-0.2 0-0.3 0.2-0.3 0.4 0 0.2 0.1 0.4 0.3 0.4 0.3 0 0.4-0.2 0.4-0.4 0-0.2-0.1-0.4-0.4-0.4zm-2.3-11.7c-0.2 0-0.4 0.2-0.4 0.4 0 0.2 0.2 0.4 0.4 0.4 0.2 0 0.4-0.2 0.4-0.4 0-0.2-0.2-0.4-0.4-0.4zm-4.7 0.8c-0.2 0-0.4 0.2-0.4 0.4 0 0.2 0.2 0.4 0.4 0.4 0.2 0 0.4-0.2 0.4-0.4 0-0.2-0.2-0.4-0.4-0.4zm-0.7 12.5c-0.3 0-0.4 0.1-0.4 0.4 0 0.2 0.1 0.3 0.4 0.3 0.2 0 0.3-0.1 0.3-0.3 0-0.3-0.1-0.4-0.3-0.4zm-2.8-11.8c-0.6 0-0.9 0.3-0.6 0.6 0.4 0.4 0.9 0.4 1.2 0 0.3-0.3 0.1-0.6-0.6-0.6zm-0.4 12.5c-0.2 0-0.4 0.2-0.4 0.4 0 0.3 0.2 0.4 0.4 0.4 0.2 0 0.4-0.1 0.4-0.4 0-0.2-0.2-0.4-0.4-0.4zm-2.3 0.8c-0.2 0-0.4 0.2-0.4 0.4 0 0.2 0.2 0.4 0.4 0.4 0.2 0 0.4-0.2 0.4-0.4 0-0.2-0.2-0.4-0.4-0.4zm-4.7-11.7c-0.2 0-0.4 0.2-0.4 0.4 0 0.2 0.2 0.4 0.4 0.4 0.2 0 0.4-0.2 0.4-0.4 0-0.2-0.2-0.4-0.4-0.4zm-4.7 3.2c-0.2 0-0.4 0.1-0.4 0.3 0 0.3 0.2 0.4 0.4 0.4 0.2 0 0.4-0.1 0.4-0.4 0-0.2-0.2-0.3-0.4-0.3zm-3.9 3.1c-0.2 0-0.4 0.1-0.4 0.4 0 0.2 0.2 0.4 0.4 0.4 0.2 0 0.4-0.2 0.4-0.4 0-0.3-0.2-0.4-0.4-0.4zm72.6-10.9c-0.3 0-0.4 0.1-0.4 0.4 0 0.2 0.1 0.3 0.4 0.3 0.2 0 0.4-0.1 0.4-0.3 0-0.3-0.2-0.4-0.4-0.4zm-1.6-6.3c-0.2 0-0.4 0.2-0.4 0.4 0 0.2 0.2 0.4 0.4 0.4 0.2 0 0.4-0.2 0.4-0.4 0-0.2-0.2-0.4-0.4-0.4zm-4.7-2.3c-0.2 0-0.4 0.2-0.4 0.4 0 0.2 0.2 0.4 0.4 0.4 0.2 0 0.4-0.2 0.4-0.4 0-0.2-0.2-0.4-0.4-0.4zm-7 15.6c-0.2 0-0.4 0.2-0.4 0.4 0 0.2 0.2 0.4 0.4 0.4 0.2 0 0.4-0.2 0.4-0.4 0-0.2-0.2-0.4-0.4-0.4zm-2.3 0.8c-0.2 0-0.4 0.1-0.4 0.3 0 0.3 0.2 0.4 0.4 0.4 0.2 0 0.4-0.1 0.4-0.4 0-0.2-0.2-0.3-0.4-0.3zm-4.7 0.7c-0.2 0-0.4 0.2-0.4 0.4 0 0.2 0.2 0.4 0.4 0.4 0.2 0 0.4-0.2 0.4-0.4 0-0.2-0.2-0.4-0.4-0.4zm-7.8 1.6c-0.2 0-0.4 0.2-0.4 0.4 0 0.2 0.2 0.4 0.4 0.4 0.2 0 0.4-0.2 0.4-0.4 0-0.2-0.2-0.4-0.4-0.4zm-3.1-13.3c-0.2 0-0.4 0.2-0.4 0.4 0 0.2 0.2 0.4 0.4 0.4 0.2 0 0.4-0.2 0.4-0.4 0-0.2-0.2-0.4-0.4-0.4zm0 14.1c-0.2 0-0.4 0.1-0.4 0.4 0 0.2 0.2 0.4 0.4 0.4 0.2 0 0.4-0.2 0.4-0.4 0-0.3-0.2-0.4-0.4-0.4zm-3.2 0.8c-0.2 0-0.3 0.1-0.3 0.3 0 0.3 0.1 0.4 0.3 0.4 0.3 0 0.4-0.1 0.4-0.4 0-0.2-0.1-0.3-0.4-0.3zm-3.9-13.3c-0.2 0-0.3 0.2-0.3 0.4 0 0.2 0.1 0.4 0.3 0.4 0.3 0 0.4-0.2 0.4-0.4 0-0.2-0.1-0.4-0.4-0.4zm-0.7 14c-0.2 0-0.4 0.2-0.4 0.4 0 0.2 0.2 0.4 0.4 0.4 0.2 0 0.4-0.2 0.4-0.4 0-0.2-0.2-0.4-0.4-0.4zm-6.3 1.6c-0.2 0-0.4 0.2-0.4 0.4 0 0.2 0.2 0.4 0.4 0.4 0.2 0 0.4-0.2 0.4-0.4 0-0.2-0.2-0.4-0.4-0.4zm-7.8 1.5c-0.2 0-0.4 0.2-0.4 0.4 0 0.3 0.2 0.4 0.4 0.4 0.2 0 0.4-0.1 0.4-0.4 0-0.2-0.2-0.4-0.4-0.4zm-14.8 0.8c-0.2 0-0.4 0.2-0.4 0.4 0 0.2 0.2 0.4 0.4 0.4 0.2 0 0.4-0.2 0.4-0.4 0-0.2-0.2-0.4-0.4-0.4zm-2.3-0.8c-0.2 0-0.4 0.2-0.4 0.4 0 0.3 0.2 0.4 0.4 0.4 0.2 0 0.4-0.1 0.4-0.4 0-0.2-0.2-0.4-0.4-0.4zm-0.8-7c-0.2 0-0.4 0.2-0.4 0.4 0 0.2 0.2 0.4 0.4 0.4 0.2 0 0.4-0.2 0.4-0.4 0-0.2-0.2-0.4-0.4-0.4zm-3.9 4.7c-0.2 0-0.4 0.2-0.4 0.4 0 0.2 0.2 0.4 0.4 0.4 0.2 0 0.4-0.2 0.4-0.4 0-0.2-0.2-0.4-0.4-0.4zm74.1-16.4c-0.2 0-0.4 0.2-0.4 0.4 0 0.2 0.2 0.4 0.4 0.4 0.2 0 0.4-0.2 0.4-0.4 0-0.2-0.2-0.4-0.4-0.4zm-4.7 8.6c-0.2 0-0.4 0.2-0.4 0.4 0 0.2 0.2 0.4 0.4 0.4 0.2 0 0.4-0.2 0.4-0.4 0-0.2-0.2-0.4-0.4-0.4zm-3.9-13.2c-0.2 0-0.4 0.1-0.4 0.4 0 0.2 0.2 0.3 0.4 0.3 0.2 0 0.4-0.1 0.4-0.3 0-0.3-0.2-0.4-0.4-0.4zm-0.8 14c-0.2 0-0.4 0.2-0.4 0.4 0 0.2 0.2 0.4 0.4 0.4 0.2 0 0.4-0.2 0.4-0.4 0-0.2-0.2-0.4-0.4-0.4zm-6.2 1.6c-0.2 0-0.4 0.1-0.4 0.3 0 0.3 0.2 0.4 0.4 0.4 0.2 0 0.4-0.1 0.4-0.4 0-0.2-0.2-0.3-0.4-0.3zm-3.9-13.3c-0.2 0-0.4 0.2-0.4 0.4 0 0.2 0.2 0.4 0.4 0.4 0.2 0 0.4-0.2 0.4-0.4 0-0.2-0.2-0.4-0.4-0.4zm-3.9 14.8c-0.2 0-0.4 0.2-0.4 0.4 0 0.2 0.2 0.4 0.4 0.4 0.2 0 0.4-0.2 0.4-0.4 0-0.2-0.2-0.4-0.4-0.4zm-3.1-13.2c-0.2 0-0.4 0.1-0.4 0.4 0 0.2 0.2 0.3 0.4 0.3 0.2 0 0.4-0.1 0.4-0.3 0-0.3-0.2-0.4-0.4-0.4zm-7.8 1.5c-0.2 0-0.4 0.2-0.4 0.4 0 0.2 0.2 0.4 0.4 0.4 0.2 0 0.4-0.2 0.4-0.4 0-0.2-0.2-0.4-0.4-0.4zm0 14.1c-0.2 0-0.4 0.1-0.4 0.3 0 0.3 0.2 0.4 0.4 0.4 0.2 0 0.4-0.1 0.4-0.4 0-0.2-0.2-0.3-0.4-0.3zm-7.1 1.5c-0.2 0-0.3 0.2-0.3 0.4 0 0.2 0.1 0.4 0.3 0.4 0.3 0 0.4-0.2 0.4-0.4 0-0.2-0.1-0.4-0.4-0.4zm-3.9-13.2c-0.2 0-0.3 0.1-0.3 0.4 0 0.2 0.1 0.3 0.3 0.3 0.3 0 0.4-0.1 0.4-0.3 0-0.3-0.1-0.4-0.4-0.4zm-3.9 14.8c-0.2 0-0.3 0.1-0.3 0.4 0 0.2 0.1 0.3 0.3 0.3 0.3 0 0.4-0.1 0.4-0.3 0-0.3-0.1-0.4-0.4-0.4zm-2.3-13.3c-0.2 0-0.4 0.2-0.4 0.4 0 0.2 0.2 0.4 0.4 0.4 0.2 0 0.4-0.2 0.4-0.4 0-0.2-0.2-0.4-0.4-0.4zm-1.5 14c-0.3 0-0.4 0.2-0.4 0.4 0 0.3 0.1 0.4 0.4 0.4 0.2 0 0.3-0.1 0.3-0.4 0-0.2-0.1-0.4-0.3-0.4zm-2.4 0.8c-0.2 0-0.4 0.2-0.4 0.4 0 0.2 0.2 0.4 0.4 0.4 0.2 0 0.4-0.2 0.4-0.4 0-0.2-0.2-0.4-0.4-0.4zm-0.8-14c-0.2 0-0.4 0.2-0.4 0.4 0 0.2 0.2 0.4 0.4 0.4 0.2 0 0.4-0.2 0.4-0.4 0-0.2-0.2-0.4-0.4-0.4zm-7 14.8c-0.2 0-0.4 0.2-0.4 0.4 0 0.2 0.2 0.4 0.4 0.4 0.2 0 0.4-0.2 0.4-0.4 0-0.2-0.2-0.4-0.4-0.4zm-0.8-13.2c-0.2 0-0.4 0.1-0.4 0.3 0 0.3 0.2 0.4 0.4 0.4 0.2 0 0.4-0.1 0.4-0.4 0-0.2-0.2-0.3-0.4-0.3zm-10.1 8.5c-0.2 0-0.4 0.2-0.4 0.4 0 0.2 0.2 0.4 0.4 0.4 0.2 0 0.4-0.2 0.4-0.4 0-0.2-0.2-0.4-0.4-0.4zm74.9-10.1c-0.3 0-0.4 0.2-0.4 0.4 0 0.2 0.1 0.4 0.4 0.4 0.2 0 0.4-0.2 0.4-0.4 0-0.2-0.2-0.4-0.4-0.4zm-0.8-3.9c-0.2 0-0.4 0.2-0.4 0.4 0 0.2 0.2 0.4 0.4 0.4 0.2 0 0.4-0.2 0.4-0.4 0-0.2-0.2-0.4-0.4-0.4zm-3.1-7c-0.3 0-0.4 0.2-0.4 0.4 0 0.2 0.1 0.4 0.4 0.4 0.2 0 0.4-0.2 0.4-0.4 0-0.2-0.2-0.4-0.4-0.4zm-14.1 16.4c-0.2 0-0.4 0.1-0.4 0.3 0 0.3 0.2 0.4 0.4 0.4 0.2 0 0.4-0.1 0.4-0.4 0-0.2-0.2-0.3-0.4-0.3zm-14.8 3.1c-0.2 0-0.4 0.1-0.4 0.4 0 0.2 0.2 0.4 0.4 0.4 0.2 0 0.4-0.2 0.4-0.4 0-0.3-0.2-0.4-0.4-0.4zm-0.8-13.3c-0.2 0-0.4 0.2-0.4 0.4 0 0.2 0.2 0.4 0.4 0.4 0.2 0 0.4-0.2 0.4-0.4 0-0.2-0.2-0.4-0.4-0.4zm-2.3 0.8c-0.2 0-0.4 0.2-0.4 0.4 0 0.2 0.2 0.4 0.4 0.4 0.2 0 0.4-0.2 0.4-0.4 0-0.2-0.2-0.4-0.4-0.4zm-15.6 16.4c-0.2 0-0.4 0.1-0.4 0.4 0 0.2 0.2 0.3 0.4 0.3 0.2 0 0.4-0.1 0.4-0.3 0-0.3-0.2-0.4-0.4-0.4zm-3.9 0.7c-0.2 0-0.4 0.2-0.4 0.4 0 0.3 0.2 0.4 0.4 0.4 0.2 0 0.4-0.1 0.4-0.4 0-0.2-0.2-0.4-0.4-0.4zm-7 1.6c-0.2 0-0.4 0.2-0.4 0.4 0 0.2 0.2 0.4 0.4 0.4 0.2 0 0.4-0.2 0.4-0.4 0-0.2-0.2-0.4-0.4-0.4zm-3.9-11.7c-0.2 0-0.4 0.2-0.4 0.4 0 0.2 0.2 0.4 0.4 0.4 0.2 0 0.4-0.2 0.4-0.4 0-0.2-0.2-0.4-0.4-0.4zm-5.5 9.4c-0.2 0-0.4 0.1-0.4 0.4 0 0.2 0.2 0.3 0.4 0.3 0.2 0 0.4-0.1 0.4-0.3 0-0.3-0.2-0.4-0.4-0.4zm-2.3-3.1c-0.2 0-0.4 0.1-0.4 0.3 0 0.3 0.2 0.4 0.4 0.4 0.2 0 0.4-0.1 0.4-0.4 0-0.2-0.2-0.3-0.4-0.3zm72.5-14.9c-0.2 0-0.4 0.2-0.4 0.4 0 0.2 0.2 0.4 0.4 0.4 0.2 0 0.4-0.2 0.4-0.4 0-0.2-0.2-0.4-0.4-0.4zm-3.1 7.8c-0.2 0-0.4 0.2-0.4 0.4 0 0.2 0.2 0.4 0.4 0.4 0.2 0 0.4-0.2 0.4-0.4 0-0.2-0.2-0.4-0.4-0.4zm-4.7-11.7c-0.2 0-0.4 0.2-0.4 0.4 0 0.2 0.2 0.4 0.4 0.4 0.2 0 0.4-0.2 0.4-0.4 0-0.2-0.2-0.4-0.4-0.4zm-3.1 13.3c-0.2 0-0.4 0.2-0.4 0.4 0 0.2 0.2 0.4 0.4 0.4 0.2 0 0.4-0.2 0.4-0.4 0-0.2-0.2-0.4-0.4-0.4zm-1.6-12.5c-0.2 0-0.4 0.2-0.4 0.4 0 0.2 0.2 0.4 0.4 0.4 0.2 0 0.4-0.2 0.4-0.4 0-0.2-0.2-0.4-0.4-0.4zm-3.1 0.8c-0.2 0-0.4 0.2-0.4 0.4 0 0.2 0.2 0.4 0.4 0.4 0.2 0 0.4-0.2 0.4-0.4 0-0.2-0.2-0.4-0.4-0.4zm-6.2 14c-0.2 0-0.4 0.2-0.4 0.4 0 0.2 0.2 0.4 0.4 0.4 0.2 0 0.4-0.2 0.4-0.4 0-0.2-0.2-0.4-0.4-0.4zm-4.7-11.7c-0.2 0-0.4 0.2-0.4 0.4 0 0.2 0.2 0.4 0.4 0.4 0.2 0 0.4-0.2 0.4-0.4 0-0.2-0.2-0.4-0.4-0.4zm-1.6 13.3c-0.2 0-0.4 0.2-0.4 0.4 0 0.2 0.2 0.4 0.4 0.4 0.2 0 0.4-0.2 0.4-0.4 0-0.2-0.2-0.4-0.4-0.4zm-5.4-11.7c-0.2 0-0.4 0.2-0.4 0.4 0 0.2 0.2 0.4 0.4 0.4 0.2 0 0.4-0.2 0.4-0.4 0-0.2-0.2-0.4-0.4-0.4zm-7.1 14c-0.2 0-0.3 0.2-0.3 0.4 0 0.2 0.1 0.4 0.3 0.4 0.3 0 0.4-0.2 0.4-0.4 0-0.2-0.1-0.4-0.4-0.4zm-4.6-11.7c-0.2 0-0.4 0.2-0.4 0.4 0 0.2 0.2 0.4 0.4 0.4 0.2 0 0.4-0.2 0.4-0.4 0-0.2-0.2-0.4-0.4-0.4zm-1.6 13.3c-0.2 0-0.4 0.2-0.4 0.4 0 0.2 0.2 0.4 0.4 0.4 0.2 0 0.4-0.2 0.4-0.4 0-0.2-0.2-0.4-0.4-0.4zm-7.8 1.5c-0.2 0-0.4 0.2-0.4 0.4 0 0.3 0.2 0.4 0.4 0.4 0.2 0 0.4-0.1 0.4-0.4 0-0.2-0.2-0.4-0.4-0.4zm-9.3 0.8c-0.3 0-0.4 0.2-0.4 0.4 0 0.2 0.1 0.4 0.4 0.4 0.2 0 0.3-0.2 0.3-0.4 0-0.2-0.1-0.4-0.3-0.4zm-5.5-7c-0.2 0-0.4 0.2-0.4 0.4 0 0.2 0.2 0.4 0.4 0.4 0.2 0 0.4-0.2 0.4-0.4 0-0.2-0.2-0.4-0.4-0.4zm70.2-10.1c-0.2 0-0.4 0.2-0.4 0.4 0 0.2 0.2 0.4 0.4 0.4 0.2 0 0.4-0.2 0.4-0.4 0-0.2-0.2-0.4-0.4-0.4zm-6.3-7c-0.2 0-0.3 0.1-0.3 0.4 0 0.2 0.1 0.3 0.3 0.3 0.3 0 0.4-0.1 0.4-0.3 0-0.3-0.1-0.4-0.4-0.4zm-11.7 15.6c-0.2 0-0.3 0.1-0.3 0.3 0 0.3 0.1 0.4 0.3 0.4 0.3 0 0.4-0.1 0.4-0.4 0-0.2-0.1-0.3-0.4-0.3zm-14-10.2c-0.2 0-0.4 0.2-0.4 0.4 0 0.2 0.2 0.4 0.4 0.4 0.2 0 0.4-0.2 0.4-0.4 0-0.2-0.2-0.4-0.4-0.4zm-4.7 14.1c-0.2 0-0.4 0.1-0.4 0.3 0 0.3 0.2 0.4 0.4 0.4 0.2 0 0.4-0.1 0.4-0.4 0-0.2-0.2-0.3-0.4-0.3zm-1.5-12.5c-0.2 0-0.4 0.2-0.4 0.4 0 0.2 0.2 0.4 0.4 0.4 0.2 0 0.4-0.2 0.4-0.4 0-0.2-0.2-0.4-0.4-0.4zm-5.5 14c-0.2 0-0.4 0.2-0.4 0.4 0 0.2 0.2 0.4 0.4 0.4 0.2 0 0.4-0.2 0.4-0.4 0-0.2-0.2-0.4-0.4-0.4zm-13.2-10.1c-0.3 0-0.4 0.2-0.4 0.4 0 0.2 0.1 0.4 0.4 0.4 0.2 0 0.3-0.2 0.3-0.4 0-0.2-0.1-0.4-0.3-0.4zm-7.1 1.5c-0.2 0-0.4 0.2-0.4 0.4 0 0.2 0.2 0.4 0.4 0.4 0.2 0 0.4-0.2 0.4-0.4 0-0.2-0.2-0.4-0.4-0.4zm63.2-0.7c-0.2 0-0.4 0.1-0.4 0.3 0 0.3 0.2 0.4 0.4 0.4 0.2 0 0.4-0.1 0.4-0.4 0-0.2-0.2-0.3-0.4-0.3zm-16.4-9.4c-0.2 0-0.4 0.2-0.4 0.4 0 0.2 0.2 0.4 0.4 0.4 0.2 0 0.4-0.2 0.4-0.4 0-0.2-0.2-0.4-0.4-0.4zm-3.9 0.8c-0.2 0-0.4 0.2-0.4 0.4 0 0.2 0.2 0.4 0.4 0.4 0.2 0 0.4-0.2 0.4-0.4 0-0.2-0.2-0.4-0.4-0.4zm-3.1 0.8c-0.2 0-0.4 0.1-0.4 0.4 0 0.2 0.2 0.3 0.4 0.3 0.2 0 0.4-0.1 0.4-0.3 0-0.3-0.2-0.4-0.4-0.4zm-1.6 13.2c-0.2 0-0.3 0.2-0.3 0.4 0 0.2 0.1 0.4 0.3 0.4 0.3 0 0.4-0.2 0.4-0.4 0-0.2-0.1-0.4-0.4-0.4zm-2.3-12.5c-0.2 0-0.4 0.2-0.4 0.4 0 0.2 0.2 0.4 0.4 0.4 0.2 0 0.4-0.2 0.4-0.4 0-0.2-0.2-0.4-0.4-0.4zm-4.7 14.1c-0.2 0-0.4 0.1-0.4 0.4 0 0.2 0.2 0.4 0.4 0.4 0.2 0 0.4-0.2 0.4-0.4 0-0.3-0.2-0.4-0.4-0.4zm-7.8 1.5c-0.2 0-0.4 0.2-0.4 0.4 0 0.2 0.2 0.4 0.4 0.4 0.2 0 0.4-0.2 0.4-0.4 0-0.2-0.2-0.4-0.4-0.4zm-2.3-12.4c-0.2 0-0.4 0.1-0.4 0.4 0 0.2 0.2 0.3 0.4 0.3 0.2 0 0.4-0.1 0.4-0.3 0-0.3-0.2-0.4-0.4-0.4zm-6.3 1.5c-0.2 0-0.3 0.2-0.3 0.4 0 0.2 0.1 0.4 0.3 0.4 0.3 0 0.4-0.2 0.4-0.4 0-0.2-0.1-0.4-0.4-0.4zm-2.3 13.3c-0.2 0-0.4 0.1-0.4 0.4 0 0.2 0.2 0.3 0.4 0.3 0.2 0 0.4-0.1 0.4-0.3 0-0.3-0.2-0.4-0.4-0.4zm-15.6 0.7c-0.2 0-0.4 0.2-0.4 0.4 0 0.3 0.2 0.4 0.4 0.4 0.2 0 0.4-0.1 0.4-0.4 0-0.2-0.2-0.4-0.4-0.4zm-3.1-0.7c-0.2 0-0.4 0.1-0.4 0.4 0 0.2 0.2 0.3 0.4 0.3 0.2 0 0.4-0.1 0.4-0.3 0-0.3-0.2-0.4-0.4-0.4zm56.9-7.8c-0.2 0-0.4 0.2-0.4 0.4 0 0.2 0.2 0.4 0.4 0.4 0.2 0 0.4-0.2 0.4-0.4 0-0.2-0.2-0.4-0.4-0.4zm-2.3-13.3c-0.2 0-0.4 0.2-0.4 0.4 0 0.2 0.2 0.4 0.4 0.4 0.2 0 0.4-0.2 0.4-0.4 0-0.2-0.2-0.4-0.4-0.4zm-25 5.5c-0.2 0-0.4 0.2-0.4 0.4 0 0.2 0.2 0.4 0.4 0.4 0.2 0 0.4-0.2 0.4-0.4 0-0.2-0.2-0.4-0.4-0.4zm-4.7 14.8c-0.2 0-0.3 0.2-0.3 0.4 0 0.2 0.1 0.4 0.3 0.4 0.3 0 0.4-0.2 0.4-0.4 0-0.2-0.1-0.4-0.4-0.4zm-10.1-11.7c-0.2 0-0.4 0.2-0.4 0.4 0 0.2 0.2 0.4 0.4 0.4 0.2 0 0.4-0.2 0.4-0.4 0-0.2-0.2-0.4-0.4-0.4zm-3.9 0.8c-0.2 0-0.4 0.2-0.4 0.4 0 0.2 0.2 0.4 0.4 0.4 0.2 0 0.4-0.2 0.4-0.4 0-0.2-0.2-0.4-0.4-0.4zm-0.8 14c-0.2 0-0.4 0.2-0.4 0.4 0 0.2 0.2 0.4 0.4 0.4 0.2 0 0.4-0.2 0.4-0.4 0-0.2-0.2-0.4-0.4-0.4zm-7-10.9c-0.2 0-0.4 0.2-0.4 0.4 0 0.2 0.2 0.4 0.4 0.4 0.2 0 0.4-0.2 0.4-0.4 0-0.2-0.2-0.4-0.4-0.4zm66.3-10.1c-0.2 0-0.4 0.1-0.4 0.4 0 0.2 0.2 0.3 0.4 0.3 0.2 0 0.4-0.1 0.4-0.3 0-0.3-0.2-0.4-0.4-0.4zm-2.3 8.5c-0.3 0-0.4 0.2-0.4 0.4 0 0.2 0.1 0.4 0.4 0.4 0.2 0 0.4-0.2 0.4-0.4 0-0.2-0.2-0.4-0.4-0.4zm-3.9 0.8c-0.3 0-0.4 0.2-0.4 0.4 0 0.2 0.1 0.4 0.4 0.4 0.2 0 0.4-0.2 0.4-0.4 0-0.2-0.2-0.4-0.4-0.4zm-2.4-12.5c-0.2 0-0.4 0.2-0.4 0.4 0 0.2 0.2 0.4 0.4 0.4 0.2 0 0.4-0.2 0.4-0.4 0-0.2-0.2-0.4-0.4-0.4zm-5.4 14.1c-0.2 0-0.4 0.2-0.4 0.4 0 0.2 0.2 0.4 0.4 0.4 0.2 0 0.4-0.2 0.4-0.4 0-0.2-0.2-0.4-0.4-0.4zm-7.1 1.5c-0.2 0-0.3 0.2-0.3 0.4 0 0.2 0.1 0.4 0.3 0.4 0.3 0 0.4-0.2 0.4-0.4 0-0.2-0.1-0.4-0.4-0.4zm-17.1-9.3c-0.2 0-0.4 0.2-0.4 0.4 0 0.2 0.2 0.4 0.4 0.4 0.2 0 0.4-0.2 0.4-0.4 0-0.2-0.2-0.4-0.4-0.4zm-7.8 1.5c-0.2 0-0.4 0.2-0.4 0.4 0 0.2 0.2 0.4 0.4 0.4 0.2 0 0.4-0.2 0.4-0.4 0-0.2-0.2-0.4-0.4-0.4zm0 13.3c-0.2 0-0.4 0.2-0.4 0.4 0 0.2 0.2 0.4 0.4 0.4 0.2 0 0.4-0.2 0.4-0.4 0-0.2-0.2-0.4-0.4-0.4zm-7-11.7c-0.2 0-0.4 0.2-0.4 0.4 0 0.2 0.2 0.4 0.4 0.4 0.2 0 0.4-0.2 0.4-0.4 0-0.2-0.2-0.4-0.4-0.4zm-3.9 14c-0.2 0-0.4 0.2-0.4 0.4 0 0.2 0.2 0.4 0.4 0.4 0.2 0 0.4-0.2 0.4-0.4 0-0.2-0.2-0.4-0.4-0.4zm-3.9-12.4c-0.2 0-0.4 0.1-0.4 0.3 0 0.3 0.2 0.4 0.4 0.4 0.2 0 0.4-0.1 0.4-0.4 0-0.2-0.2-0.3-0.4-0.3zm61.6-6.3c-0.2 0-0.4 0.2-0.4 0.4 0 0.2 0.2 0.4 0.4 0.4 0.2 0 0.4-0.2 0.4-0.4 0-0.2-0.2-0.4-0.4-0.4zm0 6.3c-0.2 0-0.4 0.1-0.4 0.3 0 0.3 0.2 0.4 0.4 0.4 0.2 0 0.4-0.1 0.4-0.4 0-0.2-0.2-0.3-0.4-0.3zm-2.4-12.5c-0.2 0-0.3 0.2-0.3 0.4 0 0.2 0.1 0.4 0.3 0.4 0.3 0 0.4-0.2 0.4-0.4 0-0.2-0.1-0.4-0.4-0.4zm-3.9 14c-0.2 0-0.3 0.2-0.3 0.4 0 0.2 0.1 0.4 0.3 0.4 0.3 0 0.4-0.2 0.4-0.4 0-0.2-0.1-0.4-0.4-0.4zm-3.9 0.8c-0.2 0-0.3 0.2-0.3 0.4 0 0.2 0.1 0.4 0.3 0.4 0.3 0 0.4-0.2 0.4-0.4 0-0.2-0.1-0.4-0.4-0.4zm-3.9 0.8c-0.2 0-0.3 0.2-0.3 0.4 0 0.2 0.1 0.4 0.3 0.4 0.3 0 0.4-0.2 0.4-0.4 0-0.2-0.1-0.4-0.4-0.4zm-10.9-10.9c-0.2 0-0.4 0.1-0.4 0.4 0 0.2 0.2 0.3 0.4 0.3 0.2 0 0.4-0.1 0.4-0.3 0-0.3-0.2-0.4-0.4-0.4zm0 13.2c-0.2 0-0.4 0.2-0.4 0.4 0 0.2 0.2 0.4 0.4 0.4 0.2 0 0.4-0.2 0.4-0.4 0-0.2-0.2-0.4-0.4-0.4zm-3.9-12.5c-0.2 0-0.4 0.2-0.4 0.4 0 0.2 0.2 0.4 0.4 0.4 0.2 0 0.4-0.2 0.4-0.4 0-0.2-0.2-0.4-0.4-0.4zm-14.8 3.2c-0.2 0-0.4 0.1-0.4 0.4 0 0.2 0.2 0.3 0.4 0.3 0.2 0 0.4-0.1 0.4-0.3 0-0.3-0.2-0.4-0.4-0.4zm-13.2 16.3c-0.3 0-0.4 0.2-0.4 0.4 0 0.2 0.1 0.4 0.4 0.4 0.2 0 0.3-0.2 0.3-0.4 0-0.2-0.1-0.4-0.3-0.4zm-3.9 0.8c-0.3 0-0.4 0.2-0.4 0.4 0 0.2 0.1 0.4 0.4 0.4 0.2 0 0.3-0.2 0.3-0.4 0-0.2-0.1-0.4-0.3-0.4zm-1.6-13.2c-0.2 0-0.4 0.1-0.4 0.3 0 0.3 0.2 0.4 0.4 0.4 0.2 0 0.4-0.1 0.4-0.4 0-0.2-0.2-0.3-0.4-0.3zm-6.2 3.9c-0.3 0-0.4 0.1-0.4 0.3 0 0.3 0.1 0.4 0.4 0.4 0.2 0 0.3-0.1 0.3-0.4 0-0.2-0.1-0.3-0.3-0.3zm-3.9 3.1c-0.3 0-0.4 0.1-0.4 0.4 0 0.2 0.1 0.4 0.4 0.4 0.2 0 0.3-0.2 0.3-0.4 0-0.3-0.1-0.4-0.3-0.4zm71.7-15.6c-0.2 0-0.4 0.2-0.4 0.4 0 0.2 0.2 0.4 0.4 0.4 0.2 0 0.4-0.2 0.4-0.4 0-0.2-0.2-0.4-0.4-0.4zm-1.6 9.3c-0.2 0-0.3 0.2-0.3 0.4 0 0.2 0.1 0.4 0.3 0.4 0.3 0 0.4-0.2 0.4-0.4 0-0.2-0.1-0.4-0.4-0.4zm-7.8-11.7c-0.2 0-0.3 0.2-0.3 0.4 0 0.2 0.1 0.4 0.3 0.4 0.3 0 0.4-0.2 0.4-0.4 0-0.2-0.1-0.4-0.4-0.4zm-3.9 0.8c-0.2 0-0.3 0.2-0.3 0.4 0 0.2 0.1 0.4 0.3 0.4 0.3 0 0.4-0.2 0.4-0.4 0-0.2-0.1-0.4-0.4-0.4zm-3.9 0.8c-0.2 0-0.3 0.2-0.3 0.4 0 0.2 0.1 0.4 0.3 0.4 0.3 0 0.4-0.2 0.4-0.4 0-0.2-0.1-0.4-0.4-0.4zm-3.1 14c-0.2 0-0.4 0.2-0.4 0.4 0 0.2 0.2 0.4 0.4 0.4 0.2 0 0.4-0.2 0.4-0.4 0-0.2-0.2-0.4-0.4-0.4zm-14.8 3.2c-0.2 0-0.4 0.1-0.4 0.3 0 0.3 0.2 0.4 0.4 0.4 0.2 0 0.4-0.1 0.4-0.4 0-0.2-0.2-0.3-0.4-0.3zm-3.9 0.7c-0.2 0-0.4 0.2-0.4 0.4 0 0.2 0.2 0.4 0.4 0.4 0.2 0 0.4-0.2 0.4-0.4 0-0.2-0.2-0.4-0.4-0.4zm-7.8-11.7c-0.2 0-0.4 0.2-0.4 0.4 0 0.2 0.2 0.4 0.4 0.4 0.2 0 0.4-0.2 0.4-0.4 0-0.2-0.2-0.4-0.4-0.4zm-14.8 16.4c-0.2 0-0.4 0.2-0.4 0.4 0 0.2 0.2 0.4 0.4 0.4 0.2 0 0.4-0.2 0.4-0.4 0-0.2-0.2-0.4-0.4-0.4zm-3.1-0.8c-0.2 0-0.4 0.2-0.4 0.4 0 0.2 0.2 0.4 0.4 0.4 0.2 0 0.4-0.2 0.4-0.4 0-0.2-0.2-0.4-0.4-0.4zm-2.4-9.3c-0.2 0-0.4 0.2-0.4 0.4 0 0.2 0.2 0.4 0.4 0.4 0.2 0 0.4-0.2 0.4-0.4 0-0.2-0.2-0.4-0.4-0.4zm0 8.5c-0.2 0-0.4 0.2-0.4 0.4 0 0.3 0.2 0.4 0.4 0.4 0.2 0 0.4-0.1 0.4-0.4 0-0.2-0.2-0.4-0.4-0.4zm-5.4-1.5c-0.2 0-0.4 0.2-0.4 0.4 0 0.2 0.2 0.4 0.4 0.4 0.2 0 0.4-0.2 0.4-0.4 0-0.2-0.2-0.4-0.4-0.4zm72.5-19.5c-0.2 0-0.4 0.2-0.4 0.4 0 0.2 0.2 0.4 0.4 0.4 0.2 0 0.4-0.2 0.4-0.4 0-0.2-0.2-0.4-0.4-0.4zm-0.8 10.1c-0.2 0-0.4 0.2-0.4 0.4 0 0.2 0.2 0.4 0.4 0.4 0.2 0 0.4-0.2 0.4-0.4 0-0.2-0.2-0.4-0.4-0.4zm-3.9 0.8c-0.2 0-0.4 0.2-0.4 0.4 0 0.2 0.2 0.4 0.4 0.4 0.2 0 0.4-0.2 0.4-0.4 0-0.2-0.2-0.4-0.4-0.4zm-5.4-12.5c-0.2 0-0.4 0.2-0.4 0.4 0 0.2 0.2 0.4 0.4 0.4 0.2 0 0.4-0.2 0.4-0.4 0-0.2-0.2-0.4-0.4-0.4zm-3.9 0.8c-0.2 0-0.4 0.2-0.4 0.4 0 0.2 0.2 0.4 0.4 0.4 0.2 0 0.4-0.2 0.4-0.4 0-0.2-0.2-0.4-0.4-0.4zm-5.5 14.8c-0.2 0-0.4 0.2-0.4 0.4 0 0.2 0.2 0.4 0.4 0.4 0.2 0 0.4-0.2 0.4-0.4 0-0.2-0.2-0.4-0.4-0.4zm-9.4-11.7c-0.2 0-0.3 0.2-0.3 0.4 0 0.2 0.1 0.4 0.3 0.4 0.3 0 0.4-0.2 0.4-0.4 0-0.2-0.1-0.4-0.4-0.4zm-3.9 0.8c-0.2 0-0.3 0.2-0.3 0.4 0 0.2 0.1 0.4 0.3 0.4 0.3 0 0.4-0.2 0.4-0.4 0-0.2-0.1-0.4-0.4-0.4zm-20.2 17.9c-0.2 0-0.4 0.2-0.4 0.4 0 0.3 0.2 0.4 0.4 0.4 0.2 0 0.4-0.1 0.4-0.4 0-0.2-0.2-0.4-0.4-0.4zm-12.5 0.8c-0.2 0-0.4 0.2-0.4 0.4 0 0.2 0.2 0.4 0.4 0.4 0.2 0 0.4-0.2 0.4-0.4 0-0.2-0.2-0.4-0.4-0.4zm-5.5-6.2c-0.2 0-0.4 0.2-0.4 0.4 0 0.2 0.2 0.4 0.4 0.4 0.2 0 0.4-0.2 0.4-0.4 0-0.2-0.2-0.4-0.4-0.4zm72.6-8.6c-0.3 0-0.4 0.2-0.4 0.4 0 0.2 0.1 0.4 0.4 0.4 0.2 0 0.4-0.2 0.4-0.4 0-0.2-0.2-0.4-0.4-0.4zm0 1.6c-0.3 0-0.4 0.2-0.4 0.4 0 0.2 0.1 0.4 0.4 0.4 0.2 0 0.4-0.2 0.4-0.4 0-0.2-0.2-0.4-0.4-0.4zm-4.7-11.7c-0.2 0-0.4 0.2-0.4 0.4 0 0.2 0.2 0.4 0.4 0.4 0.2 0 0.4-0.2 0.4-0.4 0-0.2-0.2-0.4-0.4-0.4zm-3.9 0.8c-0.2 0-0.4 0.1-0.4 0.4 0 0.2 0.2 0.3 0.4 0.3 0.2 0 0.4-0.1 0.4-0.3 0-0.3-0.2-0.4-0.4-0.4zm-14.1 3.1c-0.2 0-0.3 0.2-0.3 0.4 0 0.2 0.1 0.4 0.3 0.4 0.3 0 0.4-0.2 0.4-0.4 0-0.2-0.1-0.4-0.4-0.4zm-6.2 14.8c-0.2 0-0.4 0.2-0.4 0.4 0 0.2 0.2 0.4 0.4 0.4 0.2 0 0.4-0.2 0.4-0.4 0-0.2-0.2-0.4-0.4-0.4zm-7.8-11.7c-0.2 0-0.4 0.2-0.4 0.4 0 0.2 0.2 0.4 0.4 0.4 0.2 0 0.4-0.2 0.4-0.4 0-0.2-0.2-0.4-0.4-0.4zm-3.9 0.8c-0.2 0-0.4 0.2-0.4 0.4 0 0.2 0.2 0.4 0.4 0.4 0.2 0 0.4-0.2 0.4-0.4 0-0.2-0.2-0.4-0.4-0.4zm-2.3 14c-0.2 0-0.4 0.2-0.4 0.4 0 0.2 0.2 0.4 0.4 0.4 0.2 0 0.4-0.2 0.4-0.4 0-0.2-0.2-0.4-0.4-0.4zm-3.9 0.8c-0.2 0-0.4 0.2-0.4 0.4 0 0.2 0.2 0.4 0.4 0.4 0.2 0 0.4-0.2 0.4-0.4 0-0.2-0.2-0.4-0.4-0.4zm46.8-13.3c-0.3 0-0.4 0.2-0.4 0.4 0 0.2 0.1 0.4 0.4 0.4 0.2 0 0.4-0.2 0.4-0.4 0-0.2-0.2-0.4-0.4-0.4zm-5.5-9.3c-0.2 0-0.4 0.2-0.4 0.4 0 0.2 0.2 0.4 0.4 0.4 0.2 0 0.4-0.2 0.4-0.4 0-0.2-0.2-0.4-0.4-0.4zm-19.5 17.9c-0.2 0-0.4 0.2-0.4 0.4 0 0.2 0.2 0.4 0.4 0.4 0.2 0 0.4-0.2 0.4-0.4 0-0.2-0.2-0.4-0.4-0.4zm-1.6-13.2c-0.2 0-0.3 0.1-0.3 0.4 0 0.2 0.1 0.3 0.3 0.3 0.3 0 0.4-0.1 0.4-0.3 0-0.3-0.1-0.4-0.4-0.4zm-10.9 2.3c-0.2 0-0.4 0.2-0.4 0.4 0 0.2 0.2 0.4 0.4 0.4 0.2 0 0.4-0.2 0.4-0.4 0-0.2-0.2-0.4-0.4-0.4zm-2.3 14c-0.2 0-0.4 0.2-0.4 0.4 0 0.2 0.2 0.4 0.4 0.4 0.2 0 0.4-0.2 0.4-0.4 0-0.2-0.2-0.4-0.4-0.4zm-5.5-12.4c-0.2 0-0.4 0.1-0.4 0.4 0 0.2 0.2 0.3 0.4 0.3 0.2 0 0.4-0.1 0.4-0.3 0-0.3-0.2-0.4-0.4-0.4zm-3.9 0.7c-0.2 0-0.4 0.2-0.4 0.4 0 0.2 0.2 0.4 0.4 0.4 0.2 0 0.4-0.2 0.4-0.4 0-0.2-0.2-0.4-0.4-0.4zm-7.8 15.6c-0.2 0-0.4 0.2-0.4 0.4 0 0.2 0.2 0.4 0.4 0.4 0.2 0 0.4-0.2 0.4-0.4 0-0.2-0.2-0.4-0.4-0.4zm-7-12.4c-0.2 0-0.4 0.1-0.4 0.3 0 0.3 0.2 0.4 0.4 0.4 0.2 0 0.4-0.1 0.4-0.4 0-0.2-0.2-0.3-0.4-0.3zm-5.4 11.6c-0.3 0-0.4 0.2-0.4 0.4 0 0.3 0.1 0.4 0.4 0.4 0.2 0 0.3-0.1 0.3-0.4 0-0.2-0.1-0.4-0.3-0.4zm-3.2-0.7c-0.2 0-0.4 0.1-0.4 0.4 0 0.2 0.2 0.3 0.4 0.3 0.2 0 0.4-0.1 0.4-0.3 0-0.3-0.2-0.4-0.4-0.4zm55.4-7c-0.2 0-0.4 0.1-0.4 0.3 0 0.3 0.2 0.4 0.4 0.4 0.2 0 0.4-0.1 0.4-0.4 0-0.2-0.2-0.3-0.4-0.3zm-2.3-13.3c-0.2 0-0.4 0.2-0.4 0.4 0 0.2 0.2 0.4 0.4 0.4 0.2 0 0.4-0.2 0.4-0.4 0-0.2-0.2-0.4-0.4-0.4zm-12.5 16.4c-0.2 0-0.4 0.1-0.4 0.4 0 0.2 0.2 0.4 0.4 0.4 0.2 0 0.4-0.2 0.4-0.4 0-0.3-0.2-0.4-0.4-0.4zm-3.9 0.8c-0.2 0-0.4 0.1-0.4 0.3 0 0.3 0.2 0.4 0.4 0.4 0.2 0 0.4-0.1 0.4-0.4 0-0.2-0.2-0.3-0.4-0.3zm-14.8 3.1c-0.2 0-0.4 0.1-0.4 0.4 0 0.2 0.2 0.3 0.4 0.3 0.2 0 0.4-0.1 0.4-0.3 0-0.3-0.2-0.4-0.4-0.4zm-0.8-13.3c-0.2 0-0.4 0.2-0.4 0.4 0 0.2 0.2 0.4 0.4 0.4 0.2 0 0.4-0.2 0.4-0.4 0-0.2-0.2-0.4-0.4-0.4zm-3.9 0.8c-0.2 0-0.4 0.2-0.4 0.4 0 0.2 0.2 0.4 0.4 0.4 0.2 0 0.4-0.2 0.4-0.4 0-0.2-0.2-0.4-0.4-0.4zm-3.9 0.8c-0.2 0-0.4 0.2-0.4 0.4 0 0.2 0.2 0.4 0.4 0.4 0.2 0 0.4-0.2 0.4-0.4 0-0.2-0.2-0.4-0.4-0.4zm-6.2 1.5c-0.3 0-0.4 0.2-0.4 0.4 0 0.2 0.1 0.4 0.4 0.4 0.2 0 0.3-0.2 0.3-0.4 0-0.2-0.1-0.4-0.3-0.4zm-6.3 4.7c-0.2 0-0.4 0.2-0.4 0.4 0 0.2 0.2 0.4 0.4 0.4 0.2 0 0.4-0.2 0.4-0.4 0-0.2-0.2-0.4-0.4-0.4zm69.4-5.4c-0.2 0-0.4 0.1-0.4 0.3 0 0.3 0.2 0.4 0.4 0.4 0.2 0 0.4-0.1 0.4-0.4 0-0.2-0.2-0.3-0.4-0.3zm-3.9-11.7c-0.2 0-0.4 0.1-0.4 0.4 0 0.2 0.2 0.3 0.4 0.3 0.2 0 0.4-0.1 0.4-0.3 0-0.3-0.2-0.4-0.4-0.4zm-10.1 14.8c-0.2 0-0.4 0.2-0.4 0.4 0 0.2 0.2 0.4 0.4 0.4 0.2 0 0.4-0.2 0.4-0.4 0-0.2-0.2-0.4-0.4-0.4zm-18 3.9c-0.2 0-0.3 0.1-0.3 0.4 0 0.2 0.1 0.4 0.3 0.4 0.3 0 0.4-0.2 0.4-0.4 0-0.3-0.1-0.4-0.4-0.4zm-3.9-11.7c-0.2 0-0.3 0.2-0.3 0.4 0 0.2 0.1 0.4 0.3 0.4 0.3 0 0.4-0.2 0.4-0.4 0-0.2-0.1-0.4-0.4-0.4zm-10.9 2.3c-0.2 0-0.4 0.2-0.4 0.4 0 0.2 0.2 0.4 0.4 0.4 0.2 0 0.4-0.2 0.4-0.4 0-0.2-0.2-0.4-0.4-0.4zm-4.6 0.8c-0.3 0-0.4 0.2-0.4 0.4 0 0.2 0.1 0.4 0.4 0.4 0.2 0 0.3-0.2 0.3-0.4 0-0.2-0.1-0.4-0.3-0.4zm51.4-10.1c-0.2 0-0.4 0.1-0.4 0.4 0 0.2 0.2 0.3 0.4 0.3 0.2 0 0.4-0.1 0.4-0.3 0-0.3-0.2-0.4-0.4-0.4zm-5.4 0c-0.3 0-0.4 0.1-0.4 0.4 0 0.2 0.1 0.3 0.4 0.3 0.2 0 0.4-0.1 0.4-0.3 0-0.3-0.2-0.4-0.4-0.4zm-3.9 14c-0.2 0-0.4 0.2-0.4 0.4 0 0.2 0.2 0.4 0.4 0.4 0.2 0 0.4-0.2 0.4-0.4 0-0.2-0.2-0.4-0.4-0.4zm-32 7c-0.2 0-0.4 0.2-0.4 0.4 0 0.2 0.2 0.4 0.4 0.4 0.2 0 0.4-0.2 0.4-0.4 0-0.2-0.2-0.4-0.4-0.4zm-7-11.7c-0.2 0-0.4 0.2-0.4 0.4 0 0.2 0.2 0.4 0.4 0.4 0.2 0 0.4-0.2 0.4-0.4 0-0.2-0.2-0.4-0.4-0.4zm-7.8 1.6c-0.2 0-0.4 0.2-0.4 0.4 0 0.2 0.2 0.4 0.4 0.4 0.2 0 0.4-0.2 0.4-0.4 0-0.2-0.2-0.4-0.4-0.4zm-11.7 5.4c-0.2 0-0.4 0.2-0.4 0.4 0 0.2 0.2 0.4 0.4 0.4 0.2 0 0.4-0.2 0.4-0.4 0-0.2-0.2-0.4-0.4-0.4zm56.9-2.3c-0.2 0-0.4 0.2-0.4 0.4 0 0.2 0.2 0.4 0.4 0.4 0.2 0 0.4-0.2 0.4-0.4 0-0.2-0.2-0.4-0.4-0.4zm-10.9-10.1c-0.2 0-0.4 0.1-0.4 0.4 0 0.2 0.2 0.3 0.4 0.3 0.2 0 0.4-0.1 0.4-0.3 0-0.3-0.2-0.4-0.4-0.4zm-21.1 17.1c-0.2 0-0.4 0.2-0.4 0.4 0 0.2 0.2 0.4 0.4 0.4 0.2 0 0.4-0.2 0.4-0.4 0-0.2-0.2-0.4-0.4-0.4zm-7.8 1.6c-0.2 0-0.4 0.1-0.4 0.4 0 0.2 0.2 0.3 0.4 0.3 0.2 0 0.4-0.1 0.4-0.3 0-0.3-0.2-0.4-0.4-0.4zm-8.5-10.9c-0.3 0-0.4 0.1-0.4 0.3 0 0.3 0.1 0.4 0.4 0.4 0.2 0 0.3-0.1 0.3-0.4 0-0.2-0.1-0.3-0.3-0.3zm-5.9 2.6c-0.4 0.3-0.8 0.7-0.8 0.9 0 0.2 0.4 0.2 0.8 0 0.4-0.2 0.8-0.6 0.8-0.9 0-0.3-0.4-0.3-0.8 0zm-2.7 8.3c-0.2 0-0.4 0.1-0.4 0.4 0 0.2 0.2 0.3 0.4 0.3 0.2 0 0.4-0.1 0.4-0.3 0-0.3-0.2-0.4-0.4-0.4zm65.5-19.5c-0.2 0-0.4 0.2-0.4 0.4 0 0.2 0.2 0.4 0.4 0.4 0.2 0 0.4-0.2 0.4-0.4 0-0.2-0.2-0.4-0.4-0.4zm-2.4 0c-0.2 0-0.3 0.2-0.3 0.4 0 0.2 0.1 0.4 0.3 0.4 0.3 0 0.4-0.2 0.4-0.4 0-0.2-0.1-0.4-0.4-0.4zm-3.9 0.8c-0.2 0-0.3 0.1-0.3 0.4 0 0.2 0.1 0.3 0.3 0.3 0.3 0 0.4-0.1 0.4-0.3 0-0.3-0.1-0.4-0.4-0.4zm0 2.3c-0.2 0-0.3 0.2-0.3 0.4 0 0.2 0.1 0.4 0.3 0.4 0.3 0 0.4-0.2 0.4-0.4 0-0.2-0.1-0.4-0.4-0.4zm-2.3 1.6c-0.2 0-0.4 0.1-0.4 0.4 0 0.2 0.2 0.3 0.4 0.3 0.2 0 0.4-0.1 0.4-0.3 0-0.3-0.2-0.4-0.4-0.4zm-4.7 4.6c-0.2 0-0.4 0.2-0.4 0.4 0 0.2 0.2 0.4 0.4 0.4 0.2 0 0.4-0.2 0.4-0.4 0-0.2-0.2-0.4-0.4-0.4zm-1.5-7c-0.2 0-0.4 0.2-0.4 0.4 0 0.2 0.2 0.4 0.4 0.4 0.2 0 0.4-0.2 0.4-0.4 0-0.2-0.2-0.4-0.4-0.4zm-1.6 7.8c-0.2 0-0.4 0.2-0.4 0.4 0 0.2 0.2 0.4 0.4 0.4 0.2 0 0.4-0.2 0.4-0.4 0-0.2-0.2-0.4-0.4-0.4zm-9.4-5.4c-0.2 0-0.3 0.1-0.3 0.4 0 0.2 0.1 0.3 0.3 0.3 0.3 0 0.4-0.1 0.4-0.3 0-0.3-0.1-0.4-0.4-0.4zm-1.5 7.8c-0.2 0-0.4 0.1-0.4 0.3 0 0.3 0.2 0.4 0.4 0.4 0.2 0 0.4-0.1 0.4-0.4 0-0.2-0.2-0.3-0.4-0.3zm-1.6-7.1c-0.2 0-0.4 0.2-0.4 0.4 0 0.2 0.2 0.4 0.4 0.4 0.2 0 0.4-0.2 0.4-0.4 0-0.2-0.2-0.4-0.4-0.4zm-2.3 0.8c-0.2 0-0.4 0.2-0.4 0.4 0 0.2 0.2 0.4 0.4 0.4 0.2 0 0.4-0.2 0.4-0.4 0-0.2-0.2-0.4-0.4-0.4zm-0.8 7c-0.2 0-0.4 0.2-0.4 0.4 0 0.2 0.2 0.4 0.4 0.4 0.2 0 0.4-0.2 0.4-0.4 0-0.2-0.2-0.4-0.4-0.4zm-3.1 0.8c-0.2 0-0.4 0.2-0.4 0.4 0 0.2 0.2 0.4 0.4 0.4 0.2 0 0.4-0.2 0.4-0.4 0-0.2-0.2-0.4-0.4-0.4zm-0.8-7c-0.2 0-0.4 0.2-0.4 0.4 0 0.2 0.2 0.4 0.4 0.4 0.2 0 0.4-0.2 0.4-0.4 0-0.2-0.2-0.4-0.4-0.4zm-3.9 7.8c-0.2 0-0.4 0.2-0.4 0.4 0 0.2 0.2 0.4 0.4 0.4 0.2 0 0.4-0.2 0.4-0.4 0-0.2-0.2-0.4-0.4-0.4zm-3.1 0.8c-0.2 0-0.4 0.1-0.4 0.4 0 0.2 0.2 0.4 0.4 0.4 0.2 0 0.4-0.2 0.4-0.4 0-0.3-0.2-0.4-0.4-0.4zm-1.6-7c-0.2 0-0.4 0.1-0.4 0.3 0 0.3 0.2 0.4 0.4 0.4 0.2 0 0.4-0.1 0.4-0.4 0-0.2-0.2-0.3-0.4-0.3zm-1.5 7.8c-0.2 0-0.4 0.1-0.4 0.3 0 0.3 0.2 0.4 0.4 0.4 0.2 0 0.4-0.1 0.4-0.4 0-0.2-0.2-0.3-0.4-0.3zm-0.8-7.1c-0.2 0-0.4 0.2-0.4 0.4 0 0.2 0.2 0.4 0.4 0.4 0.2 0 0.4-0.2 0.4-0.4 0-0.2-0.2-0.4-0.4-0.4zm-3.9 7.8c-0.2 0-0.4 0.2-0.4 0.4 0 0.2 0.2 0.4 0.4 0.4 0.2 0 0.4-0.2 0.4-0.4 0-0.2-0.2-0.4-0.4-0.4zm-3.9-6.2c-0.2 0-0.4 0.2-0.4 0.4 0 0.2 0.2 0.4 0.4 0.4 0.2 0 0.4-0.2 0.4-0.4 0-0.2-0.2-0.4-0.4-0.4zm-6.2 2.3c-0.3 0-0.4 0.2-0.4 0.4 0 0.2 0.1 0.4 0.4 0.4 0.2 0 0.3-0.2 0.3-0.4 0-0.2-0.1-0.4-0.3-0.4zm-2.4 3.9c-0.2 0-0.4 0.2-0.4 0.4 0 0.2 0.2 0.4 0.4 0.4 0.2 0 0.4-0.2 0.4-0.4 0-0.2-0.2-0.4-0.4-0.4zm61.6-10.9c-0.2 0-0.4 0.2-0.4 0.4 0 0.2 0.2 0.4 0.4 0.4 0.2 0 0.4-0.2 0.4-0.4 0-0.2-0.2-0.4-0.4-0.4zm-1.5-5.4c-0.3 0-0.4 0.1-0.4 0.4 0 0.2 0.1 0.3 0.4 0.3 0.2 0 0.4-0.1 0.4-0.3 0-0.3-0.2-0.4-0.4-0.4zm-6.3 4.6c-0.2 0-0.4 0.2-0.4 0.4 0 0.2 0.2 0.4 0.4 0.4 0.2 0 0.4-0.2 0.4-0.4 0-0.2-0.2-0.4-0.4-0.4zm-1.5-3.1c-0.2 0-0.4 0.2-0.4 0.4 0 0.2 0.2 0.4 0.4 0.4 0.2 0 0.4-0.2 0.4-0.4 0-0.2-0.2-0.4-0.4-0.4zm-6.3 1.6c-0.2 0-0.4 0.2-0.4 0.4 0 0.2 0.2 0.4 0.4 0.4 0.2 0 0.4-0.2 0.4-0.4 0-0.2-0.2-0.4-0.4-0.4zm0 5.4c-0.2 0-0.4 0.2-0.4 0.4 0 0.2 0.2 0.4 0.4 0.4 0.2 0 0.4-0.2 0.4-0.4 0-0.2-0.2-0.4-0.4-0.4zm-7.8-3.9c-0.2 0-0.4 0.2-0.4 0.4 0 0.2 0.2 0.4 0.4 0.4 0.2 0 0.4-0.2 0.4-0.4 0-0.2-0.2-0.4-0.4-0.4zm0 5.5c-0.2 0-0.4 0.2-0.4 0.4 0 0.2 0.2 0.4 0.4 0.4 0.2 0 0.4-0.2 0.4-0.4 0-0.2-0.2-0.4-0.4-0.4zm-10.9 2.3c-0.2 0-0.4 0.2-0.4 0.4 0 0.2 0.2 0.4 0.4 0.4 0.2 0 0.4-0.2 0.4-0.4 0-0.2-0.2-0.4-0.4-0.4zm-7-3.9c-0.2 0-0.4 0.2-0.4 0.4 0 0.2 0.2 0.4 0.4 0.4 0.2 0 0.4-0.2 0.4-0.4 0-0.2-0.2-0.4-0.4-0.4zm-7 7.1c-0.2 0-0.4 0.1-0.4 0.3 0 0.3 0.2 0.4 0.4 0.4 0.2 0 0.4-0.1 0.4-0.4 0-0.2-0.2-0.3-0.4-0.3zm-7-3.9c-0.3 0-0.4 0.1-0.4 0.3 0 0.3 0.1 0.4 0.4 0.4 0.2 0 0.3-0.1 0.3-0.4 0-0.2-0.1-0.3-0.3-0.3zm0 5.4c-0.3 0-0.4 0.2-0.4 0.4 0 0.2 0.1 0.4 0.4 0.4 0.2 0 0.3-0.2 0.3-0.4 0-0.2-0.1-0.4-0.3-0.4zm-1.6 0c-0.2 0-0.4 0.2-0.4 0.4 0 0.2 0.2 0.4 0.4 0.4 0.2 0 0.4-0.2 0.4-0.4 0-0.2-0.2-0.4-0.4-0.4zm-3.1-3.1c-0.2 0-0.4 0.2-0.4 0.4 0 0.2 0.2 0.4 0.4 0.4 0.2 0 0.4-0.2 0.4-0.4 0-0.2-0.2-0.4-0.4-0.4zm61.6-11.7c-0.2 0-0.4 0.2-0.4 0.4 0 0.2 0.2 0.4 0.4 0.4 0.2 0 0.4-0.2 0.4-0.4 0-0.2-0.2-0.4-0.4-0.4zm-9.4 1.6c-0.2 0-0.4 0.1-0.4 0.4 0 0.2 0.2 0.3 0.4 0.3 0.2 0 0.4-0.1 0.4-0.3 0-0.3-0.2-0.4-0.4-0.4zm-4.7 3.9c-0.2 0-0.3 0.1-0.3 0.3 0 0.3 0.1 0.4 0.3 0.4 0.3 0 0.4-0.1 0.4-0.4 0-0.2-0.1-0.3-0.4-0.3zm-2.3 0.7c-0.2 0-0.4 0.2-0.4 0.4 0 0.2 0.2 0.4 0.4 0.4 0.2 0 0.4-0.2 0.4-0.4 0-0.2-0.2-0.4-0.4-0.4zm-3.9 0.8c-0.2 0-0.4 0.2-0.4 0.4 0 0.2 0.2 0.4 0.4 0.4 0.2 0 0.4-0.2 0.4-0.4 0-0.2-0.2-0.4-0.4-0.4zm-1.6-5.4c-0.2 0-0.3 0.1-0.3 0.4 0 0.2 0.1 0.3 0.3 0.3 0.3 0 0.4-0.1 0.4-0.3 0-0.3-0.1-0.4-0.4-0.4zm-6.2 1.5c-0.2 0-0.4 0.2-0.4 0.4 0 0.2 0.2 0.4 0.4 0.4 0.2 0 0.4-0.2 0.4-0.4 0-0.2-0.2-0.4-0.4-0.4zm0 5.5c-0.2 0-0.4 0.2-0.4 0.4 0 0.2 0.2 0.4 0.4 0.4 0.2 0 0.4-0.2 0.4-0.4 0-0.2-0.2-0.4-0.4-0.4zm-4.7-4.7c-0.2 0-0.4 0.2-0.4 0.4 0 0.2 0.2 0.4 0.4 0.4 0.2 0 0.4-0.2 0.4-0.4 0-0.2-0.2-0.4-0.4-0.4zm-3.1 0.8c-0.2 0-0.4 0.2-0.4 0.4 0 0.2 0.2 0.4 0.4 0.4 0.2 0 0.4-0.2 0.4-0.4 0-0.2-0.2-0.4-0.4-0.4zm-3.1 6.2c-0.2 0-0.4 0.2-0.4 0.4 0 0.2 0.2 0.4 0.4 0.4 0.2 0 0.4-0.2 0.4-0.4 0-0.2-0.2-0.4-0.4-0.4zm-1.6-5.4c-0.2 0-0.4 0.1-0.4 0.3 0 0.3 0.2 0.4 0.4 0.4 0.2 0 0.4-0.1 0.4-0.4 0-0.2-0.2-0.3-0.4-0.3zm-5.4 7c-0.2 0-0.4 0.1-0.4 0.4 0 0.2 0.2 0.4 0.4 0.4 0.2 0 0.4-0.2 0.4-0.4 0-0.3-0.2-0.4-0.4-0.4zm-0.8-5.5c-0.2 0-0.4 0.2-0.4 0.4 0 0.2 0.2 0.4 0.4 0.4 0.2 0 0.4-0.2 0.4-0.4 0-0.2-0.2-0.4-0.4-0.4zm-7.8 1.6c-0.2 0-0.4 0.2-0.4 0.4 0 0.2 0.2 0.4 0.4 0.4 0.2 0 0.4-0.2 0.4-0.4 0-0.2-0.2-0.4-0.4-0.4zm-6.2 5.4c-0.3 0-0.4 0.2-0.4 0.4 0 0.2 0.1 0.4 0.4 0.4 0.2 0 0.3-0.2 0.3-0.4 0-0.2-0.1-0.4-0.3-0.4zm60.8-15.6c-0.2 0-0.4 0.2-0.4 0.4 0 0.2 0.2 0.4 0.4 0.4 0.2 0 0.4-0.2 0.4-0.4 0-0.2-0.2-0.4-0.4-0.4zm0 4.7c-0.2 0-0.4 0.2-0.4 0.4 0 0.2 0.2 0.4 0.4 0.4 0.2 0 0.4-0.2 0.4-0.4 0-0.2-0.2-0.4-0.4-0.4zm-3.9 0.8c-0.2 0-0.4 0.2-0.4 0.4 0 0.2 0.2 0.4 0.4 0.4 0.2 0 0.4-0.2 0.4-0.4 0-0.2-0.2-0.4-0.4-0.4zm-0.8-6.2c-0.2 0-0.4 0.1-0.4 0.4 0 0.2 0.2 0.3 0.4 0.3 0.2 0 0.4-0.1 0.4-0.3 0-0.3-0.2-0.4-0.4-0.4zm-3.9 6.2c-0.2 0-0.4 0.2-0.4 0.4 0 0.2 0.2 0.4 0.4 0.4 0.2 0 0.4-0.2 0.4-0.4 0-0.2-0.2-0.4-0.4-0.4zm-0.8-3.9c-0.2 0-0.4 0.2-0.4 0.4 0 0.2 0.2 0.4 0.4 0.4 0.2 0 0.4-0.2 0.4-0.4 0-0.2-0.2-0.4-0.4-0.4zm-5.4 6.2c-0.2 0-0.4 0.2-0.4 0.4 0 0.2 0.2 0.4 0.4 0.4 0.2 0 0.4-0.2 0.4-0.4 0-0.2-0.2-0.4-0.4-0.4zm-3.9 0.8c-0.2 0-0.4 0.2-0.4 0.4 0 0.2 0.2 0.4 0.4 0.4 0.2 0 0.4-0.2 0.4-0.4 0-0.2-0.2-0.4-0.4-0.4zm-4.7-5.4c-0.2 0-0.4 0.1-0.4 0.4 0 0.2 0.2 0.3 0.4 0.3 0.2 0 0.4-0.1 0.4-0.3 0-0.3-0.2-0.4-0.4-0.4zm-3.9 0.7c-0.2 0-0.4 0.2-0.4 0.4 0 0.2 0.2 0.4 0.4 0.4 0.2 0 0.4-0.2 0.4-0.4 0-0.2-0.2-0.4-0.4-0.4zm-10.2 8.6c-0.2 0-0.3 0.2-0.3 0.4 0 0.2 0.1 0.4 0.3 0.4 0.3 0 0.4-0.2 0.4-0.4 0-0.2-0.1-0.4-0.4-0.4zm-14.8 3.1c-0.2 0-0.4 0.2-0.4 0.4 0 0.2 0.2 0.4 0.4 0.4 0.2 0 0.4-0.2 0.4-0.4 0-0.2-0.2-0.4-0.4-0.4zm-2.3 0.8c-0.2 0-0.4 0.2-0.4 0.4 0 0.2 0.2 0.4 0.4 0.4 0.2 0 0.4-0.2 0.4-0.4 0-0.2-0.2-0.4-0.4-0.4zm-7.8-0.8c-0.2 0-0.4 0.2-0.4 0.4 0 0.2 0.2 0.4 0.4 0.4 0.2 0 0.4-0.2 0.4-0.4 0-0.2-0.2-0.4-0.4-0.4zm48.3-14.8c-0.2 0-0.3 0.2-0.3 0.4 0 0.2 0.1 0.4 0.3 0.4 0.3 0 0.4-0.2 0.4-0.4 0-0.2-0.1-0.4-0.4-0.4zm-2.3 0.8c-0.2 0-0.4 0.2-0.4 0.4 0 0.2 0.2 0.4 0.4 0.4 0.2 0 0.4-0.2 0.4-0.4 0-0.2-0.2-0.4-0.4-0.4zm-3.9 0.8c-0.2 0-0.4 0.2-0.4 0.4 0 0.2 0.2 0.4 0.4 0.4 0.2 0 0.4-0.2 0.4-0.4 0-0.2-0.2-0.4-0.4-0.4zm-7.8 1.5c-0.2 0-0.4 0.2-0.4 0.4 0 0.2 0.2 0.4 0.4 0.4 0.2 0 0.4-0.2 0.4-0.4 0-0.2-0.2-0.4-0.4-0.4zm0 7.1c-0.2 0-0.4 0.1-0.4 0.3 0 0.3 0.2 0.4 0.4 0.4 0.2 0 0.4-0.1 0.4-0.4 0-0.2-0.2-0.3-0.4-0.3zm-17.9-3.2c-0.2 0-0.4 0.2-0.4 0.4 0 0.2 0.2 0.4 0.4 0.4 0.2 0 0.4-0.2 0.4-0.4 0-0.2-0.2-0.4-0.4-0.4zm-0.8 7.1c-0.2 0-0.4 0.1-0.4 0.3 0 0.3 0.2 0.4 0.4 0.4 0.2 0 0.4-0.1 0.4-0.4 0-0.2-0.2-0.3-0.4-0.3zm-10.9 2.3c-0.2 0-0.4 0.2-0.4 0.4 0 0.2 0.2 0.4 0.4 0.4 0.2 0 0.4-0.2 0.4-0.4 0-0.2-0.2-0.4-0.4-0.4zm-3.1-0.8c-0.3 0-0.4 0.2-0.4 0.4 0 0.2 0.1 0.4 0.4 0.4 0.2 0 0.3-0.2 0.3-0.4 0-0.2-0.1-0.4-0.3-0.4zm59.2-17.9c-0.2 0-0.4 0.2-0.4 0.4 0 0.2 0.2 0.4 0.4 0.4 0.2 0 0.4-0.2 0.4-0.4 0-0.2-0.2-0.4-0.4-0.4zm-4.7 2.3c-0.2 0-0.3 0.2-0.3 0.4 0 0.2 0.1 0.4 0.3 0.4 0.3 0 0.4-0.2 0.4-0.4 0-0.2-0.1-0.4-0.4-0.4zm-2.3 3.9c-0.2 0-0.4 0.2-0.4 0.4 0 0.2 0.2 0.4 0.4 0.4 0.2 0 0.4-0.2 0.4-0.4 0-0.2-0.2-0.4-0.4-0.4zm-0.8-3.9c-0.2 0-0.4 0.2-0.4 0.4 0 0.2 0.2 0.4 0.4 0.4 0.2 0 0.4-0.2 0.4-0.4 0-0.2-0.2-0.4-0.4-0.4zm-4.7 7c-0.2 0-0.3 0.2-0.3 0.4 0 0.2 0.1 0.4 0.3 0.4 0.3 0 0.4-0.2 0.4-0.4 0-0.2-0.1-0.4-0.4-0.4zm-3.9 0.8c-0.2 0-0.3 0.2-0.3 0.4 0 0.2 0.1 0.4 0.3 0.4 0.3 0 0.4-0.2 0.4-0.4 0-0.2-0.1-0.4-0.4-0.4zm-6.2-5.4c-0.2 0-0.4 0.1-0.4 0.4 0 0.2 0.2 0.3 0.4 0.3 0.2 0 0.4-0.1 0.4-0.3 0-0.3-0.2-0.4-0.4-0.4zm-1.6 7c-0.2 0-0.3 0.2-0.3 0.4 0 0.2 0.1 0.4 0.3 0.4 0.3 0 0.4-0.2 0.4-0.4 0-0.2-0.1-0.4-0.4-0.4zm-7 1.5c-0.2 0-0.4 0.2-0.4 0.4 0 0.2 0.2 0.4 0.4 0.4 0.2 0 0.4-0.2 0.4-0.4 0-0.2-0.2-0.4-0.4-0.4zm-2.3-6.2c-0.2 0-0.4 0.2-0.4 0.4 0 0.2 0.2 0.4 0.4 0.4 0.2 0 0.4-0.2 0.4-0.4 0-0.2-0.2-0.4-0.4-0.4zm-7.8 1.6c-0.2 0-0.4 0.1-0.4 0.3 0 0.3 0.2 0.4 0.4 0.4 0.2 0 0.4-0.1 0.4-0.4 0-0.2-0.2-0.3-0.4-0.3zm-0.8 7c-0.2 0-0.4 0.1-0.4 0.4 0 0.2 0.2 0.4 0.4 0.4 0.2 0 0.4-0.2 0.4-0.4 0-0.3-0.2-0.4-0.4-0.4zm-7.8 1.5c-0.2 0-0.4 0.2-0.4 0.4 0 0.2 0.2 0.4 0.4 0.4 0.2 0 0.4-0.2 0.4-0.4 0-0.2-0.2-0.4-0.4-0.4zm-2.3-6.2c-0.2 0-0.4 0.2-0.4 0.4 0 0.2 0.2 0.4 0.4 0.4 0.2 0 0.4-0.2 0.4-0.4 0-0.2-0.2-0.4-0.4-0.4zm-5.5 1.6c-0.2 0-0.4 0.1-0.4 0.3 0 0.3 0.2 0.4 0.4 0.4 0.2 0 0.4-0.1 0.4-0.4 0-0.2-0.2-0.3-0.4-0.3zm-3.1 2.3c-0.2 0-0.4 0.2-0.4 0.4 0 0.2 0.2 0.4 0.4 0.4 0.2 0 0.4-0.2 0.4-0.4 0-0.2-0.2-0.4-0.4-0.4zm62.4-14c-0.2 0-0.4 0.1-0.4 0.4 0 0.2 0.2 0.3 0.4 0.3 0.2 0 0.4-0.1 0.4-0.3 0-0.3-0.2-0.4-0.4-0.4zm-5.5 0c-0.2 0-0.4 0.1-0.4 0.4 0 0.2 0.2 0.3 0.4 0.3 0.2 0 0.4-0.1 0.4-0.3 0-0.3-0.2-0.4-0.4-0.4zm-6.2 7.8c-0.2 0-0.4 0.1-0.4 0.3 0 0.3 0.2 0.4 0.4 0.4 0.2 0 0.4-0.1 0.4-0.4 0-0.2-0.2-0.3-0.4-0.3zm-1.6-6.3c-0.2 0-0.4 0.2-0.4 0.4 0 0.2 0.2 0.4 0.4 0.4 0.2 0 0.4-0.2 0.4-0.4 0-0.2-0.2-0.4-0.4-0.4zm-15.6 10.2c-0.2 0-0.4 0.1-0.4 0.3 0 0.3 0.2 0.4 0.4 0.4 0.2 0 0.4-0.1 0.4-0.4 0-0.2-0.2-0.3-0.4-0.3zm-7.8 1.5c-0.2 0-0.4 0.2-0.4 0.4 0 0.2 0.2 0.4 0.4 0.4 0.2 0 0.4-0.2 0.4-0.4 0-0.2-0.2-0.4-0.4-0.4zm-3.9 0.8c-0.2 0-0.4 0.2-0.4 0.4 0 0.2 0.2 0.4 0.4 0.4 0.2 0 0.4-0.2 0.4-0.4 0-0.2-0.2-0.4-0.4-0.4zm-7 1.6c-0.2 0-0.4 0.1-0.4 0.3 0 0.3 0.2 0.4 0.4 0.4 0.2 0 0.4-0.1 0.4-0.4 0-0.2-0.2-0.3-0.4-0.3zm-15.6-0.8c-0.2 0-0.4 0.1-0.4 0.4 0 0.2 0.2 0.4 0.4 0.4 0.2 0 0.4-0.2 0.4-0.4 0-0.3-0.2-0.4-0.4-0.4zm53.8-7.8c-0.2 0-0.4 0.2-0.4 0.4 0 0.2 0.2 0.4 0.4 0.4 0.2 0 0.4-0.2 0.4-0.4 0-0.2-0.2-0.4-0.4-0.4zm-4.7-4.7c-0.2 0-0.3 0.2-0.3 0.4 0 0.2 0.1 0.4 0.3 0.4 0.3 0 0.4-0.2 0.4-0.4 0-0.2-0.1-0.4-0.4-0.4zm-3.9 0.8c-0.2 0-0.3 0.2-0.3 0.4 0 0.2 0.1 0.4 0.3 0.4 0.3 0 0.4-0.2 0.4-0.4 0-0.2-0.1-0.4-0.4-0.4zm-6.2 7c-0.2 0-0.4 0.2-0.4 0.4 0 0.2 0.2 0.4 0.4 0.4 0.2 0 0.4-0.2 0.4-0.4 0-0.2-0.2-0.4-0.4-0.4zm-1.6-5.5c-0.2 0-0.3 0.2-0.3 0.4 0 0.2 0.1 0.4 0.3 0.4 0.3 0 0.4-0.2 0.4-0.4 0-0.2-0.1-0.4-0.4-0.4zm-9.3 7.8c-0.2 0-0.4 0.2-0.4 0.4 0 0.2 0.2 0.4 0.4 0.4 0.2 0 0.4-0.2 0.4-0.4 0-0.2-0.2-0.4-0.4-0.4zm-1.6-5.4c-0.2 0-0.4 0.2-0.4 0.4 0 0.2 0.2 0.4 0.4 0.4 0.2 0 0.4-0.2 0.4-0.4 0-0.2-0.2-0.4-0.4-0.4zm-14.8 3.1c-0.2 0-0.4 0.2-0.4 0.4 0 0.2 0.2 0.4 0.4 0.4 0.2 0 0.4-0.2 0.4-0.4 0-0.2-0.2-0.4-0.4-0.4zm-2.3 6.2c-0.2 0-0.4 0.2-0.4 0.4 0 0.2 0.2 0.4 0.4 0.4 0.2 0 0.4-0.2 0.4-0.4 0-0.2-0.2-0.4-0.4-0.4zm-1.6-5.4c-0.2 0-0.4 0.2-0.4 0.4 0 0.2 0.2 0.4 0.4 0.4 0.2 0 0.4-0.2 0.4-0.4 0-0.2-0.2-0.4-0.4-0.4zm-2.3 0.8c-0.2 0-0.4 0.1-0.4 0.3 0 0.3 0.2 0.4 0.4 0.4 0.2 0 0.4-0.1 0.4-0.4 0-0.2-0.2-0.3-0.4-0.3zm-3.1 1.5c-0.3 0-0.4 0.2-0.4 0.4 0 0.2 0.1 0.4 0.4 0.4 0.2 0 0.3-0.2 0.3-0.4 0-0.2-0.1-0.4-0.3-0.4zm61.6-9.3c-0.3 0-0.4 0.1-0.4 0.4 0 0.2 0.1 0.3 0.4 0.3 0.2 0 0.4-0.1 0.4-0.3 0-0.3-0.2-0.4-0.4-0.4zm-9.4 3.1c-0.2 0-0.4 0.2-0.4 0.4 0 0.2 0.2 0.4 0.4 0.4 0.2 0 0.4-0.2 0.4-0.4 0-0.2-0.2-0.4-0.4-0.4zm-10.9-3.9c-0.2 0-0.4 0.2-0.4 0.4 0 0.2 0.2 0.4 0.4 0.4 0.2 0 0.4-0.2 0.4-0.4 0-0.2-0.2-0.4-0.4-0.4zm-7 7.8c-0.2 0-0.4 0.2-0.4 0.4 0 0.2 0.2 0.4 0.4 0.4 0.2 0 0.4-0.2 0.4-0.4 0-0.2-0.2-0.4-0.4-0.4zm-3.9-5.5c-0.2 0-0.4 0.2-0.4 0.4 0 0.2 0.2 0.4 0.4 0.4 0.2 0 0.4-0.2 0.4-0.4 0-0.2-0.2-0.4-0.4-0.4zm-3.9 0.8c-0.2 0-0.4 0.2-0.4 0.4 0 0.2 0.2 0.4 0.4 0.4 0.2 0 0.4-0.2 0.4-0.4 0-0.2-0.2-0.4-0.4-0.4zm-11 2.3c-0.2 0-0.3 0.2-0.3 0.4 0 0.2 0.1 0.4 0.3 0.4 0.3 0 0.4-0.2 0.4-0.4 0-0.2-0.1-0.4-0.4-0.4zm-3.8 0.8c-0.3 0-0.4 0.2-0.4 0.4 0 0.2 0.1 0.4 0.4 0.4 0.2 0 0.3-0.2 0.3-0.4 0-0.2-0.1-0.4-0.3-0.4zm-3.9 0.8c-0.3 0-0.4 0.2-0.4 0.4 0 0.2 0.1 0.4 0.4 0.4 0.2 0 0.3-0.2 0.3-0.4 0-0.2-0.1-0.4-0.3-0.4zm-3.9 0.8c-0.3 0-0.4 0.2-0.4 0.4 0 0.2 0.1 0.4 0.4 0.4 0.2 0 0.3-0.2 0.3-0.4 0-0.2-0.1-0.4-0.3-0.4zm57.7-6.3c-0.3 0-0.4 0.2-0.4 0.4 0 0.2 0.1 0.4 0.4 0.4 0.2 0 0.4-0.2 0.4-0.4 0-0.2-0.2-0.4-0.4-0.4zm-13.3 3.2c-0.2 0-0.4 0.1-0.4 0.3 0 0.3 0.2 0.4 0.4 0.4 0.2 0 0.4-0.1 0.4-0.4 0-0.2-0.2-0.3-0.4-0.3zm-2.3-5.5c-0.2 0-0.4 0.2-0.4 0.4 0 0.2 0.2 0.4 0.4 0.4 0.2 0 0.4-0.2 0.4-0.4 0-0.2-0.2-0.4-0.4-0.4zm-3.9 0.8c-0.2 0-0.4 0.2-0.4 0.4 0 0.2 0.2 0.4 0.4 0.4 0.2 0 0.4-0.2 0.4-0.4 0-0.2-0.2-0.4-0.4-0.4zm-11 2.3c-0.2 0-0.3 0.2-0.3 0.4 0 0.2 0.1 0.4 0.3 0.4 0.3 0 0.4-0.2 0.4-0.4 0-0.2-0.1-0.4-0.4-0.4zm-3.9 0.8c-0.2 0-0.3 0.2-0.3 0.4 0 0.2 0.1 0.4 0.3 0.4 0.3 0 0.4-0.2 0.4-0.4 0-0.2-0.1-0.4-0.4-0.4zm-10.9 8.6c-0.2 0-0.4 0.1-0.4 0.4 0 0.2 0.2 0.4 0.4 0.4 0.2 0 0.4-0.2 0.4-0.4 0-0.3-0.2-0.4-0.4-0.4zm-3.9 0.8c-0.2 0-0.4 0.1-0.4 0.3 0 0.3 0.2 0.4 0.4 0.4 0.2 0 0.4-0.1 0.4-0.4 0-0.2-0.2-0.3-0.4-0.3zm-7 1.5c-0.2 0-0.4 0.2-0.4 0.4 0 0.2 0.2 0.4 0.4 0.4 0.2 0 0.4-0.2 0.4-0.4 0-0.2-0.2-0.4-0.4-0.4zm-4.7-4.7c-0.2 0-0.4 0.2-0.4 0.4 0 0.2 0.2 0.4 0.4 0.4 0.2 0 0.4-0.2 0.4-0.4 0-0.2-0.2-0.4-0.4-0.4zm-3.9 3.2c-0.2 0-0.4 0.1-0.4 0.3 0 0.3 0.2 0.4 0.4 0.4 0.2 0 0.4-0.1 0.4-0.4 0-0.2-0.2-0.3-0.4-0.3zm63.2-16.4c-0.2 0-0.4 0.2-0.4 0.4 0 0.2 0.2 0.4 0.4 0.4 0.2 0 0.4-0.2 0.4-0.4 0-0.2-0.2-0.4-0.4-0.4zm-3.9 7c-0.2 0-0.4 0.2-0.4 0.4 0 0.2 0.2 0.4 0.4 0.4 0.2 0 0.4-0.2 0.4-0.4 0-0.2-0.2-0.4-0.4-0.4zm-0.8-1.6c-0.2 0-0.4 0.2-0.4 0.4 0 0.2 0.2 0.4 0.4 0.4 0.2 0 0.4-0.2 0.4-0.4 0-0.2-0.2-0.4-0.4-0.4zm-7-3.1c-0.2 0-0.4 0.2-0.4 0.4 0 0.2 0.2 0.4 0.4 0.4 0.2 0 0.4-0.2 0.4-0.4 0-0.2-0.2-0.4-0.4-0.4zm-17.2 10.2c-0.2 0-0.3 0.1-0.3 0.3 0 0.3 0.1 0.4 0.3 0.4 0.3 0 0.4-0.1 0.4-0.4 0-0.2-0.1-0.3-0.4-0.3zm-3.9 0.7c-0.2 0-0.3 0.2-0.3 0.4 0 0.2 0.1 0.4 0.3 0.4 0.3 0 0.4-0.2 0.4-0.4 0-0.2-0.1-0.4-0.4-0.4zm-10.9-3.9c-0.2 0-0.4 0.2-0.4 0.4 0 0.2 0.2 0.4 0.4 0.4 0.2 0 0.4-0.2 0.4-0.4 0-0.2-0.2-0.4-0.4-0.4zm-3.9 0.8c-0.2 0-0.4 0.2-0.4 0.4 0 0.2 0.2 0.4 0.4 0.4 0.2 0 0.4-0.2 0.4-0.4 0-0.2-0.2-0.4-0.4-0.4zm-11.7 7.8c-0.2 0-0.4 0.2-0.4 0.4 0 0.2 0.2 0.4 0.4 0.4 0.2 0 0.4-0.2 0.4-0.4 0-0.2-0.2-0.4-0.4-0.4zm60.1-15.6c-0.2 0-0.4 0.2-0.4 0.4 0 0.2 0.2 0.4 0.4 0.4 0.2 0 0.4-0.2 0.4-0.4 0-0.2-0.2-0.4-0.4-0.4zm-5.5 2.4c-0.2 0-0.4 0.1-0.4 0.4 0 0.2 0.2 0.3 0.4 0.3 0.2 0 0.4-0.1 0.4-0.3 0-0.3-0.2-0.4-0.4-0.4zm-21 0.7c-0.2 0-0.4 0.2-0.4 0.4 0 0.2 0.2 0.4 0.4 0.4 0.2 0 0.4-0.2 0.4-0.4 0-0.2-0.2-0.4-0.4-0.4zm-7.8 7.8c-0.2 0-0.4 0.2-0.4 0.4 0 0.2 0.2 0.4 0.4 0.4 0.2 0 0.4-0.2 0.4-0.4 0-0.2-0.2-0.4-0.4-0.4zm-11 2.4c-0.2 0-0.3 0.1-0.3 0.4 0 0.2 0.1 0.4 0.3 0.4 0.3 0 0.4-0.2 0.4-0.4 0-0.3-0.1-0.4-0.4-0.4zm-3.8 0.8c-0.3 0-0.4 0.1-0.4 0.3 0 0.3 0.1 0.4 0.4 0.4 0.2 0 0.3-0.1 0.3-0.4 0-0.2-0.1-0.3-0.3-0.3zm-3.9 0.7c-0.3 0-0.4 0.2-0.4 0.4 0 0.2 0.1 0.4 0.4 0.4 0.2 0 0.3-0.2 0.3-0.4 0-0.2-0.1-0.4-0.3-0.4zm-5.5-4.6c-0.2 0-0.4 0.1-0.4 0.3 0 0.3 0.2 0.4 0.4 0.4 0.2 0 0.4-0.1 0.4-0.4 0-0.2-0.2-0.3-0.4-0.3zm-0.8 5.4c-0.2 0-0.4 0.2-0.4 0.4 0 0.2 0.2 0.4 0.4 0.4 0.2 0 0.4-0.2 0.4-0.4 0-0.2-0.2-0.4-0.4-0.4zm-2.3-0.8c-0.2 0-0.4 0.2-0.4 0.4 0 0.2 0.2 0.4 0.4 0.4 0.2 0 0.4-0.2 0.4-0.4 0-0.2-0.2-0.4-0.4-0.4zm60.8-10.9c-0.2 0-0.4 0.2-0.4 0.4 0 0.2 0.2 0.4 0.4 0.4 0.2 0 0.4-0.2 0.4-0.4 0-0.2-0.2-0.4-0.4-0.4zm-3.1-5.4c-0.2 0-0.4 0.1-0.4 0.4 0 0.2 0.2 0.3 0.4 0.3 0.2 0 0.4-0.1 0.4-0.3 0-0.3-0.2-0.4-0.4-0.4zm-5.5 3.1c-0.2 0-0.4 0.2-0.4 0.4 0 0.2 0.2 0.4 0.4 0.4 0.2 0 0.4-0.2 0.4-0.4 0-0.2-0.2-0.4-0.4-0.4zm-14 7c-0.2 0-0.4 0.2-0.4 0.4 0 0.2 0.2 0.4 0.4 0.4 0.2 0 0.4-0.2 0.4-0.4 0-0.2-0.2-0.4-0.4-0.4zm-3.9 0.8c-0.2 0-0.4 0.2-0.4 0.4 0 0.2 0.2 0.4 0.4 0.4 0.2 0 0.4-0.2 0.4-0.4 0-0.2-0.2-0.4-0.4-0.4zm-10.2-3.9c-0.2 0-0.3 0.2-0.3 0.4 0 0.2 0.1 0.4 0.3 0.4 0.3 0 0.4-0.2 0.4-0.4 0-0.2-0.1-0.4-0.4-0.4zm-3.9 7c-0.2 0-0.3 0.2-0.3 0.4 0 0.2 0.1 0.4 0.3 0.4 0.3 0 0.4-0.2 0.4-0.4 0-0.2-0.1-0.4-0.4-0.4zm-10.9-3.9c-0.2 0-0.4 0.2-0.4 0.4 0 0.2 0.2 0.4 0.4 0.4 0.2 0 0.4-0.2 0.4-0.4 0-0.2-0.2-0.4-0.4-0.4zm-3.9 0.8c-0.2 0-0.4 0.2-0.4 0.4 0 0.2 0.2 0.4 0.4 0.4 0.2 0 0.4-0.2 0.4-0.4 0-0.2-0.2-0.4-0.4-0.4zm44.5-9.4c-0.2 0-0.4 0.2-0.4 0.4 0 0.2 0.2 0.4 0.4 0.4 0.2 0 0.4-0.2 0.4-0.4 0-0.2-0.2-0.4-0.4-0.4zm-1.6 6.3c-0.2 0-0.4 0.1-0.4 0.3 0 0.3 0.2 0.4 0.4 0.4 0.2 0 0.4-0.1 0.4-0.4 0-0.2-0.2-0.3-0.4-0.3zm-15.6-2.4c-0.2 0-0.4 0.2-0.4 0.4 0 0.2 0.2 0.4 0.4 0.4 0.2 0 0.4-0.2 0.4-0.4 0-0.2-0.2-0.4-0.4-0.4zm-1.5 6.3c-0.2 0-0.4 0.1-0.4 0.3 0 0.3 0.2 0.4 0.4 0.4 0.2 0 0.4-0.1 0.4-0.4 0-0.2-0.2-0.3-0.4-0.3zm-13.3-3.2c-0.2 0-0.4 0.2-0.4 0.4 0 0.2 0.2 0.4 0.4 0.4 0.2 0 0.4-0.2 0.4-0.4 0-0.2-0.2-0.4-0.4-0.4zm-3.9 0.8c-0.2 0-0.4 0.2-0.4 0.4 0 0.2 0.2 0.4 0.4 0.4 0.2 0 0.4-0.2 0.4-0.4 0-0.2-0.2-0.4-0.4-0.4zm-8.6 7.8c-0.2 0-0.4 0.2-0.4 0.4 0 0.2 0.2 0.4 0.4 0.4 0.2 0 0.4-0.2 0.4-0.4 0-0.2-0.2-0.4-0.4-0.4zm40.6-8.6c-0.2 0-0.4 0.2-0.4 0.4 0 0.2 0.2 0.4 0.4 0.4 0.2 0 0.4-0.2 0.4-0.4 0-0.2-0.2-0.4-0.4-0.4zm-3.9 0.8c-0.2 0-0.4 0.2-0.4 0.4 0 0.2 0.2 0.4 0.4 0.4 0.2 0 0.4-0.2 0.4-0.4 0-0.2-0.2-0.4-0.4-0.4zm-3.1-5.4c-0.2 0-0.4 0.1-0.4 0.4 0 0.2 0.2 0.3 0.4 0.3 0.2 0 0.4-0.1 0.4-0.3 0-0.3-0.2-0.4-0.4-0.4zm-15.6 9.3c-0.2 0-0.4 0.2-0.4 0.4 0 0.2 0.2 0.4 0.4 0.4 0.2 0 0.4-0.2 0.4-0.4 0-0.2-0.2-0.4-0.4-0.4zm-3.2-5.4c-0.2 0-0.3 0.1-0.3 0.3 0 0.3 0.1 0.4 0.3 0.4 0.3 0 0.4-0.1 0.4-0.4 0-0.2-0.1-0.3-0.4-0.3zm42.2-2.4c-0.3 0-0.4 0.2-0.4 0.4 0 0.2 0.1 0.4 0.4 0.4 0.2 0 0.4-0.2 0.4-0.4 0-0.2-0.2-0.4-0.4-0.4zm-3.9 0.8c-0.3 0-0.4 0.2-0.4 0.4 0 0.2 0.1 0.4 0.4 0.4 0.2 0 0.4-0.2 0.4-0.4 0-0.2-0.2-0.4-0.4-0.4zm-5.5-1.6c-0.2 0-0.4 0.2-0.4 0.4 0 0.2 0.2 0.4 0.4 0.4 0.2 0 0.4-0.2 0.4-0.4 0-0.2-0.2-0.4-0.4-0.4zm-8.6 4.7c-0.2 0-0.4 0.2-0.4 0.4 0 0.2 0.2 0.4 0.4 0.4 0.2 0 0.4-0.2 0.4-0.4 0-0.2-0.2-0.4-0.4-0.4zm-4.7 0.8c-0.2 0-0.3 0.2-0.3 0.4 0 0.2 0.1 0.4 0.3 0.4 0.3 0 0.4-0.2 0.4-0.4 0-0.2-0.1-0.4-0.4-0.4zm-3.1 0.8c-0.2 0-0.4 0.2-0.4 0.4 0 0.2 0.2 0.4 0.4 0.4 0.2 0 0.4-0.2 0.4-0.4 0-0.2-0.2-0.4-0.4-0.4zm-10.9 2.3c-0.2 0-0.4 0.2-0.4 0.4 0 0.2 0.2 0.4 0.4 0.4 0.2 0 0.4-0.2 0.4-0.4 0-0.2-0.2-0.4-0.4-0.4zm-3.1-6.2c-0.2 0-0.4 0.2-0.4 0.4 0 0.2 0.2 0.4 0.4 0.4 0.2 0 0.4-0.2 0.4-0.4 0-0.2-0.2-0.4-0.4-0.4zm-4.7 0.8c-0.2 0-0.4 0.1-0.4 0.3 0 0.3 0.2 0.4 0.4 0.4 0.2 0 0.4-0.1 0.4-0.4 0-0.2-0.2-0.3-0.4-0.3zm-10.1 9.3c-0.2 0-0.4 0.2-0.4 0.4 0 0.2 0.2 0.4 0.4 0.4 0.2 0 0.4-0.2 0.4-0.4 0-0.2-0.2-0.4-0.4-0.4zm-3.9-6.2c-0.2 0-0.4 0.2-0.4 0.4 0 0.2 0.2 0.4 0.4 0.4 0.2 0 0.4-0.2 0.4-0.4 0-0.2-0.2-0.4-0.4-0.4zm-3.9 2.3c-0.2 0-0.4 0.2-0.4 0.4 0 0.2 0.2 0.4 0.4 0.4 0.2 0 0.4-0.2 0.4-0.4 0-0.2-0.2-0.4-0.4-0.4zm56.1-7.8c-0.2 0-0.4 0.2-0.4 0.4 0 0.2 0.2 0.4 0.4 0.4 0.2 0 0.4-0.2 0.4-0.4 0-0.2-0.2-0.4-0.4-0.4zm-0.8-4.7c-0.2 0-0.3 0.2-0.3 0.4 0 0.2 0.1 0.4 0.3 0.4 0.3 0 0.4-0.2 0.4-0.4 0-0.2-0.1-0.4-0.4-0.4zm-9.3 1.6c-0.2 0-0.4 0.2-0.4 0.4 0 0.2 0.2 0.4 0.4 0.4 0.2 0 0.4-0.2 0.4-0.4 0-0.2-0.2-0.4-0.4-0.4zm-7 7.8c-0.2 0-0.4 0.2-0.4 0.4 0 0.2 0.2 0.4 0.4 0.4 0.2 0 0.4-0.2 0.4-0.4 0-0.2-0.2-0.4-0.4-0.4zm-15.6-3.1c-0.2 0-0.4 0.2-0.4 0.4 0 0.2 0.2 0.4 0.4 0.4 0.2 0 0.4-0.2 0.4-0.4 0-0.2-0.2-0.4-0.4-0.4zm-3.9 0.8c-0.2 0-0.4 0.1-0.4 0.3 0 0.3 0.2 0.4 0.4 0.4 0.2 0 0.4-0.1 0.4-0.4 0-0.2-0.2-0.3-0.4-0.3zm36.6-1.6c-0.2 0-0.4 0.2-0.4 0.4 0 0.2 0.2 0.4 0.4 0.4 0.2 0 0.4-0.2 0.4-0.4 0-0.2-0.2-0.4-0.4-0.4zm-5.4 1.6c-0.2 0-0.4 0.1-0.4 0.3 0 0.3 0.2 0.4 0.4 0.4 0.2 0 0.4-0.1 0.4-0.4 0-0.2-0.2-0.3-0.4-0.3zm-6.3-5.5c-0.2 0-0.4 0.2-0.4 0.4 0 0.2 0.2 0.4 0.4 0.4 0.2 0 0.4-0.2 0.4-0.4 0-0.2-0.2-0.4-0.4-0.4zm-7.8 1.6c-0.2 0-0.4 0.1-0.4 0.4 0 0.2 0.2 0.3 0.4 0.3 0.2 0 0.4-0.1 0.4-0.3 0-0.3-0.2-0.4-0.4-0.4zm-24.9 5.4c-0.2 0-0.4 0.2-0.4 0.4 0 0.2 0.2 0.4 0.4 0.4 0.2 0 0.4-0.2 0.4-0.4 0-0.2-0.2-0.4-0.4-0.4zm-7 8.6c-0.3 0-0.4 0.2-0.4 0.4 0 0.2 0.1 0.4 0.4 0.4 0.2 0 0.3-0.2 0.3-0.4 0-0.2-0.1-0.4-0.3-0.4zm-1.6 0c-0.2 0-0.4 0.2-0.4 0.4 0 0.2 0.2 0.4 0.4 0.4 0.2 0 0.4-0.2 0.4-0.4 0-0.2-0.2-0.4-0.4-0.4z"/></svg>