<svg version="1.2" xmlns="http://www.w3.org/2000/svg" viewBox="0 0 490 305" width="490" height="305">
	<title>3220556ecdaa495be9cf55e6d215dede</title>
	<style>
		.s0 { opacity: 1;fill: #0c1514 } 
	</style>
	<path id="Path 0" fill-rule="evenodd" class="s0" d="m293.5 4l5 2.3c2.8 1.3 6.3 3.9 7.9 5.8 1.5 1.9 3.5 5 4.4 6.9 1.3 2.8 1.7 9.1 2.7 63.3l6.5 1.9c3.6 1.1 9.6 2.8 13.5 3.9 3.9 1.1 11.1 3.1 16 4.4 4.9 1.4 13.1 3.6 18 5 4.9 1.5 9.9 2.9 11 3.2 1.1 0.4 3.5 1.5 5.2 2.5 3.3 1.8 3.6 1.8 23.5-1.6 11.2-1.9 21.7-3.8 23.3-4.2 1.9-0.4 4.1-0.1 6 0.9 1.6 0.8 4.2 2.8 5.6 4.4 1.4 1.5 3.2 5.1 3.9 7.8 1 4 1 5.8 0 9-0.6 2.2-2.4 5.2-3.8 6.8-1.6 1.5-3.8 2.7-5.2 2.7-1.4 0-8.4 1.1-15.6 2.3-7.3 1.2-13.6 2.5-14 2.9-0.5 0.4 3.3 11.2 8.4 24 5.1 12.8 10.2 25.2 13.2 31.8h-4.3c-4.2 0-4.2 0-6.6-5.7-1.3-3.2-3.4-8.3-4.7-11.3-1.2-3-5.1-12.6-8.6-21.3-5.8-14.5-6.5-15.8-8.8-15.7-1.4 0-20.7 2.9-43 6.5-22.3 3.6-41.6 6.8-43 7.1-2.2 0.5-1.7 1 4.5 4.1 7 3.4 7.1 3.5 17.5 2.9 5.8-0.2 12-1 13.7-1.5 2.2-0.8 4-0.8 5.3-0.1 1.1 0.6 2 1.8 2 2.8 0.1 0.9-0.5 2.2-1.2 2.9-0.7 0.7-4.7 2-8.8 2.9-4.9 1-10.4 1.4-16 1.1-7.5-0.3-9.7-0.9-18.5-4.9-5.5-2.6-14.9-6.9-21-9.7-6.1-2.8-11.8-5.6-12.8-6.1-0.9-0.6-4.4-1-7.7-1-3.3 0-6.9 0.4-8 1-1.1 0.6-2.4 1.9-3 3-0.8 1.5-0.5 2.8 1.3 5.6 1.2 1.9 8.2 8.2 15.5 14 7.2 5.7 21.2 15.2 31 21 9.7 5.9 18.6 11.9 19.6 13.3 1 1.4 6 6.7 11 11.6 5 5 12.5 11.2 16.6 13.8 4.1 2.5 10.9 5.9 15 7.4 5.8 2 9.9 2.8 18 3.1 5.8 0.2 11.1 0.9 11.8 1.6 0.7 0.6 1.3 1.8 1.3 2.6 0 0.8-0.6 2-1.3 2.7-0.8 0.8-4.5 1.3-9.3 1.4-4.4 0-10.3-0.5-13-1.1-2.8-0.7-7-1.9-9.5-2.7-2.5-0.8-7.6-3.1-11.5-5.1-3.9-2-9.3-5.4-12-7.4-2.8-2.1-5.6-3.8-6.3-3.8-0.6 0-1.2 0.8-1.2 1.8-0.1 0.9-0.9 3.1-1.8 4.8-0.9 1.7-2.8 4.4-4.2 6.1-1.4 1.6-4.5 4-11.5 7.8h-221l-5-2.6c-2.8-1.4-6.4-4.4-8.2-6.5-1.7-2.1-3.9-5.6-4.7-7.6-1.4-3.3-1.6-11.7-1.6-129.8l-27.5-0.5-0.3-40.5c-0.1-25.4 0.1-41.4 0.8-43 0.5-1.4 2.2-3.7 3.7-5.2 1.6-1.5 4.1-3.4 5.8-4.2 2.7-1.4 16-1.6 236-1.6zm-211.5 116c0.5 94.8 0.7 104.8 2.2 107.5 0.9 1.7 2.7 4 4 5.2 1.2 1.2 4 2.9 6 3.7 2.1 0.9 5.2 1.6 6.9 1.6 2.1 0 4-1 6-3l2.9-3c0-66.1 0.3-75.8 1.2-76.7 0.9-1 15.6-1.3 66.5-1.3 35.9 0 65.3-0.3 65.3-0.7 0-0.5-2.9-2.1-6.5-3.8-3.6-1.6-6.8-3.6-7-4.2-0.3-0.7-0.3-1.9 0-2.5 0.3-0.7 5-4.2 10.5-7.8 8.2-5.4 9.9-6.9 10-9 0-1.8 1.5-3.8 5.2-7 2.9-2.5 10.2-8.4 16.3-13.2 6.1-4.7 14.7-11 19.1-13.9 4.5-3 9.6-6.2 11.3-7.1l3.1-1.8c0-56.6-0.1-57.6-2.2-62-1.3-2.5-3.9-5.5-5.8-6.8l-3.5-2.3c-208.4 0.1-213.8 0.2-212.9 1.9 0.5 0.9 1.1 46.8 1.4 106.2zm207.5-18c-5.5 4-14.6 10.9-20.2 15.4-5.8 4.6-10.2 8.9-10.3 9.9 0 0.9 0.7 1.9 1.5 2.2 0.8 0.3 4 0.5 7 0.5 4.9 0 7.4-1 23.8-9.1l18.2-9.1 10 4.3c19.4-3.1 30.9-5.1 38.2-6.3 7.3-1.3 12.9-2.6 12.5-2.9-0.4-0.4-4.1-1.6-8.2-2.8-4.1-1.2-16.1-4.5-26.5-7.5-10.4-2.9-20.6-5.6-22.5-5.9-2.6-0.5-4.8-0.1-8.5 1.7-2.8 1.3-9.5 5.6-15 9.6zm139.5 10c0 1.7 0.6 4.2 1.4 5.8 0.7 1.5 2.2 3 3.2 3.5q1.9 0.7 3.8-1c1.4-1.4 1.7-2.7 1.2-6.3-0.3-2.5-1.3-5.3-2.3-6.3-1-1-2.8-1.8-4-1.7-1.2 0-2.4 0.7-2.7 1.5-0.3 0.8-0.6 2.9-0.6 4.5zm-81.5 7.4c-8.3 1.4-21.8 3.7-30 5-8.3 1.4-17 2.8-19.5 3.2-2.5 0.3-8.1 2.5-12.5 4.7l-8 4 16 7.7c14.7-2.2 31.8-4.9 47.5-7.5 15.7-2.5 35.5-5.6 44-7 8.5-1.4 19.6-3.2 24.5-4.1 4.9-0.8 10.2-1.7 11.8-1.9 2.7-0.5 2.7-0.5 1.2-4-0.8-1.9-1.5-5.5-1.5-8 0-2.5-0.3-4.5-0.8-4.4-0.4 0.1-13.5 2.3-29.2 5-15.7 2.6-35.3 5.9-43.5 7.3zm-102.5 21.4l-3.5 2.5c5.5 2.8 6.1 2.8 6.4 1.6 0.3-0.8 2-3 3.8-4.9 1.8-1.9 3.2-3.8 3.3-4.2 0-0.5-0.3-0.8-0.8-0.7-0.4 0-1.8 0.7-3.2 1.6-1.4 0.9-4.1 2.8-6 4.1zm-127 55.7c0 28.4-0.3 35.1-1.5 38l-1.5 3.5c181.6 0 199.5-0.2 201.8-1.4 1.5-0.7 3.9-2.7 5.4-4.5 2.3-2.5 2.8-4.1 2.8-8.1 0-4.3-0.2-4.9-1.8-4.3-0.9 0.3-2.5 1.3-3.5 2.2-1.5 1.3-3.1 1.5-8.5 0.9-4.3-0.5-7.3-1.4-8.5-2.5-1-1-1.8-2.8-1.7-4 0-2-0.5-2.3-4.3-2.3-2.4 0-5.5-0.8-7.5-2-3.2-2-3.2-2.1-3.2-10v-8c-8.5 0-12.4-0.7-14-1.5-3-1.5-3-1.5-3-10.2v-8.8l-15-11.5h-136zm158.3-13.5c0.2 0.8 0.6 2.1 1 2.8 0.4 0.6 2 1.2 3.7 1.2 1.6 0 3-0.4 3.1-0.9 0-0.5-1.5-2-3.4-3.5-2-1.4-3.8-2.3-4.1-1.9-0.2 0.5-0.4 1.5-0.3 2.3zm17.7 23c7.4 0 9.1-0.6 10.7-2.2 1.3-1.3 2.3-3 2.3-3.8 0-0.8-2.5-3-5.5-4.7-3-1.8-6-3.3-6.5-3.3-0.6 0-1 3-1 7zm15 7c0 1.7 0.7 2 4.2 2 3.1 0.1 4.8-0.5 6-2 1.7-1.9 1.7-2.1-1-5.5-1.5-2-2.9-3.6-3.2-3.5-0.3 0-1.8 1.6-3.3 3.5-1.5 1.9-2.7 4.4-2.7 5.5zm-158.4-152c21.7 0 40.1 0.2 40.9 0.5 0.8 0.3 1.5 1.5 1.5 2.8 0 1.2-0.5 2.8-1.2 3.5-0.9 0.9-10.5 1.2-41 1.2-34 0-40-0.2-41.3-1.5-0.8-0.8-1.5-1.9-1.6-2.4 0-0.5 0.7-1.7 1.6-2.5 1.4-1.4 6.6-1.6 41.1-1.6zm62.3 0c6.4 0 10 0.4 10.9 1.2 0.7 0.7 1.2 2.1 1.2 3.1 0 0.9-0.9 2.2-2 2.7-1.1 0.6-5.6 1-10 1-4.4 0-8.9-0.4-10-1-1.1-0.5-2.1-1.8-2.2-2.8-0.1-1 0.4-2.3 1.2-3 0.9-0.7 5-1.2 10.9-1.2zm-45.2 21c57.3 0 58.3 0 59.3 2 0.5 1.1 1 2.2 1 2.5 0 0.3-0.7 1.2-1.6 2-1.3 1.3-9.2 1.5-58.5 1.5-35.9 0-57.6-0.4-58.9-1-1.1-0.5-2.1-1.8-2.2-2.8-0.1-1 0.4-2.3 1.2-3 1.1-0.9 15.8-1.2 59.7-1.2zm-42.7 21c13.5-0.1 14.6 0.1 16.5 2 1.6 1.7 1.8 2.5 0.9 3.8-1 1.5-3.4 1.7-17 1.9-11.5 0.2-16.3-0.1-17.2-1-0.7-0.6-1.3-2-1.4-2.9-0.1-0.9 0.7-2.2 1.8-2.7 1-0.6 8.4-1.1 16.4-1.1zm63.5 0c27.4 0 36.4 0.3 37.8 1.2 1.2 0.8 1.7 2.2 1.2 6.3h-78l-0.3-2.5c-0.2-1.6 0.3-3 1.4-3.7 1.4-1 10.7-1.3 37.9-1.3z"/>
</svg>