<svg version="1.2" xmlns="http://www.w3.org/2000/svg" viewBox="0 0 512 512" width="512" height="512">
	<title>data</title>
	<style>
		.s0 { fill: #000000; }
	</style>
	<path id="Path 0" fill-rule="evenodd" class="s0" d="m38.5 0.1h178.5c177-0.1 178.5-0.1 184 1.9 3 1.1 7.3 3.1 9.5 4.4 2.2 1.3 6.1 4.6 8.6 7.2 2.5 2.7 5.5 6.8 6.7 9.2 1.2 2.3 2.9 6.8 3.7 10 0.8 3.1 1.5 8.5 1.5 18.2h-16.5l-0.6-7.7c-0.4-4.3-1.4-9.4-2.4-11.3-0.9-1.9-3.1-5-4.9-6.8-1.7-1.9-4.9-4.3-11.1-7.7l-176-0.3c-153.1-0.2-176.6 0-180.5 1.3-2.5 0.8-6.3 3-8.5 4.8-2.2 1.8-5.1 5.6-9 13.2l-0.3 140.5c-0.2 122.8 0 141.2 1.3 145.8 1 3.6 2.9 6.7 6.3 10.3 2.6 2.7 6.2 5.6 8 6.2 1.8 0.7 3.2 1.9 3.2 2.7 0 0.8-0.9 4.4-1.9 8-1.5 5.3-2.2 6.4-3.7 6.2-1.1-0.2-4.4-1.5-7.4-3-3-1.5-7.5-4.7-10-7.2-2.5-2.5-6-7.4-7.8-11-1.7-3.6-3.6-9-4.2-12-0.7-3.6-1-54.6-1-144.5 0-121.4 0.2-139.8 1.6-145.5 0.8-3.6 2.7-8.5 4.2-11 1.4-2.5 4.2-6.2 6.2-8.4 1.9-2.1 4.9-4.8 6.5-6 1.6-1.1 5.9-3.3 9.5-4.8zm307.5 136.9h17l0.1 84.5 7.6 3.5c4.1 1.9 8 3.6 8.4 3.8 0.5 0.1 0.9-12.8 0.9-57.8h17v70.5l7.8 7.8c4.2 4.2 8 7.7 8.4 7.7 0.5 0 0.8-11.7 0.8-52h17v41.8c0 39.5 0.1 42 2 47.7 1.2 3.3 2.8 9.2 3.8 13 1.3 5.3 1.7 11.4 1.7 42.5h9.5v17h-7c-6.7 0-7 0.1-7.5 2.5-0.3 1.4-2.4 6.9-8.7 22l41 41c23.9 23.9 41.3 42 41.7 43.5 0.4 1.5 0.1 3.7-0.8 5.5-0.8 1.7-7.9 9.2-15.6 16.8-12.3 11.9-14.5 13.7-17.4 13.7-2.9 0-7-3.8-43.7-40.5-22.3-22.3-40.8-40.5-41.3-40.5-0.4 0-4 1.9-8 4.3-3.9 2.4-9.9 5.5-13.2 6.9-3.3 1.5-9.8 3.8-14.5 5.1-4.7 1.4-12.3 3.1-17 3.7-5.3 0.8-13.5 1.1-22 0.7-10-0.4-16-1.2-23.3-3.1-5.3-1.4-13.6-4.3-18.5-6.4-4.8-2.1-12.8-6.4-17.7-9.6-5.3-3.4-13-9.9-18.6-15.5-5.3-5.3-12.1-13.4-15.2-18.1-3-4.7-7.1-11.9-9-16-1.9-4.1-4.1-9.4-6.2-16h-115.5v-17h111.5l-0.3-13.7c-0.2-7.6 0.1-17.4 0.8-21.8 0.6-4.4 2.5-12 7-26v-92.5h17v30.5c0 16.8 0.3 30.5 0.7 30.5 0.5 0 4.3-3.5 16.3-15.5v-62.5h17v25c0 13.8 0.4 24.9 0.8 24.8 0.5-0.2 4.3-1.9 16.2-7.3v-33.5h17v28.5l3.2-0.8c1.8-0.4 5.7-1.1 13.8-2.2v-59.5h18v59.5l5.2 0.7c2.9 0.4 6.8 1.1 11.8 2.3zm-53 97c-4.1 1.2-12 4.3-17.5 6.9-5.5 2.6-12.4 6.7-15.5 9-3 2.3-8.1 6.7-11.3 9.9-3.3 3.1-8.1 8.6-10.9 12.2-2.7 3.6-7.1 11-9.8 16.5-2.7 5.5-5.8 13.6-7 18-1.4 5.4-2.3 12.4-2.6 21.5-0.4 8.5-0.1 16.3 0.6 21 0.7 4.1 2.3 10.9 3.6 15 1.3 4.1 4.2 11.1 6.5 15.5 2.2 4.4 6.6 11.3 9.8 15.4 3.1 4.1 8.3 9.9 11.6 12.9 3.3 3 8.5 7.2 11.5 9.2 3.1 2.1 8.7 5.3 12.5 7.2 3.9 1.9 9.7 4.4 13 5.6 3.3 1.1 9.9 2.7 14.5 3.6 4.7 0.9 12.9 1.6 18.3 1.6 5.9 0 13.8-0.8 20-2.1 5.6-1.1 14-3.6 18.5-5.5 4.5-1.9 10.6-4.8 13.5-6.6 2.9-1.7 7.9-5.3 11.2-7.8 3.3-2.6 8.5-7.4 11.5-10.6 3.1-3.3 7.9-9.5 10.8-13.9 2.9-4.4 6.7-11.4 8.4-15.5 1.7-4.1 4-10.9 5.1-15 1.3-5 2.1-12.2 2.5-21.5 0.4-10.9 0.1-15.9-1.2-22.5-0.9-4.7-2.8-11.6-4.2-15.5-1.3-3.8-4.3-10.4-6.5-14.5-2.2-4.1-6-10-8.3-13-2.4-3-7.2-8.3-10.7-11.7-3.5-3.5-8.6-7.9-11.4-9.9-2.7-2-8.9-5.6-13.7-8-4.8-2.4-12.5-5.5-17-6.8-4.5-1.3-13-2.9-18.8-3.5-5.7-0.6-11.1-1.1-12-1-0.8 0.1-5.1 0.6-9.5 1-4.4 0.5-11.3 1.8-15.5 2.9zm109.2 185.5l71.8 72 13.5-13.5c-55.8-55.8-72.2-72-72.5-72-0.3 0-3.3 3-6.7 6.8zm-364.1-385.5h17v17h-17zm35 0h17v17h-17zm34 0h17v17h-17zm161.5 34.1c153.6-0.1 174.7 0.1 180.5 1.4 3.5 0.9 8.6 2.8 11.3 4.3 2.7 1.4 7.1 5 9.8 7.9 2.7 2.9 6.3 8.3 11.4 18.8v294l-2.9 6c-1.5 3.3-3.7 7.2-4.7 8.7-1.7 2.4-2.2 2.6-3.8 1.5-1-0.7-3.9-3.2-11.1-9.7l5.5-9.5v-288l-2.2-4c-1.1-2.2-3.8-5.6-6-7.5-2.1-1.8-5.4-4.1-7.3-5-3.2-1.4-21.3-1.5-357.5-1.5l-5.4 3c-2.9 1.6-6.5 4.5-7.9 6.5-1.5 1.9-3.2 4.9-3.9 6.7-1.1 2.6-1.3 30.7-1.3 146 0 135.7 0.1 142.9 1.8 146.8 1 2.2 3.4 5.5 5.2 7.4 1.9 1.9 5.5 4.3 8 5.5 4.3 2 6.1 2.1 121 2.6v17l-59.8-0.3c-59-0.3-59.8-0.3-65.2-2.5-3.1-1.2-8-3.9-11-6-3.4-2.4-7.2-6.4-9.9-10.3-2.3-3.6-5-8.7-5.9-11.4-1.6-4.6-1.8-16.9-2-143.5-0.2-92.4 0-141.2 0.7-146.5q1.1-8 4.3-14.5c1.7-3.6 5.3-8.7 7.9-11.3 2.7-2.6 7.7-6.1 11.1-7.7 3.4-1.7 8.3-3.4 10.8-3.9 2.5-0.5 80.4-1 178.5-1zm-178.5 33.8l16.5 0.6 0.5 16.5h-17zm34 0l16.4 0.5 0.5 16.5h-17zm33.9 0.1h17v17h-17zm-17 128h17v103h-17zm34 26h17v77h-17zm-68 26h17v51h-17zm218-34.2c3 0.2 9.5 1.2 14.5 2.3 4.9 1 12.4 3.5 16.5 5.5 4.1 2 10.2 5.5 13.5 7.9 3.3 2.3 9 7.5 12.7 11.4 3.8 3.9 8.8 10.6 11.3 14.9 2.5 4.2 5.9 12 7.6 17.2 2.6 7.9 3.2 11.6 3.6 22 0.4 9.4 0.1 14.5-1.1 20.5-0.9 4.4-3.1 11.4-4.7 15.5-1.7 4.1-5 10.4-7.3 14-2.4 3.6-6.5 8.9-9.2 11.9-2.7 3-7.6 7.4-10.9 9.9-3.3 2.5-10.1 6.4-15 8.8-5 2.3-11.9 5.1-15.5 6-4.9 1.4-10.2 1.8-21 1.8-10.8 0-16.2-0.4-21-1.8-3.6-0.9-10.6-3.7-15.5-6-5-2.4-11.9-6.5-15.4-9.2-3.6-2.7-8.7-7.4-11.3-10.4-2.7-3-6.9-8.6-9.3-12.5-2.4-3.8-5.6-10.1-7-14-1.5-3.8-3.3-10-4.1-13.7-0.8-3.7-1.4-11.3-1.4-16.8 0-5.5 0.7-13.5 1.6-17.7 0.8-4.3 2.9-10.9 4.4-14.8 1.6-3.8 4.8-9.9 7.1-13.5 2.3-3.6 6.9-9.4 10.3-12.9 3.3-3.5 8.8-8.3 12.1-10.6 3.3-2.4 9.4-5.9 13.5-7.8 4.1-1.9 10-4.2 13-5.1 3-0.9 9.3-2 14-2.4 4.7-0.4 11-0.6 14-0.4zm-29.8 21.5c-0.9 0.6-1.2 8.1-1.2 32.2v31.5h-17l-0.1-53.5c-9.7 10.1-14.1 15.9-16.1 19.5-2 3.6-4.7 9.7-6 13.5-1.9 5.8-2.3 9.1-2.3 19.5 0 6.9 0.3 13.8 0.7 15.3l0.8 2.7h132c1.2-4.2 1.5-11.3 1.4-18.5-0.1-11.4-0.4-13.9-2.7-20.5-1.5-4.1-4.2-9.9-6-12.9-1.7-3-6-8.4-9.4-12l-6.2-6.6-0.1 53.5h-17l-0.5-63.5c-7.8-2.5-11.5-3.5-13.3-3.9l-3.2-0.6-0.5 67.5h-17c-0.4-52.3-0.9-67.5-1.3-67.4-0.4 0-3.6 0.8-7.2 1.8-3.6 0.9-7.1 2-7.8 2.4zm-32.1 101c1.2 1.8 3.9 5.2 5.8 7.6 2 2.4 6.3 6.4 9.6 8.9 3.3 2.5 9.1 6 13 7.8 3.8 1.7 10.3 3.9 14.2 4.8 4 0.9 10.4 1.6 14.3 1.6 3.8 0 10.3-0.7 14.2-1.6 4-0.9 10.4-3.1 14.3-4.8 3.8-1.8 9.7-5.3 13-7.8 3.3-2.5 7.6-6.5 9.5-8.9 2-2.4 4.6-5.8 5.8-7.6l2.2-3.3h-118.3z"/>
</svg>