<svg version="1.2" xmlns="http://www.w3.org/2000/svg" viewBox="0 0 512 512" width="512" height="512">
	<title>key-chain</title>
	<style>
		.s0 { fill: #000000; }
	</style>
	<path id="Path 0" fill-rule="evenodd" class="s0" d="m396.5 0.1c11.1-0.1 14.7 0.3 24.5 2.8 6.3 1.5 15.3 4.6 20 6.7 4.7 2.2 11.9 6.3 16 9.1 4.1 2.8 11.3 9.1 16 14 4.7 4.8 10.2 11.3 12.2 14.3 2 3 5.4 9.3 7.7 14 2.2 4.7 5.2 12.5 6.7 17.5 2 6.9 2.7 12.1 3.1 22.5 0.4 8.7 0.2 16.4-0.7 21.5-0.6 4.4-2.3 11.6-3.7 16-1.4 4.4-4.1 11.2-6 15-2 3.8-5.5 9.9-7.9 13.5-2.3 3.6-7.4 9.7-11.1 13.5-3.8 3.8-9 8.6-11.6 10.5-3.3 2.4-4.6 4-4.1 5 0.3 0.8 1.7 5.8 3.2 11 2.3 8.5 2.6 11.4 2.6 28 0.1 14.4-0.3 20.1-1.7 25.8-0.9 3.9-2.7 10-3.8 13.4-1.2 3.5-4.5 10.8-7.3 16.3-2.8 5.5-8 13.8-11.7 18.5-3.6 4.7-9.4 11.1-13 14.3-3.5 3.3-10 8.3-14.4 11.2-4.4 2.9-10.7 6.6-14 8.3-3.3 1.6-9.4 4.1-13.5 5.5-4.1 1.4-11.3 3.3-16 4.3-5.1 1.1-13.2 1.8-20.5 1.8-6.6 0.1-15.1-0.3-26-1.6l-56.6 75.9c-31.1 41.7-57.9 76.7-59.5 77.7-2.3 1.5-6.4 2.2-19.9 3.3-9.3 0.7-22.2 1.6-28.5 2-11.1 0.6-11.6 0.5-14.8-1.8-1.8-1.3-4-3.4-4.8-4.7-0.8-1.2-3.9-13.3-7-27-4.2-18.8-5.4-25.6-4.8-28.7 0.3-2.2 1.6-6 2.9-8.5 1.2-2.5 4-6 6.1-7.8 2.1-1.8 5.7-3.9 7.9-4.7 2.2-0.8 7.2-2.3 18-5.5l-0.7-4.7c-0.4-2.7-0.7-7.1-0.7-9.8q-0.1-5 1.9-8.3c1.1-1.7 3-3.8 4.2-4.6 1.3-0.8 6.4-2.6 11.3-4.1 4.9-1.4 9.1-2.7 9.3-2.8 0.2-0.1-0.3-3.6-0.9-7.7-1.1-6.5-1-8.1 0.4-12.3 1-2.8 2.8-5.5 4.4-6.6 1.6-1 6.9-3 11.8-4.5 4.9-1.5 9.2-2.9 9.5-3.2 0.3-0.3-0.1-4.7-0.8-9.7-1.1-7.8-1.1-9.7 0-12.7 0.8-1.9 7.6-11.7 28.8-40l-3.3-8c-1.7-4.4-3.5-8-4-8-0.4 0-35.2 20.6-77.5 45.9-42.2 25.2-77.7 46.3-79 47-1.2 0.6-3.9 1.1-6 1.1-2 0-14.5-3.6-27.7-8-13.2-4.4-25.1-8.5-26.3-9.2-1.3-0.7-3.2-2.7-4.3-4.3-1.1-1.7-1.9-4.9-1.9-7.5 0-2.5 1.7-14.4 3.8-26.5 2.2-12.1 4.7-23.8 5.8-25.9 1-2.2 3.9-5.7 6.4-7.8 2.5-2.1 6.7-4.6 9.5-5.5 3.7-1.1 6.8-1.4 12-0.9 3.8 0.4 8.8 0.9 15 1.8l2-7.3c1-4.1 2.8-8.8 4-10.4 1.1-1.6 3.6-3.8 5.5-4.8 2.7-1.4 4.8-1.7 9.5-1.2 3.3 0.3 8.2 0.8 16 1.7l1.2-5.9c0.7-3.2 2.3-7.7 3.5-10.1 1.6-3 3.5-5 6.3-6.3 3.7-1.8 4.9-1.9 14.5-0.9 6.3 0.7 10.7 0.7 11 0.2 0.3-0.5 1.3-4.3 2.2-8.3 1-4.1 2.8-8.9 4-10.8 1.7-2.4 8-6.8 42.9-27.6l0.3-14c0.2-7.9 1.1-17.3 2-21.5 0.9-4.1 2.6-10.4 3.8-14 1.1-3.6 4.1-10.6 6.5-15.5 2.5-5 6.5-11.9 9.1-15.5 2.5-3.6 7.8-9.8 11.6-13.9 3.9-4 10.5-9.8 14.6-13 4.1-3.1 11.1-7.5 15.5-9.8 4.4-2.2 11.8-5.5 16.5-7.1 4.7-1.7 12.3-3.7 17-4.5 4.7-0.9 11.9-1.8 23.5-2.7l5-7.3c2.7-3.9 8.4-10.6 12.6-14.7 4.1-4.1 10.9-9.7 15-12.5 4.1-2.7 11.2-6.7 15.9-8.9 4.7-2.1 13.4-5.2 19.5-6.7 9.1-2.3 13.3-2.8 24-2.8zm-31.3 22.9c-4.2 1.6-10.5 4.6-14 6.7-3.4 2.1-8.7 5.8-11.8 8.3-3.1 2.5-7.8 7.2-10.5 10.5-2.6 3.3-4.7 6.1-4.6 6.2 0.1 0.1 4.7 1.4 10.2 2.8 5.6 1.4 14.8 4.9 21 7.9 6.1 3 14.6 8.1 19 11.3 4.4 3.3 11.4 9.5 15.5 13.9 4.2 4.3 9.4 10.6 11.7 13.9 2.2 3.3 5.9 9.6 8.1 14 2.2 4.4 5.1 11.1 6.4 15 2.1 6.4 3.2 7.9 12.3 17 5.5 5.5 12.4 13.6 15.3 18 2.9 4.4 5.4 8.4 5.5 9 0.2 0.6 1.4 0.3 2.8-0.6 1.3-0.9 5.2-4.5 8.7-8 3.5-3.5 8-8.9 10-11.9 2-3 5.2-8.7 7.1-12.5 1.8-3.9 4.5-11.3 5.8-16.5 1.8-7.3 2.3-12.2 2.3-21.3 0-7-0.6-14.6-1.6-19-0.9-3.9-3-10.6-4.6-14.7-1.7-4.1-5.4-11.1-8.3-15.5-3-4.5-8.9-11.5-13.7-16-4.9-4.6-11.8-9.9-16.4-12.5-4.3-2.4-11.5-5.7-15.9-7.1-4.4-1.5-11.5-3.2-15.8-3.8-4.2-0.6-10.7-1.1-14.4-1-3.8 0-10.3 0.7-14.5 1.5-4.3 0.8-11.3 2.7-15.5 4.4zm-89.3 51.1c-4.1 1.2-11.1 3.8-15.5 5.8-4.4 2-10.9 5.7-14.5 8.1-3.6 2.5-9.4 7.2-12.9 10.5-3.5 3.3-8.5 8.9-11.2 12.5-2.7 3.6-6.8 10.1-9.1 14.5-2.2 4.4-5 10.5-6 13.5-1 3-2.6 8.6-3.5 12.5-1.2 4.9-1.7 12.1-1.7 24-0.1 9.3-0.4 17.6-0.9 18.2-0.4 0.7-10.3 7-22 13.9-11.6 7-21.8 13.2-22.5 13.8-0.7 0.6-2.3 5.1-3.5 10.1-1.3 4.9-3 10-3.8 11.3-0.8 1.3-3 3.3-4.9 4.4-3.2 2-4.4 2.1-15.3 1.5l-11.7-0.7c-2.7 13.4-3.7 15.7-6.3 18.4-1.7 1.9-4.5 3.7-6.2 4.2-1.7 0.4-7.6 0.3-13.3-0.2l-10.3-0.9c-1.5 5.8-2.4 9.3-2.9 11.5-0.5 2.2-2.3 5.6-4 7.5-2.1 2.4-4.2 3.7-6.8 4.1-2 0.4-8.8 0.2-15-0.5-7.6-0.7-12-0.8-13.7-0.1-1.4 0.6-3.2 2-3.9 3.2-0.8 1.3-2.9 10.6-4.6 20.8-1.7 10.2-3.3 19.5-3.6 20.7-0.4 2.2 0.9 2.7 21.1 9.3l21.5 7 158.5-95c-1.2-7.4-1.6-15.4-1.6-22.5 0-9.5 0.5-15.8 2.1-23.5 1.2-5.8 3.7-14.6 5.6-19.5 2-5 5.2-11.9 7.2-15.5 2-3.6 6.2-9.9 9.3-14 3.1-4.1 8.7-10.4 12.5-13.9 3.8-3.6 10-8.7 13.9-11.4 3.9-2.7 10.5-6.6 14.7-8.8 4.3-2.1 11.1-5 15-6.4 4-1.3 10.7-3.2 14.8-4.1 5.4-1.2 12.1-1.7 24-1.7 12.1-0.1 18.5 0.4 24 1.7 4.1 0.9 11.3 3 16 4.6 4.7 1.6 8.6 2.7 8.7 2.4 0.2-0.2-1.2-3-3.1-6.2-1.9-3.1-6.1-8.9-9.3-12.7-3.2-3.9-9.7-10.1-14.3-13.8-4.7-3.7-12.6-8.8-17.5-11.2-4.9-2.4-11.3-5.1-14-6-2.8-0.9-8-2.3-11.8-3.1-3.7-0.8-11.1-1.6-16.5-1.8-5.3-0.3-12.8 0-16.7 0.5-3.9 0.5-10.4 1.9-14.5 3zm39 63.5c-4.7 1.4-11.6 4.2-15.5 6.1-3.9 2-9.5 5.2-12.5 7.3-3 2-8.4 6.4-11.9 9.6-3.5 3.2-9.1 9.5-12.3 13.9-3.3 4.4-7.8 11.6-9.9 16-2.1 4.4-5 12.1-6.5 17-2.1 7.3-2.7 11.7-3.1 23.5-0.4 9.4-0.1 17 0.7 21.5 0.7 3.9 2.1 9.9 3.2 13.5 1.1 3.6 4 10.4 6.4 15.2 2.4 4.9 4.4 9.9 4.4 11.3q0 2.5-15.8 23.7l-15.8 21.3c2.1 14.7 2.5 20.5 2.2 22.2-0.3 1.8-2.1 4.8-3.9 6.5-2.4 2.5-5.7 4.1-13 6.3l-9.8 3c1.4 18.1 1.2 19.3-0.6 22.5-1.1 1.9-3.6 4.2-5.4 5.1-1.9 0.9-7 2.7-11.4 4-4.4 1.2-8.1 2.3-8.2 2.3-0.2 0.1 0.2 3.7 0.8 8.1 0.9 5.9 0.9 9 0 11.7-0.6 2.1-2.4 4.9-4.1 6.3-1.7 1.4-7.4 3.8-13.3 5.5-5.6 1.7-11.2 3.5-12.4 4-1.3 0.6-2.9 2.5-3.7 4.2-1.4 3.1-1.1 4.8 3.1 23.8 2.5 11.3 4.8 20.8 5.2 21.1 0.3 0.4 10.5 0 22.6-0.8 12.1-0.9 22-1.6 22.1-1.7 0.1 0 25.4-34.1 56.4-75.6 30.9-41.5 57.2-76.6 58.3-77.9 1.2-1.3 3.1-2.7 4.2-3.1 1.2-0.5 4.6-0.2 8.5 0.8 4.5 1.1 11 1.6 21.5 1.5 13 0 16.3-0.4 25-2.7 5.5-1.5 14.1-4.6 19-7 4.9-2.3 12.6-7 17-10.3 4.4-3.3 10.4-8.7 13.3-11.9 3-3.2 7.2-8.6 9.5-11.9 2.2-3.3 6-10.1 8.3-15 2.4-4.9 5.3-12.8 6.6-17.5 2-7.5 2.3-10.6 2.2-26-0.1-14.2-0.5-18.8-2.1-24.5-1.1-3.9-2.4-6.9-2.9-6.8-0.5 0.1-4.7 1.6-9.4 3.3-4.7 1.6-13.3 3.8-19.2 4.7-10.4 1.7-10.8 1.9-12 4.8-0.7 1.6-3.3 5.2-5.8 7.9-2.5 2.6-6.8 6-9.5 7.5-4.4 2.3-6.1 2.6-15 2.6-8.9 0-10.5-0.3-15-2.7-2.8-1.4-6.9-4.6-9.1-7-2.3-2.3-5.2-6.3-6.5-8.8-1.6-3.2-2.4-6.9-2.7-12.5-0.4-5.9 0-9.3 1.2-13 0.9-2.8 3.2-7 5-9.5 1.8-2.5 5.5-5.9 8.2-7.6 2.7-1.8 6.7-3.8 8.9-4.5 2.2-0.7 6.7-1.2 10-1.3 3.3 0 8.3 0.8 11 1.7 2.8 0.9 7 3.1 9.5 5 2.5 1.8 5.9 5.6 7.7 8.3 1.7 2.7 3.7 6.8 4.5 9.1 1.3 4.3 1.3 4.3 5.3 3.7 2.2-0.3 6.7-1.3 10-2.1 3.3-0.8 8.4-2.4 11.3-3.4 2.8-1 5.2-2.2 5.2-2.7 0-0.4-1.8-3.6-4.1-7.2-2.3-3.6-6.5-9.2-9.3-12.4-2.8-3.2-8.7-8.8-13.1-12.3-4.4-3.5-12.5-8.6-18-11.3-5.6-2.8-14.4-6.1-20-7.6-7.4-1.9-13.2-2.7-22.5-2.9-6.9-0.2-15.2 0-18.5 0.5-3.3 0.5-9.8 2.1-14.5 3.6zm45.8 50.4c0.1 0.5 3.7 2.1 8 3.5 4.2 1.4 9.8 2.8 12.5 3.2 3.5 0.6 4.7 0.5 4.7-0.5 0-0.6-1.6-2.8-3.5-4.7-1.9-1.9-5.2-3.9-7.2-4.5-2.1-0.5-4.7-1-5.8-1-1.1 0.1-3.5 0.7-5.4 1.5-1.9 0.8-3.3 1.9-3.3 2.5zm-4.6 22c1.3 1.9 3.9 4.5 5.8 5.7 2.5 1.7 4.9 2.3 8.3 2.3 2.6 0 5.9-0.6 7.5-1.4 1.5-0.7 3.4-2.1 4.2-3 1.4-1.5 1.3-1.7-0.5-1.6-1.1 0-5.8-1-10.5-2.1-4.7-1.2-10.4-3-12.8-4-3-1.3-4.3-1.5-4.3-0.6 0 0.7 1.1 2.8 2.3 4.7zm-152.9 25c2.9 0 4.1 0.6 5.7 2.7 1.2 1.6 2 4.1 2 5.8 0 1.7-0.8 3.8-1.8 4.9-0.9 1-32.8 20.4-70.7 43.2-52.7 31.6-69.8 41.4-72.2 41.4-2.2 0-4.1-0.8-5.8-2.5-1.6-1.6-2.5-3.6-2.5-5.8 0-2.1 0.8-4 2.2-5.4 1.3-1.2 33.1-20.6 70.8-43.2 57.7-34.6 69.1-41.1 72.3-41.1zm89.6 76c2.1-0.1 4.6 0.7 6.1 1.9 1.9 1.5 2.5 2.8 2.5 5.8-0.1 3.4-5.1 10.5-54.8 77.3-30.2 40.4-56.1 74.7-57.8 76.3-1.6 1.5-4 2.7-5.4 2.7-1.4 0-3.8-1.3-5.5-3-2.3-2.3-2.9-3.7-2.7-6.2 0.2-2.6 12.8-20.1 55.1-76.8 30.2-40.4 55.8-74.5 56.9-75.8q2-2.2 5.6-2.2z"/>
</svg>